<?xml version="1.0" encoding="utf-8"?>
<!-- Generator: Adobe Illustrator 23.0.3, SVG Export Plug-In . SVG Version: 6.00 Build 0)  -->
<svg version="1.1" id="Layer_1" xmlns="http://www.w3.org/2000/svg" xmlns:xlink="http://www.w3.org/1999/xlink" x="0px" y="0px"
	 viewBox="0 0 1261.7 376.8" style="enable-background:new 0 0 1261.7 376.8;" xml:space="preserve">
<style type="text/css">
	.st0{fill:none;stroke:#000000;stroke-width:0.75;stroke-miterlimit:10;}
	.st1{fill:none;stroke:#000000;stroke-miterlimit:10;}
	.st2{fill:none;stroke:#000000;stroke-width:0.5;stroke-miterlimit:10;}
	.st3{fill:none;stroke:#000000;stroke-width:4;stroke-miterlimit:10;}
</style>
<line class="st0" x1="356.7" y1="307.7" x2="673.4" y2="307.7"/>
<line class="st0" x1="356.7" y1="316.8" x2="673.4" y2="316.8"/>
<line class="st0" x1="356.7" y1="320.2" x2="673.4" y2="320.2"/>
<line class="st0" x1="356.7" y1="327.8" x2="673.4" y2="327.8"/>
<line class="st0" x1="356.7" y1="331.6" x2="673.4" y2="331.6"/>
<line class="st0" x1="356.7" y1="334.6" x2="673.4" y2="334.6"/>
<line class="st0" x1="356.7" y1="337.6" x2="673.4" y2="337.6"/>
<line class="st0" x1="356.7" y1="343.5" x2="673.4" y2="343.5"/>
<line class="st0" x1="356.7" y1="352.4" x2="673.4" y2="352.4"/>
<rect x="1148" y="131.4" width="19" height="58.8"/>
<rect x="1039.3" y="135.6" width="38.1" height="100.7"/>
<rect x="1039.3" y="202" width="100.7" height="34.3"/>
<rect x="1144.4" y="202" width="10.4" height="34.3"/>
<rect x="1090.6" y="278.5" width="129" height="10.1"/>
<rect x="1090.3" y="302.1" width="129.4" height="10.1"/>
<rect x="1090.3" y="329.8" width="129.4" height="10.1"/>
<rect x="709.8" y="164" width="135.2" height="14.6"/>
<rect x="76.2" y="187.8" width="48.8" height="27.9"/>
<rect x="107.9" y="224.6" width="50.1" height="30.4"/>
<rect x="76.2" y="210.7" width="24.4" height="67.2"/>
<rect x="107.9" y="249.7" width="25.1" height="65"/>
<rect x="69.5" y="277.9" width="11.1" height="36.8"/>
<rect x="88.4" y="282.2" width="12.2" height="32.5"/>
<rect x="158" y="309.6" width="150.3" height="5.1"/>
<rect x="1090.5" y="316.3" width="129.4" height="3.7"/>
<rect x="699.1" y="273.3" width="8.5" height="32.1"/>
<rect x="714.5" y="273.3" width="8.5" height="32.1"/>
<rect x="727.6" y="273.3" width="8.5" height="32.1"/>
<rect x="739.9" y="273.3" width="8.5" height="32.1"/>
<rect x="754.3" y="273.3" width="8.5" height="32.1"/>
<rect x="768.9" y="273.3" width="8.5" height="32.1"/>
<rect x="781.6" y="273.3" width="8.5" height="32.1"/>
<rect x="794.1" y="273.3" width="8.5" height="32.1"/>
<rect x="806.7" y="273.3" width="8.5" height="32.1"/>
<rect x="823.2" y="273.3" width="8.5" height="32.1"/>
<circle class="st1" cx="725.2" cy="332.6" r="18.4"/>
<circle class="st1" cx="769.2" cy="332.6" r="18.4"/>
<circle class="st1" cx="725.2" cy="335" r="11"/>
<circle class="st1" cx="769.2" cy="335" r="11"/>
<ellipse transform="matrix(0.7071 -0.7071 0.7071 0.7071 9.0388 680.0474)" class="st1" cx="825.4" cy="329.1" rx="18.4" ry="18.4"/>
<circle class="st1" cx="823.7" cy="327.4" r="11"/>
<g>
	<path class="st2" d="M746.1,215.2c18.2,0,28.9-7,47.1-7c17.6,0,26.1,6.7,41.9,7h0.7c18.2,0,28.9-7,47.1-7c17.6,0,26.1,6.7,41.9,7"
		/>
	<path class="st2" d="M746.1,218.7c18.2,0,28.9-7,47.1-7c17.6,0,26.1,6.7,41.9,7h0.7c18.2,0,28.9-7,47.1-7c17.6,0,26.1,6.7,41.9,7"
		/>
	<path class="st2" d="M746.1,222.2c18.2,0,28.9-7,47.1-7c17.6,0,26.1,6.7,41.9,7h0.7c18.2,0,28.9-7,47.1-7c17.6,0,26.1,6.7,41.9,7"
		/>
	<path class="st2" d="M746.1,225.7c18.2,0,28.9-7,47.1-7c17.6,0,26.1,6.7,41.9,7h0.7c18.2,0,28.9-7,47.1-7c17.6,0,26.1,6.7,41.9,7"
		/>
	<path class="st2" d="M746.1,229.4c18.2,0,28.9-7,47.1-7c17.6,0,26.1,6.7,41.9,7h0.7c18.2,0,28.9-7,47.1-7c17.6,0,26.1,6.7,41.9,7"
		/>
	<path class="st2" d="M746.1,232.9c18.2,0,28.9-7,47.1-7c17.6,0,26.1,6.7,41.9,7h0.7c18.2,0,28.9-7,47.1-7c17.6,0,26.1,6.7,41.9,7"
		/>
	<path class="st2" d="M746.1,236.4c18.2,0,28.9-7,47.1-7c17.6,0,26.1,6.7,41.9,7h0.7c18.2,0,28.9-7,47.1-7c17.6,0,26.1,6.7,41.9,7"
		/>
	<path class="st2" d="M746.1,239.7c18.2,0,28.9-7,47.1-7c17.6,0,26.1,6.7,41.9,7h0.7c18.2,0,28.9-7,47.1-7c17.6,0,26.1,6.7,41.9,7"
		/>
	<path class="st2" d="M746.1,243.4c18.2,0,28.9-7,47.1-7c17.6,0,26.1,6.7,41.9,7h0.7c18.2,0,28.9-7,47.1-7c17.6,0,26.1,6.7,41.9,7"
		/>
	<path class="st2" d="M746.1,246.9c18.2,0,28.9-7,47.1-7c17.6,0,26.1,6.7,41.9,7h0.7c18.2,0,28.9-7,47.1-7c17.6,0,26.1,6.7,41.9,7"
		/>
	<path class="st2" d="M746.1,250.4c18.2,0,28.9-7,47.1-7c17.6,0,26.1,6.7,41.9,7h0.7c18.2,0,28.9-7,47.1-7c17.6,0,26.1,6.7,41.9,7"
		/>
</g>
<circle class="st3" cx="889.2" cy="142.6" r="7.6"/>
<circle class="st3" cx="910.7" cy="142.6" r="7.6"/>
<circle class="st3" cx="932.7" cy="142.6" r="7.6"/>
<circle class="st3" cx="888.9" cy="163.7" r="7.6"/>
<circle class="st3" cx="910.4" cy="163.7" r="7.6"/>
<circle class="st3" cx="932.4" cy="163.7" r="7.6"/>
<circle class="st3" cx="888.7" cy="184.8" r="7.6"/>
<circle class="st3" cx="910.2" cy="184.8" r="7.6"/>
<circle class="st3" cx="932.2" cy="184.8" r="7.6"/>
<circle class="st3" cx="277.1" cy="335" r="7.6"/>
<circle class="st3" cx="298.6" cy="335" r="7.6"/>
<circle class="st3" cx="320.6" cy="335" r="7.6"/>
<ellipse transform="matrix(0.4473 -0.8944 0.8944 0.4473 -182.3216 374.9975)" class="st3" cx="212.2" cy="335" rx="7.6" ry="7.6"/>
<ellipse transform="matrix(0.4473 -0.8944 0.8944 0.4473 -170.4498 394.2867)" class="st3" cx="233.8" cy="335" rx="7.6" ry="7.6"/>
<circle class="st3" cx="255.8" cy="335" r="7.6"/>
<circle class="st1" cx="1196.3" cy="151.2" r="18.4"/>
<circle class="st1" cx="1196.3" cy="192.9" r="18.4"/>
<circle class="st1" cx="1196.3" cy="236.9" r="18.4"/>
<circle class="st1" cx="1193.9" cy="151.2" r="11"/>
<circle class="st1" cx="1193.9" cy="192.9" r="11"/>
<circle class="st1" cx="1193.9" cy="236.9" r="11"/>
<g>
	<line class="st0" x1="1021.7" y1="135.8" x2="1021.7" y2="351.1"/>
	<line class="st0" x1="1015.8" y1="135.8" x2="1015.8" y2="351.1"/>
	<line class="st0" x1="1009.7" y1="135.8" x2="1009.7" y2="351.1"/>
	<line class="st0" x1="1006.7" y1="135.8" x2="1006.7" y2="351.1"/>
	<line class="st0" x1="997.7" y1="135.8" x2="997.7" y2="351.1"/>
	<line class="st0" x1="994.2" y1="135.8" x2="994.2" y2="351.1"/>
	<line class="st0" x1="986.6" y1="135.8" x2="986.6" y2="351.1"/>
	<line class="st0" x1="982.8" y1="135.8" x2="982.8" y2="351.1"/>
	<line class="st0" x1="979.8" y1="135.8" x2="979.8" y2="351.1"/>
	<line class="st0" x1="976.9" y1="135.8" x2="976.9" y2="351.1"/>
	<line class="st0" x1="971" y1="135.8" x2="971" y2="351.1"/>
	<line class="st0" x1="962.1" y1="135.8" x2="962.1" y2="351.1"/>
</g>
<rect x="864.6" y="269.3" width="17" height="81.9"/>
<rect x="888.7" y="269.3" width="55.8" height="45"/>
<rect x="913.8" y="321.7" width="30.7" height="30.7"/>
<g>
	<path d="M329.7,261.2c-11.7,0-17.5,4.3-22.8,8.1c-4.6,3.3-8.3,5.9-16.3,5.9s-11.7-2.6-16.3-5.9c-5.2-3.8-11.3-8.1-22.8-8.1
		c-11.7,0-17.5,4.3-22.8,8.1c-4.6,3.3-8.3,5.9-16.3,5.9s-11.7-2.6-16.3-5.9c-5.2-3.8-11.3-8.1-22.8-8.1v11.7
		c7.9,0,11.7,2.6,16.3,5.9c5.2,3.8,11.3,8.1,22.8,8.1c11.7,0,17.5-4.3,22.8-8.1c4.6-3.3,8.3-5.9,16.3-5.9c8,0,11.7,2.6,16.3,5.9
		c5.2,3.8,11.3,8.1,22.8,8.1c11.7,0,17.5-4.3,22.8-8.1c4.6-3.3,8.3-5.9,16.3-5.9c7.9,0,11.7,2.6,16.3,5.9c5.2,3.8,11.3,8.1,22.8,8.1
		v-11.7c-7.9,0-11.7-2.6-16.3-5.9C347.3,265.6,341.3,261.2,329.7,261.2z"/>
	<path d="M329.7,192.3c-11.7,0-17.5,4.3-22.8,8.1c-4.6,3.3-8.3,5.9-16.3,5.9s-11.7-2.6-16.3-5.9c-5.2-3.8-11.3-8.1-22.8-8.1
		c-11.7,0-17.5,4.3-22.8,8.1c-4.6,3.3-8.3,5.9-16.3,5.9s-11.7-2.6-16.3-5.9c-5.2-3.8-11.3-8.1-22.8-8.1V204c7.9,0,11.7,2.6,16.3,5.9
		c5.2,3.8,11.3,8.1,22.8,8.1c11.7,0,17.5-4.3,22.8-8.1c4.7-3.3,8.4-5.9,16.3-5.9c7.9,0,11.7,2.6,16.3,5.9c5.2,3.8,11.3,8.1,22.8,8.1
		c11.6,0,17.5-4.3,22.8-8.1c4.6-3.3,8.3-5.9,16.3-5.9c7.9,0,11.7,2.6,16.3,5.9c5.2,3.8,11.3,8.1,22.8,8.1v-11.8
		c-7.9,0-11.7-2.6-16.3-5.9C347.3,196.5,341.3,192.3,329.7,192.3z"/>
	<path d="M329.7,226.7c-11.7,0-17.5,4.3-22.8,8.1c-4.6,3.3-8.3,5.9-16.3,5.9s-11.7-2.6-16.3-5.9c-5.2-3.8-11.3-8.1-22.8-8.1
		c-11.7,0-17.5,4.3-22.8,8.1c-4.5,3.4-8.2,6-16.1,6s-11.7-2.6-16.3-5.9c-5.2-3.8-11.3-8.1-22.8-8.1v11.7c7.9,0,11.7,2.6,16.3,5.9
		c5.2,3.8,11.3,8.1,22.8,8.1c11.7,0,17.5-4.3,22.8-8.1c4.6-3.3,8.3-5.9,16.3-5.9c8,0,11.7,2.6,16.3,5.9c5.2,3.8,11.3,8.1,22.8,8.1
		c11.7,0,17.5-4.3,22.8-8.1c4.6-3.3,8.3-5.9,16.3-5.9c7.9,0,11.7,2.6,16.3,5.9c5.2,3.8,11.3,8.1,22.8,8.1v-11.7
		c-7.9,0-11.7-2.6-16.3-5.9C347.3,231,341.3,226.7,329.7,226.7z"/>
	<path d="M352.6,165.8c-5.2-3.8-11.3-8.1-22.9-8.1s-17.5,4.3-22.8,8.1c-4.6,3.3-8.3,5.9-16.3,5.9s-11.7-2.6-16.3-5.9
		c-5.2-3.8-11.3-8.1-22.9-8.1c-11.7,0-17.5,4.3-22.8,8.1c-4.6,3.3-8.3,5.9-16.3,5.9c-7.9,0-11.7-2.6-16.3-5.9
		c-5.2-3.7-11.2-8.1-22.8-8.1v11.7c7.9,0,11.7,2.6,16.3,5.9c5.2,3.8,11.3,8.1,22.8,8.1c11.5,0,17.5-4.3,22.8-8.1
		c4.6-3.3,8.3-5.9,16.3-5.9c8,0,11.7,2.6,16.3,5.9c5.2,3.8,11.3,8.1,22.8,8.1s17.5-4.3,22.8-8.1c4.6-3.3,8.3-5.9,16.3-5.9
		s11.7,2.6,16.3,5.9c5.2,3.8,11.3,8.1,22.8,8.1v-11.6C360.8,171.8,357.2,169.2,352.6,165.8z"/>
	<path d="M486.2,261.2c-11.7,0-17.5,4.3-22.8,8.1c-4.6,3.3-8.3,5.9-16.3,5.9s-11.7-2.6-16.3-5.9c-5.2-3.8-11.3-8.1-22.8-8.1
		s-17.5,4.3-22.8,8.1c-4.6,3.3-8.3,5.9-16.3,5.9s-11.7-2.6-16.3-5.9c-5.2-3.8-11.3-8.1-22.8-8.1v11.7c7.9,0,11.7,2.6,16.3,5.9
		c5.2,3.8,11.3,8.1,22.8,8.1c11.7,0,17.5-4.3,22.8-8.1c4.6-3.3,8.3-5.9,16.3-5.9s11.7,2.6,16.3,5.9c5.2,3.8,11.3,8.1,22.8,8.1
		c11.7,0,17.5-4.3,22.8-8.1c4.6-3.3,8.3-5.9,16.3-5.9c7.9,0,11.7,2.6,16.3,5.9c5.2,3.8,11.3,8.1,22.8,8.1v-11.7
		c-7.9,0-11.7-2.6-16.3-5.9C503.7,265.6,497.8,261.2,486.2,261.2z"/>
	<path d="M486.2,192.3c-11.7,0-17.5,4.3-22.8,8.1c-4.6,3.3-8.3,5.9-16.3,5.9s-11.7-2.6-16.3-5.9c-5.2-3.8-11.3-8.1-22.8-8.1
		s-17.5,4.3-22.8,8.1c-4.6,3.3-8.3,5.9-16.3,5.9s-11.7-2.6-16.3-5.9c-5.2-3.8-11.3-8.1-22.8-8.1V204c7.9,0,11.7,2.6,16.3,5.9
		c5.2,3.8,11.3,8.1,22.8,8.1c11.7,0,17.5-4.3,22.8-8.1c4.6-3.3,8.3-5.9,16.3-5.9s11.7,2.6,16.3,5.9c5.2,3.8,11.2,8.1,22.8,8.1
		c11.7,0,17.5-4.3,22.8-8.1c4.6-3.3,8.3-5.9,16.3-5.9c7.9,0,11.7,2.6,16.3,5.9c5.2,3.8,11.3,8.1,22.8,8.1v-11.8
		c-7.9,0-11.7-2.6-16.3-5.9C503.7,196.5,497.8,192.3,486.2,192.3z"/>
	<path d="M486.2,226.7c-11.7,0-17.5,4.3-22.8,8.1c-4.6,3.3-8.3,5.9-16.3,5.9s-11.7-2.6-16.3-5.9c-5.2-3.8-11.3-8.1-22.8-8.1
		s-17.5,4.3-22.8,8.1c-4.5,3.4-8.2,6-16.1,6s-11.7-2.6-16.3-5.9c-5.2-3.8-11.3-8.1-22.8-8.1v11.7c7.9,0,11.7,2.6,16.3,5.9
		c5.2,3.8,11.3,8.1,22.8,8.1c11.7,0,17.5-4.3,22.8-8.1c4.6-3.3,8.3-5.9,16.3-5.9s11.7,2.6,16.3,5.9c5.2,3.8,11.3,8.1,22.8,8.1
		c11.7,0,17.5-4.3,22.8-8.1c4.6-3.3,8.3-5.9,16.3-5.9c7.9,0,11.7,2.6,16.3,5.9c5.2,3.8,11.3,8.1,22.8,8.1v-11.7
		c-7.9,0-11.7-2.6-16.3-5.9C503.7,231,497.8,226.7,486.2,226.7z"/>
	<path d="M509,165.8c-5.2-3.8-11.3-8.1-22.8-8.1c-11.6,0-17.5,4.3-22.8,8.1c-4.6,3.3-8.3,5.9-16.3,5.9s-11.7-2.6-16.3-5.9
		c-5.3-3.8-11.3-8.1-22.9-8.1c-11.7,0-17.5,4.3-22.8,8.1c-4.6,3.3-8.3,5.9-16.3,5.9c-7.9,0-11.7-2.6-16.3-5.9
		c-5.2-3.7-11.1-8.1-22.8-8.1v11.7c7.9,0,11.7,2.6,16.3,5.9c5.2,3.8,11.3,8.1,22.8,8.1c11.6,0,17.5-4.3,22.8-8.1
		c4.6-3.3,8.3-5.9,16.3-5.9c7.9,0,11.7,2.6,16.3,5.9c5.2,3.8,11.3,8.1,22.8,8.1c11.6,0,17.5-4.3,22.8-8.1c4.6-3.3,8.3-5.9,16.3-5.9
		c7.9,0,11.7,2.6,16.3,5.9c5.2,3.8,11.3,8.1,22.8,8.1v-11.6C517.3,171.8,513.6,169.2,509,165.8z"/>
	<path d="M642.1,261.2c-11.7,0-17.5,4.3-22.8,8.1c-4.6,3.3-8.3,5.9-16.3,5.9c-7.9,0-11.7-2.6-16.3-5.9c-5.2-3.8-11.3-8.1-22.8-8.1
		c-11.6,0-17.5,4.3-22.8,8.1c-4.6,3.3-8.3,5.9-16.3,5.9c-7.9,0-11.7-2.6-16.3-5.9c-5.2-3.8-11.3-8.1-22.8-8.1v11.7
		c7.9,0,11.7,2.6,16.3,5.9c5.2,3.8,11.3,8.1,22.8,8.1c11.6,0,17.5-4.3,22.8-8.1c4.6-3.3,8.3-5.9,16.3-5.9c7.9,0,11.7,2.6,16.3,5.9
		c5.2,3.8,11.3,8.1,22.8,8.1c11.7,0,17.5-4.3,22.8-8.1c4.6-3.3,8.3-5.9,16.3-5.9c7.9,0,11.7,2.6,16.3,5.9c5.2,3.8,11.3,8.1,22.8,8.1
		v-11.7c-7.9,0-11.7-2.6-16.3-5.9C659.7,265.6,653.6,261.2,642.1,261.2z"/>
	<path d="M642.1,192.3c-11.7,0-17.5,4.3-22.8,8.1c-4.6,3.3-8.3,5.9-16.3,5.9c-7.9,0-11.7-2.6-16.3-5.9c-5.2-3.8-11.3-8.1-22.8-8.1
		c-11.6,0-17.5,4.3-22.8,8.1c-4.6,3.3-8.3,5.9-16.3,5.9c-7.9,0-11.7-2.6-16.3-5.9c-5.2-3.8-11.3-8.1-22.8-8.1V204
		c7.9,0,11.7,2.6,16.3,5.9c5.2,3.8,11.3,8.1,22.8,8.1c11.6,0,17.5-4.3,22.8-8.1c4.6-3.3,8.3-5.9,16.3-5.9c7.9,0,11.7,2.6,16.3,5.9
		c5.2,3.8,11.3,8.1,22.8,8.1c11.7,0,17.5-4.3,22.8-8.1c4.6-3.3,8.3-5.9,16.3-5.9c7.9,0,11.7,2.6,16.3,5.9c5.2,3.8,11.3,8.1,22.8,8.1
		v-11.8c-7.9,0-11.7-2.6-16.3-5.9C659.7,196.5,653.6,192.3,642.1,192.3z"/>
	<path d="M642.1,226.7c-11.7,0-17.5,4.3-22.8,8.1c-4.6,3.3-8.3,5.9-16.3,5.9c-7.9,0-11.7-2.6-16.3-5.9c-5.2-3.8-11.3-8.1-22.8-8.1
		c-11.6,0-17.5,4.3-22.8,8.1c-4.6,3.3-8.3,5.9-16.3,5.9c-7.9,0-11.7-2.6-16.3-5.9c-5.2-3.8-11.3-8.1-22.8-8.1v11.7
		c7.9,0,11.7,2.6,16.3,5.9c5.2,3.8,11.3,8.1,22.8,8.1c11.6,0,17.5-4.3,22.8-8.1c4.6-3.3,8.3-5.9,16.3-5.9c7.9,0,11.7,2.6,16.3,5.9
		c5.2,3.8,11.3,8.1,22.8,8.1c11.7,0,17.5-4.3,22.8-8.1c4.6-3.3,8.3-5.9,16.3-5.9c7.9,0,11.7,2.6,16.3,5.9c5.2,3.8,11.3,8.1,22.8,8.1
		v-11.6c-7.9,0-11.7-2.6-16.3-5.9C659.7,231,653.6,226.7,642.1,226.7z"/>
	<path d="M665,165.8c-5.2-3.8-11.3-8.1-22.9-8.1s-17.5,4.3-22.8,8.1c-4.6,3.3-8.3,5.9-16.3,5.9c-7.9,0-11.7-2.6-16.3-5.9
		c-5.2-3.8-11.3-8.1-22.8-8.1c-11.6,0-17.5,4.3-22.8,8.1c-4.6,3.3-8.3,5.9-16.3,5.9c-7.9,0-11.7-2.6-16.3-5.9
		c-5.3-3.7-11.3-8.1-22.8-8.1v11.7c7.9,0,11.7,2.6,16.3,5.9c5.2,3.8,11.3,8.1,22.8,8.1c11.6,0,17.5-4.3,22.8-8.1
		c4.6-3.3,8.3-5.9,16.3-5.9c7.9,0,11.7,2.6,16.3,5.9c5.2,3.8,11.3,8.1,22.8,8.1c11.6,0,17.5-4.3,22.8-8.1c4.6-3.3,8.3-5.9,16.3-5.9
		c7.9,0,11.7,2.6,16.3,5.9c5.2,3.8,11.3,8.1,22.8,8.1v-11.6C673.2,171.8,669.5,169.2,665,165.8z"/>
	<path d="M352.6,269.4c-5.2-3.8-11.3-8.1-22.8-8.1c-11.6,0-17.5,4.3-22.8,8.1c-4.6,3.3-8.3,5.9-16.3,5.9c-7.9,0-11.7-2.6-16.3-5.9
		c-5.2-3.8-11.3-8.1-22.8-8.1c-11.7,0-17.5,4.3-22.8,8.1c-4.6,3.3-8.3,5.9-16.3,5.9c-7.9,0-11.7-2.6-16.3-5.9
		c-5.2-3.7-11.1-8.1-22.7-8.1V273c7.9,0,11.7,2.6,16.3,5.9c5.2,3.8,11.3,8.1,22.8,8.1c11.7,0,17.5-4.3,22.8-8.1
		c4.6-3.3,8.3-5.9,16.3-5.9c8,0,11.7,2.6,16.3,5.9c5.2,3.8,11.3,8.1,22.8,8.1c11.7,0,17.5-4.3,22.8-8.1c4.6-3.3,8.3-5.9,16.3-5.9
		c7.9,0,11.7,2.6,16.3,5.9c5.2,3.8,11.3,8.1,22.8,8.1v-11.7C360.8,275.4,357.2,272.8,352.6,269.4z"/>
	<path d="M509,269.4c-5.2-3.8-11.3-8.1-22.8-8.1c-11.6,0-17.5,4.3-22.8,8.1c-4.6,3.3-8.3,5.9-16.3,5.9s-11.7-2.6-16.3-5.9
		c-5.2-3.8-11.3-8.1-22.8-8.1s-17.5,4.3-22.8,8.1c-4.6,3.3-8.3,5.9-16.3,5.9s-11.7-2.6-16.3-5.9c-5.2-3.7-11.1-8.1-22.7-8.1V273
		c7.9,0,11.7,2.6,16.3,5.9c5.2,3.8,11.3,8.1,22.8,8.1c11.7,0,17.5-4.3,22.8-8.1c4.6-3.3,8.3-5.9,16.3-5.9s11.7,2.6,16.3,5.9
		c5.2,3.8,11.3,8.1,22.8,8.1c11.7,0,17.5-4.3,22.8-8.1c4.6-3.3,8.3-5.9,16.3-5.9c7.9,0,11.7,2.6,16.3,5.9c5.2,3.8,11.3,8.1,22.8,8.1
		v-11.7C517.3,275.4,513.6,272.8,509,269.4z"/>
	<path d="M665,269.4c-5.2-3.8-11.3-8.1-22.8-8.1c-11.6,0-17.5,4.3-22.8,8.1c-4.6,3.3-8.3,5.9-16.3,5.9c-7.9,0-11.7-2.6-16.3-5.9
		c-5.2-3.8-11.3-8.1-22.8-8.1c-11.6,0-17.5,4.3-22.8,8.1c-4.6,3.3-8.3,5.9-16.3,5.9c-7.9,0-11.7-2.6-16.3-5.9
		c-5.2-3.8-11.3-8.1-22.8-8.1V273c7.9,0,11.7,2.6,16.3,5.9c5.2,3.8,11.3,8.1,22.8,8.1c11.6,0,17.5-4.3,22.8-8.1
		c4.6-3.3,8.3-5.9,16.3-5.9c7.9,0,11.7,2.6,16.3,5.9c5.2,3.8,11.3,8.1,22.8,8.1c11.7,0,17.5-4.3,22.8-8.1c4.6-3.3,8.3-5.9,16.3-5.9
		c7.9,0,11.7,2.6,16.3,5.9c5.2,3.8,11.3,8.1,22.8,8.1v-11.7C673.2,275.4,669.5,272.8,665,269.4z"/>
</g>
<circle class="st3" cx="1045.5" cy="289.1" r="7.6"/>
<circle class="st3" cx="1067" cy="289.1" r="7.6"/>
<circle class="st3" cx="1045.2" cy="310.2" r="7.6"/>
<circle class="st3" cx="1066.7" cy="310.2" r="7.6"/>
<circle class="st3" cx="1045" cy="331.3" r="7.6"/>
<circle class="st3" cx="1066.5" cy="331.3" r="7.6"/>
<line class="st0" x1="62" y1="112.1" x2="492.1" y2="112.1"/>
<line class="st0" x1="62" y1="118" x2="492.1" y2="118"/>
<line class="st0" x1="62" y1="124.1" x2="492.1" y2="124.1"/>
<line class="st0" x1="62" y1="127.1" x2="492.1" y2="127.1"/>
<line class="st0" x1="62" y1="136.2" x2="492.1" y2="136.2"/>
<line class="st0" x1="62" y1="139.6" x2="492.1" y2="139.6"/>
<line class="st0" x1="862.9" y1="112.1" x2="862.9" y2="139.6"/>
<line class="st0" x1="788.3" y1="112.1" x2="788.3" y2="139.6"/>
<line class="st0" x1="711.1" y1="112.1" x2="711.1" y2="139.6"/>
<line class="st0" x1="673.2" y1="112.3" x2="673.2" y2="139.8"/>
<line class="st0" x1="597" y1="112.1" x2="597" y2="139.6"/>
<line class="st0" x1="554" y1="112.1" x2="554" y2="139.6"/>
<line class="st0" x1="847.9" y1="112.1" x2="847.9" y2="139.6"/>
<line class="st0" x1="773.3" y1="112.1" x2="773.3" y2="139.6"/>
<line class="st0" x1="696.1" y1="112.3" x2="696.1" y2="139.8"/>
<line class="st0" x1="657.9" y1="112.3" x2="657.9" y2="139.8"/>
<line class="st0" x1="582" y1="112.1" x2="582" y2="139.6"/>
<line class="st0" x1="539" y1="112.1" x2="539" y2="139.6"/>
<line class="st0" x1="680.6" y1="112.3" x2="680.6" y2="139.8"/>
<line class="st0" x1="642.6" y1="112.3" x2="642.6" y2="139.8"/>
<line class="st0" x1="665.6" y1="112.3" x2="665.6" y2="139.8"/>
<line class="st0" x1="627.6" y1="112.3" x2="627.6" y2="139.8"/>
</svg>
