<?xml version="1.0" encoding="utf-8"?>
<!-- Generator: Adobe Illustrator 23.0.3, SVG Export Plug-In . SVG Version: 6.00 Build 0)  -->
<svg version="1.1" id="Layer_1" xmlns="http://www.w3.org/2000/svg" xmlns:xlink="http://www.w3.org/1999/xlink" x="0px" y="0px"
	 viewBox="0 0 1261.7 407.9" style="enable-background:new 0 0 1261.7 407.9;" xml:space="preserve">
<style type="text/css">
	.st0{fill:none;stroke:#000000;stroke-width:8;stroke-miterlimit:10;}
	.st1{fill:none;}
	.st2{fill:none;stroke:#000000;stroke-width:0.75;stroke-miterlimit:10;}
	.st3{fill:none;stroke:#000000;stroke-width:7.4961;stroke-miterlimit:10;}
	.st4{fill:none;stroke:#000000;stroke-miterlimit:10;}
	.st5{fill:none;stroke:#000000;stroke-width:0.6072;stroke-miterlimit:10;}
	.st6{fill:none;stroke:#000000;stroke-width:4;stroke-miterlimit:10;}
</style>
<line class="st0" x1="44.4" y1="152.4" x2="190.3" y2="152.4"/>
<line class="st1" x1="207.5" y1="-139.6" x2="378.7" y2="-139.6"/>
<line class="st0" x1="195.3" y1="152.4" x2="347.6" y2="152.4"/>
<line class="st1" x1="240.5" y1="-125.6" x2="397.8" y2="-126.9"/>
<line class="st0" x1="45.1" y1="138.5" x2="191" y2="138.5"/>
<line class="st0" x1="195" y1="138.5" x2="347.2" y2="138.5"/>
<line class="st2" x1="378.7" y1="96.6" x2="808.8" y2="96.6"/>
<line class="st2" x1="378.7" y1="102.5" x2="808.8" y2="102.5"/>
<line class="st2" x1="378.7" y1="108.6" x2="808.8" y2="108.6"/>
<line class="st2" x1="378.7" y1="111.6" x2="808.8" y2="111.6"/>
<line class="st2" x1="378.7" y1="120.7" x2="808.8" y2="120.7"/>
<line class="st2" x1="378.7" y1="124.1" x2="808.8" y2="124.1"/>
<line class="st2" x1="378.7" y1="131.7" x2="808.8" y2="131.7"/>
<line class="st2" x1="378.7" y1="135.5" x2="808.8" y2="135.5"/>
<line class="st2" x1="378.7" y1="138.5" x2="808.8" y2="138.5"/>
<line class="st2" x1="378.7" y1="141.5" x2="808.8" y2="141.5"/>
<line class="st2" x1="378.7" y1="147.4" x2="808.8" y2="147.4"/>
<line class="st2" x1="378.7" y1="156.3" x2="808.8" y2="156.3"/>
<line class="st3" x1="839.4" y1="148.3" x2="967.5" y2="148.3"/>
<line class="st3" x1="971.9" y1="148.3" x2="1105.6" y2="148.3"/>
<line class="st3" x1="840" y1="138.1" x2="968.1" y2="138.1"/>
<line class="st3" x1="971.6" y1="138.1" x2="1105.3" y2="138.1"/>
<rect x="1121.8" y="130.5" width="45.3" height="37.2"/>
<rect x="1148" y="163.9" width="19" height="58.8"/>
<rect x="1039.3" y="168.1" width="38.1" height="100.7"/>
<rect x="1039.3" y="234.5" width="100.7" height="34.3"/>
<rect x="1144.4" y="234.5" width="10.4" height="34.3"/>
<rect x="961.1" y="168.1" width="7.6" height="208.9"/>
<rect x="983.5" y="168.1" width="19.9" height="208.9"/>
<rect x="1016.9" y="168.1" width="9.7" height="208.9"/>
<rect x="1090.6" y="311" width="129" height="10.1"/>
<rect x="1090.3" y="334.6" width="129.4" height="10.1"/>
<rect x="1090.3" y="362.3" width="129.4" height="10.1"/>
<rect x="477.8" y="224.1" width="58" height="58"/>
<rect x="533.9" y="190.5" width="70.7" height="52.7"/>
<rect x="603.6" y="173.4" width="69.8" height="32.4"/>
<rect x="675.4" y="182.9" width="136.1" height="13.3"/>
<rect x="675.9" y="205.7" width="135.2" height="14.6"/>
<rect x="609" y="231.1" width="133.4" height="12.1"/>
<rect x="538" y="260.3" width="206.5" height="8.2"/>
<rect x="538" y="290.7" width="206.5" height="7.6"/>
<rect x="44.4" y="168.1" width="50.2" height="48.7"/>
<rect x="76.2" y="220.3" width="48.8" height="27.9"/>
<rect x="107.9" y="257.1" width="50.1" height="30.4"/>
<rect x="132.9" y="204.7" width="92.3" height="37.4"/>
<rect x="170" y="171.5" width="130" height="34.3"/>
<rect x="76.2" y="243.2" width="24.4" height="67.2"/>
<rect x="107.9" y="282.2" width="25.1" height="65"/>
<rect x="69.5" y="310.4" width="11.1" height="36.8"/>
<rect x="88.4" y="314.7" width="12.2" height="32.5"/>
<rect x="158" y="342.1" width="150.3" height="5.1"/>
<rect x="303.3" y="171.5" width="91.3" height="34.3"/>
<rect x="339.4" y="204.7" width="128.8" height="37.4"/>
<circle class="st4" cx="197.5" cy="290.8" r="18.4"/>
<circle class="st4" cx="243.1" cy="290.8" r="18.4"/>
<circle class="st4" cx="284.8" cy="290.8" r="18.4"/>
<circle class="st4" cx="328.8" cy="290.8" r="18.4"/>
<circle class="st4" cx="199.3" cy="295.4" r="11"/>
<circle class="st4" cx="243.1" cy="293.2" r="11"/>
<circle class="st4" cx="284.8" cy="293.2" r="11"/>
<circle class="st4" cx="328.8" cy="293.2" r="11"/>
<rect x="400.3" y="169.2" width="8.5" height="32.1"/>
<rect x="412.7" y="169.2" width="8.5" height="32.1"/>
<rect x="425.8" y="169.2" width="8.5" height="32.1"/>
<rect x="438.1" y="169.2" width="8.5" height="32.1"/>
<rect x="452.5" y="169.2" width="8.5" height="32.1"/>
<rect x="467.1" y="169.2" width="8.5" height="32.1"/>
<rect x="479.8" y="169.2" width="8.5" height="32.1"/>
<rect x="492.3" y="169.2" width="8.5" height="32.1"/>
<rect x="504.9" y="169.2" width="8.5" height="32.1"/>
<rect x="519.4" y="169.2" width="8.5" height="32.1"/>
<line class="st5" x1="359.3" y1="309.9" x2="641.2" y2="309.9"/>
<line class="st5" x1="359.3" y1="315.8" x2="641.2" y2="315.8"/>
<line class="st5" x1="359.3" y1="321.9" x2="641.2" y2="321.9"/>
<line class="st5" x1="359.3" y1="324.9" x2="641.2" y2="324.9"/>
<line class="st5" x1="359.3" y1="333.9" x2="641.2" y2="333.9"/>
<line class="st5" x1="359.3" y1="337.4" x2="641.2" y2="337.4"/>
<line class="st5" x1="359.3" y1="345" x2="641.2" y2="345"/>
<line class="st5" x1="359.3" y1="348.8" x2="641.2" y2="348.8"/>
<line class="st5" x1="359.3" y1="351.8" x2="641.2" y2="351.8"/>
<line class="st5" x1="359.3" y1="354.7" x2="641.2" y2="354.7"/>
<line class="st5" x1="359.3" y1="360.6" x2="641.2" y2="360.6"/>
<line class="st5" x1="359.3" y1="369.5" x2="641.2" y2="369.5"/>
<rect x="1090.5" y="348.8" width="129.4" height="3.7"/>
<circle class="st4" cx="1063" cy="372.6" r="18.4"/>
<circle class="st4" cx="1063" cy="328.6" r="18.4"/>
<circle class="st4" cx="1065.4" cy="372.6" r="11"/>
<circle class="st4" cx="1065.4" cy="328.6" r="11"/>
<rect x="699.1" y="305.8" width="8.5" height="32.1"/>
<rect x="714.5" y="305.8" width="8.5" height="32.1"/>
<rect x="727.6" y="305.8" width="8.5" height="32.1"/>
<rect x="739.9" y="305.8" width="8.5" height="32.1"/>
<rect x="754.3" y="305.8" width="8.5" height="32.1"/>
<rect x="768.9" y="305.8" width="8.5" height="32.1"/>
<rect x="781.6" y="305.8" width="8.5" height="32.1"/>
<rect x="794.1" y="305.8" width="8.5" height="32.1"/>
<rect x="806.7" y="305.8" width="8.5" height="32.1"/>
<rect x="823.2" y="305.8" width="8.5" height="32.1"/>
<rect x="246.7" y="-171.8" width="36.5" height="68.8"/>
<rect x="235.7" y="-225.8" width="67.6" height="34.4"/>
<rect x="246.7" y="-171.8" width="68.2" height="33.5"/>
<rect x="332.4" y="-239.3" width="50.2" height="64.2"/>
<rect x="321.4" y="-171.8" width="29.4" height="68.8"/>
<rect x="386.6" y="-239.3" width="71.1" height="57.7"/>
<rect x="424.6" y="-237.9" width="35.5" height="130.4"/>
<rect x="517" y="-251.8" width="66.1" height="57.4"/>
<rect x="517" y="-229.5" width="33.1" height="100.1"/>
<rect x="487.7" y="-251.8" width="23" height="95.1"/>
<rect x="464.6" y="-194.4" width="46.1" height="37.7"/>
<rect x="711.2" y="-179.4" width="55.2" height="130.9"/>
<rect x="711.2" y="-77" width="79.3" height="28.5"/>
<rect x="776.7" y="-229.5" width="12.7" height="140.1"/>
<rect x="797.7" y="-244.2" width="61.4" height="181.5"/>
<rect x="812.4" y="-107.9" width="163.1" height="45.1"/>
<rect x="843.9" y="-151.8" width="33.6" height="57.2"/>
<rect x="671.9" y="-269.5" width="25.9" height="116"/>
<rect x="882.5" y="-253.1" width="41" height="23.6"/>
<rect x="912.3" y="-155.6" width="41.4" height="28.8"/>
<rect x="905.2" y="-211.3" width="45.5" height="45.5"/>
<rect x="930.4" y="-243.9" width="20.3" height="64.5"/>
<rect x="882.5" y="-183" width="20.5" height="46.9"/>
<rect x="970.6" y="-246.3" width="44.5" height="30.7"/>
<rect x="992.8" y="-230.9" width="22" height="68.1"/>
<rect x="970.6" y="-207" width="29.5" height="93.1"/>
<rect x="983.9" y="-156.5" width="33.1" height="42.6"/>
<circle class="st4" cx="725.2" cy="365.1" r="18.4"/>
<circle class="st4" cx="769.2" cy="365.1" r="18.4"/>
<circle class="st4" cx="725.2" cy="367.5" r="11"/>
<circle class="st4" cx="769.2" cy="367.5" r="11"/>
<ellipse transform="matrix(0.7071 -0.7071 0.7071 0.7071 -13.9455 689.5211)" class="st4" cx="825.4" cy="361.6" rx="18.4" ry="18.4"/>
<circle class="st4" cx="823.7" cy="359.9" r="11"/>
<circle class="st6" cx="558.4" cy="-103.1" r="7.6"/>
<circle class="st6" cx="579.9" cy="-103.1" r="7.6"/>
<circle class="st6" cx="601.9" cy="-103.1" r="7.6"/>
<circle class="st6" cx="558.1" cy="-82" r="7.6"/>
<circle class="st6" cx="579.6" cy="-82" r="7.6"/>
<circle class="st6" cx="601.6" cy="-82" r="7.6"/>
<circle class="st6" cx="557.9" cy="-60.9" r="7.6"/>
<circle class="st6" cx="579.4" cy="-60.9" r="7.6"/>
<circle class="st6" cx="601.4" cy="-60.9" r="7.6"/>
<ellipse transform="matrix(0.4473 -0.8944 0.8944 0.4473 365.0209 384.4944)" class="st6" cx="493.6" cy="-103.1" rx="7.6" ry="7.6"/>
<circle class="st6" cx="515.1" cy="-103.1" r="7.6"/>
<circle class="st6" cx="537.1" cy="-103.1" r="7.6"/>
<ellipse transform="matrix(0.5847 -0.8112 0.8112 0.5847 271.3567 366.1991)" class="st6" cx="493.4" cy="-81.9" rx="7.6" ry="7.6"/>
<circle class="st6" cx="514.9" cy="-82" r="7.6"/>
<circle class="st6" cx="536.9" cy="-82" r="7.6"/>
<ellipse transform="matrix(0.4473 -0.8944 0.8944 0.4473 326.998 407.3719)" class="st6" cx="493.1" cy="-60.9" rx="7.6" ry="7.6"/>
<circle class="st6" cx="514.6" cy="-60.9" r="7.6"/>
<circle class="st6" cx="536.6" cy="-60.9" r="7.6"/>
<ellipse class="st4" cx="396.9" cy="-151.8" rx="18.4" ry="18.4"/>
<circle class="st4" cx="395.2" cy="-153.5" r="11"/>
<ellipse class="st4" cx="656.9" cy="-78.4" rx="18.4" ry="18.4"/>
<circle class="st4" cx="655.1" cy="-80.1" r="11"/>
<circle class="st6" cx="405.4" cy="-87.6" r="7.6"/>
<circle class="st6" cx="426.9" cy="-87.6" r="7.6"/>
<circle class="st6" cx="448.9" cy="-87.6" r="7.6"/>
<circle class="st6" cx="405.1" cy="-66.4" r="7.6"/>
<circle class="st6" cx="426.6" cy="-66.4" r="7.6"/>
<circle class="st6" cx="448.6" cy="-66.4" r="7.6"/>
</svg>
