<?xml version="1.0" encoding="utf-8"?>
<!-- Generator: Adobe Illustrator 23.0.3, SVG Export Plug-In . SVG Version: 6.00 Build 0)  -->
<svg version="1.1" id="Layer_1" xmlns="http://www.w3.org/2000/svg" xmlns:xlink="http://www.w3.org/1999/xlink" x="0px" y="0px"
	 viewBox="0 0 1300 850" style="enable-background:new 0 0 1300 850;" xml:space="preserve">
<style type="text/css">
	.st0{fill:none;stroke:#000000;stroke-width:8;stroke-miterlimit:10;}
	.st1{fill:none;}
	.st2{fill:none;stroke:#000000;stroke-width:0.75;stroke-miterlimit:10;}
	.st3{fill:none;stroke:#000000;stroke-width:7.4961;stroke-miterlimit:10;}
	.st4{fill:none;stroke:#000000;stroke-miterlimit:10;}
	.st5{fill:none;stroke:#000000;stroke-width:0.4882;stroke-miterlimit:10;}
	.st6{fill:none;stroke:#000000;stroke-width:0.6072;stroke-miterlimit:10;}
	.st7{fill:#D68B09;}
	.st8{fill:none;stroke:#000000;stroke-width:0.7796;stroke-miterlimit:10;}
	.st9{font-family:'Futura-Bold';}
	.st10{font-size:36px;}
	.st11{fill:none;stroke:#020203;stroke-width:4.4031;stroke-miterlimit:10;}
	.st12{fill:#020203;}
	.st13{fill:none;stroke:#020203;stroke-width:3.4149;stroke-miterlimit:10;}
</style>
<rect x="441" y="557.2" transform="matrix(0.8192 0.5736 -0.5736 0.8192 423.4721 -153.0011)" width="26.8" height="75.8"/>
<line class="st0" x1="63.3" y1="115.4" x2="209.2" y2="115.4"/>
<line class="st1" x1="226.4" y1="-139.6" x2="397.6" y2="-139.6"/>
<line class="st0" x1="214.2" y1="115.4" x2="366.5" y2="115.4"/>
<line class="st1" x1="259.4" y1="-125.6" x2="416.7" y2="-126.9"/>
<line class="st0" x1="64" y1="101.5" x2="209.9" y2="101.5"/>
<line class="st1" x1="269.5" y1="-72.3" x2="387.5" y2="-71.1"/>
<line class="st0" x1="213.9" y1="101.5" x2="366.1" y2="101.5"/>
<line class="st2" x1="397.6" y1="59.6" x2="827.7" y2="59.6"/>
<line class="st2" x1="397.6" y1="65.5" x2="827.7" y2="65.5"/>
<line class="st2" x1="397.6" y1="71.6" x2="827.7" y2="71.6"/>
<line class="st2" x1="397.6" y1="74.6" x2="827.7" y2="74.6"/>
<line class="st2" x1="397.6" y1="83.7" x2="827.7" y2="83.7"/>
<line class="st2" x1="397.6" y1="87.1" x2="827.7" y2="87.1"/>
<line class="st2" x1="397.6" y1="94.7" x2="827.7" y2="94.7"/>
<line class="st2" x1="397.6" y1="98.5" x2="827.7" y2="98.5"/>
<line class="st2" x1="397.6" y1="101.5" x2="827.7" y2="101.5"/>
<line class="st2" x1="397.6" y1="104.5" x2="827.7" y2="104.5"/>
<line class="st2" x1="397.6" y1="110.4" x2="827.7" y2="110.4"/>
<line class="st2" x1="397.6" y1="119.3" x2="827.7" y2="119.3"/>
<line class="st3" x1="858.3" y1="111.3" x2="986.4" y2="111.3"/>
<line class="st3" x1="990.8" y1="111.3" x2="1124.5" y2="111.3"/>
<line class="st3" x1="858.9" y1="101.1" x2="987" y2="101.1"/>
<line class="st3" x1="990.5" y1="101.1" x2="1124.2" y2="101.1"/>
<rect x="1140.7" y="93.5" width="45.3" height="37.2"/>
<rect x="1166.9" y="126.9" width="19" height="58.8"/>
<rect x="1058.2" y="131.1" width="38.1" height="100.7"/>
<rect x="1058.2" y="197.5" width="100.7" height="34.3"/>
<rect x="1163.3" y="197.5" width="10.4" height="34.3"/>
<rect x="980" y="131.1" width="7.6" height="208.9"/>
<rect x="1002.4" y="131.1" width="19.9" height="208.9"/>
<rect x="1035.8" y="131.1" width="9.7" height="208.9"/>
<rect x="1109.5" y="274" width="129" height="10.1"/>
<rect x="1109.2" y="297.6" width="129.4" height="10.1"/>
<rect x="1109.2" y="325.3" width="129.4" height="10.1"/>
<rect x="1109.5" y="348" width="129" height="10.1"/>
<rect x="1109.5" y="372.5" width="129" height="10.1"/>
<rect x="1109.5" y="397" width="129" height="10.1"/>
<rect x="1109.5" y="419.9" width="129" height="10.1"/>
<rect x="1109.5" y="446.9" width="129" height="10.1"/>
<rect x="1109.5" y="473.9" width="129" height="10.1"/>
<rect x="1109.5" y="496" width="129" height="10.1"/>
<rect x="1109.5" y="522.2" width="129" height="10.1"/>
<rect x="1109.5" y="545.4" width="129" height="10.1"/>
<rect x="1109.5" y="568.7" width="129" height="10.1"/>
<rect x="1109.5" y="592" width="129" height="10.1"/>
<rect x="1109.5" y="615.2" width="129" height="10.1"/>
<rect x="1038.4" y="537.5" width="63" height="194.1"/>
<rect x="1081.9" y="639.4" width="45.7" height="92.2"/>
<rect x="1120.4" y="667.3" width="125.2" height="64.3"/>
<rect x="496.7" y="187.1" width="58" height="58"/>
<rect x="552.8" y="153.5" width="70.7" height="52.7"/>
<rect x="623.5" y="136.4" width="69.8" height="32.4"/>
<rect x="693.3" y="145.9" width="136.1" height="13.3"/>
<rect x="695.8" y="168.7" width="135.2" height="14.6"/>
<rect x="627.9" y="194.1" width="133.4" height="12.1"/>
<rect x="556.9" y="223.3" width="206.5" height="8.2"/>
<rect x="556.9" y="253.7" width="206.5" height="7.6"/>
<rect x="63.3" y="134.5" width="50.2" height="40"/>
<rect x="95.1" y="183.3" width="48.8" height="27.9"/>
<rect x="126.8" y="220.1" width="50.1" height="30.4"/>
<rect x="151.8" y="167.7" width="92.3" height="37.4"/>
<rect x="188.9" y="134.5" width="130" height="34.3"/>
<rect x="95.1" y="206.2" width="24.4" height="67.2"/>
<rect x="126.8" y="245.2" width="25.1" height="65"/>
<rect x="88.4" y="273.4" width="11.1" height="36.8"/>
<rect x="107.3" y="277.7" width="12.2" height="32.5"/>
<rect x="88.4" y="315.3" width="66.3" height="52"/>
<rect x="176.9" y="305.1" width="150.3" height="5.1"/>
<rect x="322.2" y="134.5" width="91.3" height="34.3"/>
<rect x="358.3" y="167.7" width="128.8" height="37.4"/>
<circle class="st4" cx="216.4" cy="253.8" r="18.4"/>
<circle class="st4" cx="262" cy="253.8" r="18.4"/>
<circle class="st4" cx="303.7" cy="253.8" r="18.4"/>
<circle class="st4" cx="347.7" cy="253.8" r="18.4"/>
<circle class="st4" cx="218.2" cy="258.4" r="11"/>
<circle class="st4" cx="262" cy="256.2" r="11"/>
<circle class="st4" cx="303.7" cy="256.2" r="11"/>
<circle class="st4" cx="347.7" cy="256.2" r="11"/>
<rect x="419.2" y="132.2" width="8.5" height="32.1"/>
<rect x="431.6" y="132.2" width="8.5" height="32.1"/>
<rect x="444.7" y="132.2" width="8.5" height="32.1"/>
<rect x="457" y="132.2" width="8.5" height="32.1"/>
<rect x="469.4" y="132.2" width="8.5" height="32.1"/>
<rect x="486" y="132.2" width="8.5" height="32.1"/>
<rect x="498.7" y="132.2" width="8.5" height="32.1"/>
<rect x="511.2" y="132.2" width="8.5" height="32.1"/>
<rect x="523.8" y="132.2" width="8.5" height="32.1"/>
<rect x="538.3" y="132.2" width="8.5" height="32.1"/>
<circle class="st4" cx="107.3" cy="390.8" r="18.4"/>
<circle class="st4" cx="107.3" cy="436.4" r="18.4"/>
<circle class="st4" cx="107.3" cy="478.1" r="18.4"/>
<circle class="st4" cx="107.3" cy="522.1" r="18.4"/>
<circle class="st4" cx="102.6" cy="392.6" r="11"/>
<circle class="st4" cx="104.9" cy="436.4" r="11"/>
<circle class="st4" cx="103.9" cy="479.1" r="11"/>
<circle class="st4" cx="104.9" cy="522.1" r="11"/>
<rect x="74.1" y="544.6" width="75.2" height="57.1"/>
<rect x="74.1" y="607.7" width="58.4" height="52.7"/>
<rect x="155.8" y="597" width="174.4" height="15.1"/>
<rect x="143.4" y="630.1" width="151" height="7.9"/>
<rect x="78.6" y="673.7" width="74.2" height="6.3"/>
<line class="st5" x1="168.2" y1="537.4" x2="168.2" y2="355.2"/>
<line class="st5" x1="174.1" y1="537.4" x2="174.1" y2="355.2"/>
<line class="st5" x1="180.1" y1="536.8" x2="180.1" y2="354.5"/>
<line class="st5" x1="183.1" y1="536.8" x2="183.1" y2="354.5"/>
<line class="st5" x1="192.2" y1="536.8" x2="192.2" y2="354.5"/>
<line class="st5" x1="195.7" y1="536.8" x2="195.7" y2="354.5"/>
<line class="st5" x1="203.3" y1="536.8" x2="203.3" y2="354.5"/>
<line class="st5" x1="207.1" y1="536.8" x2="207.1" y2="354.5"/>
<line class="st5" x1="210" y1="537.4" x2="210" y2="355.2"/>
<line class="st5" x1="213" y1="536.1" x2="213" y2="353.8"/>
<line class="st5" x1="218.9" y1="536.8" x2="218.9" y2="354.5"/>
<line class="st5" x1="227.8" y1="536.1" x2="227.8" y2="353.8"/>
<line class="st6" x1="378.2" y1="272.9" x2="660.1" y2="272.9"/>
<line class="st6" x1="378.2" y1="278.8" x2="660.1" y2="278.8"/>
<line class="st6" x1="378.2" y1="284.9" x2="660.1" y2="284.9"/>
<line class="st6" x1="378.2" y1="287.9" x2="660.1" y2="287.9"/>
<line class="st6" x1="378.2" y1="296.9" x2="660.1" y2="296.9"/>
<line class="st6" x1="378.2" y1="300.4" x2="660.1" y2="300.4"/>
<line class="st6" x1="378.2" y1="308" x2="660.1" y2="308"/>
<line class="st6" x1="378.2" y1="311.8" x2="660.1" y2="311.8"/>
<line class="st6" x1="378.2" y1="314.8" x2="660.1" y2="314.8"/>
<line class="st6" x1="378.2" y1="317.7" x2="660.1" y2="317.7"/>
<line class="st6" x1="378.2" y1="323.6" x2="660.1" y2="323.6"/>
<line class="st6" x1="378.2" y1="332.5" x2="660.1" y2="332.5"/>
<rect x="1109.4" y="311.8" width="129.4" height="3.7"/>
<rect x="176.9" y="652.7" width="438" height="6.3"/>
<text transform="matrix(1 0 0 1 347.7024 1023.5383)" class="st7" style="font-family:'Magiel-Black'; font-size:129.8331px;">HAŃBA!</text>
<g>
	<circle cx="956.8" cy="607" r="31.2"/>
	<rect x="984.4" y="494.2" transform="matrix(0.8256 0.5642 -0.5642 0.8256 487.4129 -461.2516)" width="11.1" height="127.5"/>
	<polygon points="1036.5,509.8 1017.4,496.7 1039.1,474.3 1050.1,481.8 	"/>
	<circle cx="1052.4" cy="488.5" r="2.9"/>
	<circle cx="1048.1" cy="497.8" r="2.9"/>
	<circle cx="1043.6" cy="507.6" r="2.9"/>
	<circle cx="1032" cy="474.2" r="2.9"/>
	<circle cx="1025" cy="481.6" r="2.9"/>
	<circle cx="1017.5" cy="489.4" r="2.9"/>
</g>
<g>
	<circle cx="414.9" cy="297.6" r="51.3"/>
	<ellipse transform="matrix(0.4395 -0.8982 0.8982 0.4395 31.4545 530.1974)" cx="440.6" cy="239.9" rx="5.3" ry="23.3"/>
	<rect x="383.5" y="234.1" width="28.7" height="6.9"/>
	<circle class="st7" cx="414.9" cy="297.6" r="17"/>
</g>
<line class="st8" x1="627.9" y1="577.4" x2="931.4" y2="577.4"/>
<line class="st8" x1="627.9" y1="589" x2="931.4" y2="589"/>
<line class="st8" x1="627.9" y1="594.8" x2="931.4" y2="594.8"/>
<line class="st8" x1="627.9" y1="599.4" x2="931.4" y2="599.4"/>
<line class="st8" x1="627.9" y1="603.9" x2="931.4" y2="603.9"/>
<line class="st8" x1="627.9" y1="613" x2="931.4" y2="613"/>
<line class="st8" x1="627.9" y1="626.6" x2="931.4" y2="626.6"/>
<text transform="matrix(6.123234e-17 -1 1 6.123234e-17 81.8424 422.1122)" class="st9 st10">zbuntowana</text>
<text transform="matrix(1 0 0 1 155.6895 587.9214)" class="st9 st10">orkiestra</text>
<text transform="matrix(1 0 0 1 633.6309 665.5253)" class="st9 st10">podwórkowa</text>
<circle class="st4" cx="1081.9" cy="422.9" r="18.4"/>
<circle class="st4" cx="1081.9" cy="377.3" r="18.4"/>
<circle class="st4" cx="1081.9" cy="335.6" r="18.4"/>
<circle class="st4" cx="1081.9" cy="291.6" r="18.4"/>
<circle class="st4" cx="1086.5" cy="421.1" r="11"/>
<circle class="st4" cx="1084.3" cy="377.3" r="11"/>
<circle class="st4" cx="1084.3" cy="335.6" r="11"/>
<circle class="st4" cx="1084.3" cy="291.6" r="11"/>
<rect x="528" y="563.2" width="89.2" height="77.8"/>
<g>
	<circle cx="892.8" cy="185.9" r="53.4"/>
	<circle class="st7" cx="892.8" cy="185.9" r="23.8"/>
	<circle class="st11" cx="934.7" cy="293.7" r="36.9"/>
	<path class="st12" d="M906.7,317.2c-11.4-5.9-14.6-26.1-16.3-41.1c-1.2-10.4-1.5-21.1,2-30.9c14.1-0.5,28-6,39.7-14
		c-13.1,19.7-20.6,43.2-21.1,66.9c-0.2,10.2,1.5,21.9,10,27.7"/>
</g>
<g>
	<circle class="st7" cx="947.6" cy="600.7" r="31.2"/>
	
		<rect x="975.2" y="487.9" transform="matrix(0.8256 0.5642 -0.5642 0.8256 482.2714 -457.1652)" class="st7" width="11.1" height="127.5"/>
	<polygon class="st7" points="1027.3,503.5 1008.2,490.4 1029.9,468.1 1040.9,475.6 	"/>
	<circle class="st7" cx="1043.3" cy="482.3" r="2.9"/>
	<circle class="st7" cx="1038.9" cy="491.5" r="2.9"/>
	<circle class="st7" cx="1034.4" cy="501.3" r="2.9"/>
	<circle class="st7" cx="1022.8" cy="467.9" r="2.9"/>
	<circle class="st7" cx="1015.8" cy="475.3" r="2.9"/>
	<circle class="st7" cx="1008.3" cy="483.1" r="2.9"/>
</g>
<rect x="721" y="268.8" width="8.5" height="32.1"/>
<rect x="733.4" y="268.8" width="8.5" height="32.1"/>
<rect x="746.5" y="268.8" width="8.5" height="32.1"/>
<rect x="758.8" y="268.8" width="8.5" height="32.1"/>
<rect x="771.2" y="268.8" width="8.5" height="32.1"/>
<rect x="787.8" y="268.8" width="8.5" height="32.1"/>
<rect x="800.5" y="268.8" width="8.5" height="32.1"/>
<rect x="813" y="268.8" width="8.5" height="32.1"/>
<rect x="825.6" y="268.8" width="8.5" height="32.1"/>
<rect x="840.1" y="268.8" width="8.5" height="32.1"/>
<rect x="372.8" y="557.2" transform="matrix(0.8192 -0.5736 0.5736 0.8192 -271.4512 329.1476)" width="26.8" height="75.8"/>
<circle class="st7" cx="463.3" cy="573.4" r="1.9"/>
<circle class="st7" cx="456.8" cy="582.8" r="1.9"/>
<circle class="st7" cx="450.3" cy="592.2" r="1.9"/>
<circle class="st7" cx="443.8" cy="601.6" r="1.9"/>
<circle class="st7" cx="437.3" cy="611" r="1.9"/>
<circle class="st7" cx="465.2" cy="580.9" r="1.9"/>
<circle class="st7" cx="458.7" cy="590.3" r="1.9"/>
<circle class="st7" cx="452.2" cy="599.7" r="1.9"/>
<circle class="st7" cx="445.7" cy="609.1" r="1.9"/>
<circle class="st7" cx="473.6" cy="579" r="1.9"/>
<circle class="st7" cx="467.1" cy="588.4" r="1.9"/>
<circle class="st7" cx="460.6" cy="597.8" r="1.9"/>
<circle class="st7" cx="454.1" cy="607.2" r="1.9"/>
<line class="st13" x1="388.6" y1="559.3" x2="399.6" y2="548.3"/>
<line class="st13" x1="399.6" y1="548.3" x2="410.6" y2="559.3"/>
<line class="st13" x1="410.7" y1="559.3" x2="421.7" y2="548.3"/>
<line class="st13" x1="421.7" y1="548.3" x2="432.7" y2="559.3"/>
<line class="st13" x1="432.1" y1="559.3" x2="443.1" y2="548.3"/>
<line class="st13" x1="443.1" y1="548.3" x2="454.1" y2="559.3"/>
</svg>
