<?xml version="1.0" encoding="utf-8"?>
<!-- Generator: Adobe Illustrator 23.0.3, SVG Export Plug-In . SVG Version: 6.00 Build 0)  -->
<svg version="1.1" id="Layer_1" xmlns="http://www.w3.org/2000/svg" xmlns:xlink="http://www.w3.org/1999/xlink" x="0px" y="0px"
	 viewBox="0 0 1261.7 743.5" style="enable-background:new 0 0 1261.7 743.5;" xml:space="preserve">
<style type="text/css">
	.st0{fill:none;stroke:#000000;stroke-width:8;stroke-miterlimit:10;}
	.st1{fill:none;}
	.st2{fill:none;stroke:#000000;stroke-width:0.75;stroke-miterlimit:10;}
	.st3{fill:none;stroke:#000000;stroke-width:7.4961;stroke-miterlimit:10;}
	.st4{fill:none;stroke:#000000;stroke-miterlimit:10;}
	.st5{fill:none;stroke:#000000;stroke-width:0.4882;stroke-miterlimit:10;}
	.st6{fill:none;stroke:#000000;stroke-width:0.6072;stroke-miterlimit:10;}
	.st7{fill:#D68B09;}
	.st8{fill:none;stroke:#000000;stroke-width:0.7796;stroke-miterlimit:10;}
	.st9{enable-background:new    ;}
	.st10{fill:none;stroke:#020203;stroke-width:4.4031;stroke-miterlimit:10;}
	.st11{fill:#020203;}
	.st12{fill:none;stroke:#020203;stroke-width:3.4149;stroke-miterlimit:10;}
	.st13{fill:none;stroke:#000000;stroke-width:4;stroke-miterlimit:10;}
</style>
<rect x="397.6" y="581.7" transform="matrix(0.5736 -0.8192 0.8192 0.5736 -301.775 610.5491)" width="75.8" height="26.8"/>
<line class="st0" x1="44.4" y1="115.4" x2="190.3" y2="115.4"/>
<line class="st1" x1="207.5" y1="-139.6" x2="378.7" y2="-139.6"/>
<line class="st0" x1="195.3" y1="115.4" x2="347.6" y2="115.4"/>
<line class="st1" x1="240.5" y1="-125.6" x2="397.8" y2="-126.9"/>
<line class="st0" x1="45.1" y1="101.5" x2="191" y2="101.5"/>
<line class="st1" x1="206.4" y1="691.6" x2="324.4" y2="692.8"/>
<line class="st0" x1="195" y1="101.5" x2="347.2" y2="101.5"/>
<line class="st2" x1="378.7" y1="59.6" x2="808.8" y2="59.6"/>
<line class="st2" x1="378.7" y1="65.5" x2="808.8" y2="65.5"/>
<line class="st2" x1="378.7" y1="71.6" x2="808.8" y2="71.6"/>
<line class="st2" x1="378.7" y1="74.6" x2="808.8" y2="74.6"/>
<line class="st2" x1="378.7" y1="83.7" x2="808.8" y2="83.7"/>
<line class="st2" x1="378.7" y1="87.1" x2="808.8" y2="87.1"/>
<line class="st2" x1="378.7" y1="94.7" x2="808.8" y2="94.7"/>
<line class="st2" x1="378.7" y1="98.5" x2="808.8" y2="98.5"/>
<line class="st2" x1="378.7" y1="101.5" x2="808.8" y2="101.5"/>
<line class="st2" x1="378.7" y1="104.5" x2="808.8" y2="104.5"/>
<line class="st2" x1="378.7" y1="110.4" x2="808.8" y2="110.4"/>
<line class="st2" x1="378.7" y1="119.3" x2="808.8" y2="119.3"/>
<line class="st3" x1="839.4" y1="111.3" x2="967.5" y2="111.3"/>
<line class="st3" x1="971.9" y1="111.3" x2="1105.6" y2="111.3"/>
<line class="st3" x1="840" y1="101.1" x2="968.1" y2="101.1"/>
<line class="st3" x1="971.6" y1="101.1" x2="1105.3" y2="101.1"/>
<rect x="1121.8" y="93.5" width="45.3" height="37.2"/>
<rect x="1148" y="126.9" width="19" height="58.8"/>
<rect x="1039.3" y="131.1" width="38.1" height="100.7"/>
<rect x="1039.3" y="197.5" width="100.7" height="34.3"/>
<rect x="1144.4" y="197.5" width="10.4" height="34.3"/>
<rect x="961.1" y="131.1" width="7.6" height="208.9"/>
<rect x="983.5" y="131.1" width="19.9" height="208.9"/>
<rect x="1016.9" y="131.1" width="9.7" height="208.9"/>
<rect x="1090.6" y="274" width="129" height="10.1"/>
<rect x="1090.3" y="297.6" width="129.4" height="10.1"/>
<rect x="1090.3" y="325.3" width="129.4" height="10.1"/>
<rect x="1090.6" y="348" width="129" height="10.1"/>
<rect x="1090.6" y="372.5" width="129" height="10.1"/>
<rect x="1090.6" y="397" width="129" height="10.1"/>
<rect x="1090.6" y="419.9" width="129" height="10.1"/>
<rect x="1090.6" y="446.9" width="129" height="10.1"/>
<rect x="1090.6" y="473.9" width="129" height="10.1"/>
<rect x="1090.6" y="496" width="129" height="10.1"/>
<rect x="1090.6" y="522.2" width="129" height="10.1"/>
<rect x="1090.6" y="545.4" width="129" height="10.1"/>
<rect x="1090.6" y="568.7" width="129" height="10.1"/>
<rect x="1090.6" y="592" width="129" height="10.1"/>
<rect x="1090.6" y="615.2" width="129" height="10.1"/>
<rect x="1019.5" y="537.5" width="63" height="194.1"/>
<rect x="1063" y="639.4" width="45.7" height="92.2"/>
<rect x="1101.5" y="667.3" width="125.2" height="64.3"/>
<rect x="477.8" y="187.1" width="58" height="58"/>
<rect x="533.9" y="153.5" width="70.7" height="52.7"/>
<rect x="603.6" y="136.4" width="69.8" height="32.4"/>
<rect x="675.4" y="145.9" width="136.1" height="13.3"/>
<rect x="680.9" y="168.7" width="135.2" height="14.6"/>
<rect x="609" y="194.1" width="133.4" height="12.1"/>
<rect x="538" y="223.3" width="206.5" height="8.2"/>
<rect x="538" y="253.7" width="206.5" height="7.6"/>
<rect x="44.4" y="131.1" width="50.2" height="48.7"/>
<rect x="76.2" y="183.3" width="48.8" height="27.9"/>
<rect x="107.9" y="220.1" width="50.1" height="30.4"/>
<rect x="132.9" y="167.7" width="92.3" height="37.4"/>
<rect x="170" y="134.5" width="130" height="34.3"/>
<rect x="76.2" y="206.2" width="24.4" height="67.2"/>
<rect x="107.9" y="245.2" width="25.1" height="65"/>
<rect x="69.5" y="273.4" width="11.1" height="36.8"/>
<rect x="88.4" y="277.7" width="12.2" height="32.5"/>
<rect x="69.5" y="315.3" width="66.3" height="52"/>
<rect x="158" y="305.1" width="150.3" height="5.1"/>
<rect x="303.3" y="134.5" width="91.3" height="34.3"/>
<rect x="339.4" y="167.7" width="128.8" height="37.4"/>
<circle class="st4" cx="197.5" cy="253.8" r="18.4"/>
<circle class="st4" cx="243.1" cy="253.8" r="18.4"/>
<circle class="st4" cx="284.8" cy="253.8" r="18.4"/>
<circle class="st4" cx="328.8" cy="253.8" r="18.4"/>
<circle class="st4" cx="199.3" cy="258.4" r="11"/>
<circle class="st4" cx="243.1" cy="256.2" r="11"/>
<circle class="st4" cx="284.8" cy="256.2" r="11"/>
<circle class="st4" cx="328.8" cy="256.2" r="11"/>
<rect x="400.3" y="132.2" width="8.5" height="32.1"/>
<rect x="412.7" y="132.2" width="8.5" height="32.1"/>
<rect x="425.8" y="132.2" width="8.5" height="32.1"/>
<rect x="438.1" y="132.2" width="8.5" height="32.1"/>
<rect x="452.5" y="132.2" width="8.5" height="32.1"/>
<rect x="467.1" y="132.2" width="8.5" height="32.1"/>
<rect x="479.8" y="132.2" width="8.5" height="32.1"/>
<rect x="492.3" y="132.2" width="8.5" height="32.1"/>
<rect x="504.9" y="132.2" width="8.5" height="32.1"/>
<rect x="519.4" y="132.2" width="8.5" height="32.1"/>
<circle class="st4" cx="88.4" cy="390.8" r="18.4"/>
<circle class="st4" cx="88.4" cy="436.4" r="18.4"/>
<circle class="st4" cx="88.4" cy="478.1" r="18.4"/>
<circle class="st4" cx="88.4" cy="522.1" r="18.4"/>
<circle class="st4" cx="83.7" cy="392.6" r="11"/>
<circle class="st4" cx="86" cy="436.4" r="11"/>
<circle class="st4" cx="85" cy="479.1" r="11"/>
<circle class="st4" cx="86" cy="522.1" r="11"/>
<rect x="55.2" y="544.6" width="75.2" height="57.1"/>
<rect x="55.2" y="607.7" width="58.4" height="52.7"/>
<rect x="136.9" y="597" width="174.4" height="15.1"/>
<rect x="124.5" y="630.1" width="151" height="7.9"/>
<rect x="59.7" y="673.7" width="74.2" height="6.3"/>
<line class="st5" x1="149.3" y1="537.4" x2="149.3" y2="355.2"/>
<line class="st5" x1="155.2" y1="537.4" x2="155.2" y2="355.2"/>
<line class="st5" x1="161.2" y1="536.8" x2="161.2" y2="354.5"/>
<line class="st5" x1="164.2" y1="536.8" x2="164.2" y2="354.5"/>
<line class="st5" x1="173.3" y1="536.8" x2="173.3" y2="354.5"/>
<line class="st5" x1="176.8" y1="536.8" x2="176.8" y2="354.5"/>
<line class="st5" x1="184.4" y1="536.8" x2="184.4" y2="354.5"/>
<line class="st5" x1="188.2" y1="536.8" x2="188.2" y2="354.5"/>
<line class="st5" x1="191.1" y1="537.4" x2="191.1" y2="355.2"/>
<line class="st5" x1="194.1" y1="536.1" x2="194.1" y2="353.8"/>
<line class="st5" x1="200" y1="536.8" x2="200" y2="354.5"/>
<line class="st5" x1="208.9" y1="536.1" x2="208.9" y2="353.8"/>
<line class="st6" x1="359.3" y1="272.9" x2="641.2" y2="272.9"/>
<line class="st6" x1="359.3" y1="278.8" x2="641.2" y2="278.8"/>
<line class="st6" x1="359.3" y1="284.9" x2="641.2" y2="284.9"/>
<line class="st6" x1="359.3" y1="287.9" x2="641.2" y2="287.9"/>
<line class="st6" x1="359.3" y1="296.9" x2="641.2" y2="296.9"/>
<line class="st6" x1="359.3" y1="300.4" x2="641.2" y2="300.4"/>
<line class="st6" x1="359.3" y1="308" x2="641.2" y2="308"/>
<line class="st6" x1="359.3" y1="311.8" x2="641.2" y2="311.8"/>
<line class="st6" x1="359.3" y1="314.8" x2="641.2" y2="314.8"/>
<line class="st6" x1="359.3" y1="317.7" x2="641.2" y2="317.7"/>
<line class="st6" x1="359.3" y1="323.6" x2="641.2" y2="323.6"/>
<line class="st6" x1="359.3" y1="332.5" x2="641.2" y2="332.5"/>
<rect x="1090.5" y="311.8" width="129.4" height="3.7"/>
<rect x="158" y="652.7" width="438" height="6.3"/>
<g>
	<circle cx="396" cy="297.6" r="51.3"/>
	<ellipse transform="matrix(0.4395 -0.8982 0.8982 0.4395 20.8488 513.2023)" cx="421.7" cy="239.9" rx="5.3" ry="23.3"/>
	<rect x="364.6" y="234.1" width="28.7" height="6.9"/>
	<circle class="st7" cx="396" cy="297.6" r="17"/>
</g>
<line class="st8" x1="616" y1="575.4" x2="919.5" y2="575.4"/>
<line class="st8" x1="616" y1="587" x2="919.5" y2="587"/>
<line class="st8" x1="616" y1="592.8" x2="919.5" y2="592.8"/>
<line class="st8" x1="616" y1="597.4" x2="919.5" y2="597.4"/>
<line class="st8" x1="616" y1="601.9" x2="919.5" y2="601.9"/>
<line class="st8" x1="616" y1="611" x2="919.5" y2="611"/>
<line class="st8" x1="616" y1="624.5" x2="919.5" y2="624.5"/>
<g class="st9">
	<path d="M58.5,424.4v-7.8h5.4v18.7l-13-8.7v7.5h-5.4v-18.4L58.5,424.4z"/>
	<path d="M34.1,406.2h13.2c-1.6-1.5-2.4-3.5-2.4-5.8c0-1.4,0.3-2.6,0.8-3.8c0.5-1.1,1.2-2.1,2.1-2.9s1.9-1.4,3.1-1.9
		s2.5-0.7,3.8-0.7c1.4,0,2.7,0.2,3.9,0.7c1.2,0.5,2.2,1.1,3.1,2c0.9,0.8,1.6,1.8,2.1,3c0.5,1.1,0.8,2.4,0.8,3.7
		c0,2.4-0.9,4.3-2.6,5.7h2.1v6.5h-30V406.2z M54.8,398c-0.6,0-1.1,0.1-1.6,0.3c-0.5,0.2-1,0.5-1.3,0.9c-0.4,0.4-0.7,0.8-0.9,1.3
		c-0.2,0.5-0.3,1.1-0.3,1.7s0.1,1.1,0.3,1.6c0.2,0.5,0.5,0.9,0.9,1.3s0.8,0.7,1.4,0.9c0.5,0.2,1.1,0.3,1.6,0.3s1.1-0.1,1.6-0.3
		c0.5-0.2,0.9-0.5,1.3-0.9s0.7-0.8,0.9-1.4c0.2-0.5,0.3-1.1,0.3-1.6c0-0.6-0.1-1.1-0.3-1.6s-0.5-0.9-0.9-1.3s-0.8-0.7-1.3-0.9
		S55.3,398,54.8,398z"/>
	<path d="M45.5,380.9h10.4c2.3,0,3.4-1.1,3.4-3.3c0-2.2-1.1-3.3-3.4-3.3H45.5v-6.5h11.6c2.5,0,4.4,0.8,5.6,2.5
		c1.2,1.6,1.9,4.1,1.9,7.4s-0.6,5.7-1.9,7.4c-1.2,1.6-3.1,2.5-5.6,2.5H45.5V380.9z"/>
	<path d="M45.5,363.4v-6.5h2.3c-1.1-0.9-1.8-1.8-2.2-2.7c-0.4-0.9-0.6-2-0.6-3.2c0-1.3,0.2-2.4,0.6-3.3s1-1.7,1.8-2.4
		c0.6-0.5,1.3-0.9,2.1-1.1c0.8-0.2,1.6-0.3,2.6-0.3h11.7v6.5h-9.3c-0.9,0-1.6,0.1-2.2,0.2s-1,0.4-1.3,0.7c-0.3,0.3-0.5,0.6-0.6,1
		s-0.2,0.7-0.2,1.2c0,1.1,0.3,2,1,2.5c0.7,0.6,1.6,0.9,2.8,0.9h9.9v6.5L45.5,363.4L45.5,363.4z"/>
	<path d="M50.9,332.2h13v6.5h-13v2.2h-5.4v-2.2H40v-6.5h5.5v-3.7h5.4V332.2z"/>
	<path d="M54.5,326.4c-1.4,0-2.6-0.3-3.8-0.8c-1.2-0.6-2.2-1.3-3.1-2.3s-1.6-2.2-2.1-3.5c-0.5-1.4-0.8-2.8-0.8-4.4s0.2-3.1,0.7-4.4
		c0.5-1.4,1.2-2.5,2.1-3.5s1.9-1.8,3.1-2.3c1.2-0.6,2.6-0.8,4-0.8s2.8,0.3,4,0.8s2.3,1.3,3.1,2.3c0.9,1,1.6,2.2,2,3.5
		c0.5,1.4,0.7,2.9,0.7,4.5s-0.2,3-0.7,4.4c-0.5,1.3-1.2,2.5-2.1,3.5s-2,1.7-3.2,2.3C57.4,326.1,56.1,326.4,54.5,326.4z M54.6,319.5
		c0.6,0,1.2-0.1,1.7-0.3c0.5-0.2,1-0.5,1.4-0.9s0.7-0.8,0.9-1.3s0.3-1.1,0.3-1.6c0-0.6-0.1-1.1-0.3-1.6s-0.5-1-0.9-1.3
		s-0.8-0.7-1.4-0.9c-0.5-0.2-1.1-0.3-1.7-0.3s-1.1,0.1-1.6,0.3c-0.5,0.2-1,0.5-1.4,0.9s-0.7,0.8-0.9,1.3s-0.3,1.1-0.3,1.6
		c0,0.6,0.1,1.1,0.3,1.6s0.5,1,0.9,1.3c0.4,0.4,0.8,0.7,1.3,0.9C53.5,319.4,54,319.5,54.6,319.5z"/>
	<path d="M45.5,296.4l9.7-4.4l-9.7-4.6v-4.1l10-4.6l-10-4.6v-7.2l18.5,9.6v4.4l-10.1,4.6l10.1,4.4v4.4l-18.5,9.5V296.4z"/>
	<path d="M45.5,251.2v-6.6H64v6.6h-2.1c1.8,1.4,2.6,3.3,2.6,5.7c0,1.3-0.2,2.6-0.7,3.7c-0.5,1.1-1.2,2.1-2.1,3
		c-0.9,0.8-1.9,1.5-3.1,2s-2.5,0.7-3.9,0.7c-1.3,0-2.6-0.2-3.8-0.7c-1.2-0.5-2.2-1.1-3.1-1.9s-1.6-1.8-2.1-2.9s-0.8-2.4-0.8-3.7
		c0-2.3,0.8-4.2,2.4-5.7h-1.8V251.2z M54.7,259.4c0.6,0,1.2-0.1,1.7-0.3c0.5-0.2,1-0.5,1.4-0.9s0.7-0.8,0.9-1.3s0.3-1.1,0.3-1.7
		c0-0.6-0.1-1.1-0.3-1.6s-0.5-1-0.9-1.3s-0.8-0.7-1.3-0.9s-1-0.3-1.6-0.3s-1.1,0.1-1.6,0.3s-1,0.5-1.4,0.9s-0.7,0.8-0.9,1.3
		c-0.2,0.5-0.3,1.1-0.3,1.6c0,0.6,0.1,1.2,0.3,1.7c0.2,0.5,0.5,1,0.9,1.3c0.4,0.4,0.8,0.7,1.3,0.9S54.1,259.4,54.7,259.4z"/>
	<path d="M45.5,240.2v-6.5h2.3c-1.1-0.9-1.8-1.8-2.2-2.7c-0.4-0.9-0.6-2-0.6-3.2c0-1.3,0.2-2.4,0.6-3.3c0.4-0.9,1-1.7,1.8-2.4
		c0.6-0.5,1.3-0.9,2.1-1.1c0.8-0.2,1.6-0.3,2.6-0.3h11.7v6.5h-9.3c-0.9,0-1.6,0.1-2.2,0.2c-0.6,0.1-1,0.4-1.3,0.7s-0.5,0.6-0.6,1
		s-0.2,0.7-0.2,1.2c0,1.1,0.3,2,1,2.5c0.7,0.6,1.6,0.9,2.8,0.9h9.9v6.5L45.5,240.2L45.5,240.2z"/>
	<path d="M45.5,202v-6.6H64v6.6h-2.1c1.8,1.4,2.6,3.3,2.6,5.7c0,1.3-0.2,2.6-0.7,3.7c-0.5,1.1-1.2,2.1-2.1,3c-0.9,0.8-1.9,1.5-3.1,2
		s-2.5,0.7-3.9,0.7c-1.3,0-2.6-0.2-3.8-0.7c-1.2-0.5-2.2-1.1-3.1-1.9c-0.9-0.8-1.6-1.8-2.1-2.9c-0.5-1.1-0.8-2.4-0.8-3.7
		c0-2.3,0.8-4.2,2.4-5.7h-1.8V202z M54.7,210.3c0.6,0,1.2-0.1,1.7-0.3s1-0.5,1.4-0.9s0.7-0.8,0.9-1.3s0.3-1.1,0.3-1.7
		c0-0.6-0.1-1.1-0.3-1.6s-0.5-1-0.9-1.3s-0.8-0.7-1.3-0.9s-1-0.3-1.6-0.3s-1.1,0.1-1.6,0.3s-1,0.5-1.4,0.9s-0.7,0.8-0.9,1.3
		c-0.2,0.5-0.3,1.1-0.3,1.6c0,0.6,0.1,1.2,0.3,1.7c0.2,0.5,0.5,1,0.9,1.3c0.4,0.4,0.8,0.7,1.3,0.9S54.1,210.3,54.7,210.3z"/>
</g>
<g class="st9">
	<path d="M138.3,578.5c0-1.4,0.3-2.6,0.8-3.8c0.6-1.2,1.3-2.2,2.3-3.1c1-0.9,2.2-1.6,3.5-2.1c1.4-0.5,2.8-0.8,4.4-0.8
		c1.6,0,3.1,0.2,4.4,0.7c1.4,0.5,2.5,1.2,3.5,2.1c1,0.9,1.8,1.9,2.3,3.1c0.6,1.2,0.8,2.6,0.8,4s-0.3,2.8-0.8,4s-1.3,2.3-2.3,3.1
		c-1,0.9-2.2,1.6-3.5,2c-1.4,0.5-2.9,0.7-4.5,0.7s-3-0.2-4.4-0.7c-1.3-0.5-2.5-1.2-3.5-2.1s-1.7-2-2.3-3.2
		C138.6,581.4,138.3,580,138.3,578.5z M145.2,578.6c0,0.6,0.1,1.2,0.3,1.7s0.5,1,0.9,1.4s0.8,0.7,1.3,0.9s1.1,0.3,1.6,0.3
		c0.6,0,1.1-0.1,1.6-0.3s1-0.5,1.3-0.9s0.7-0.8,0.9-1.4c0.2-0.5,0.3-1.1,0.3-1.7c0-0.6-0.1-1.1-0.3-1.6s-0.5-1-0.9-1.4
		s-0.8-0.7-1.3-0.9s-1.1-0.3-1.6-0.3c-0.6,0-1.1,0.1-1.6,0.3s-1,0.5-1.3,0.9c-0.4,0.4-0.7,0.8-0.9,1.3
		C145.3,577.5,145.2,578,145.2,578.6z"/>
	<path d="M164.2,569.5h6.5v3c0.7-1.1,1.5-1.9,2.6-2.5c1-0.6,2.2-0.9,3.5-0.9c0.2,0,0.4,0,0.6,0c0.2,0,0.4,0,0.7,0.1v6.2
		c-0.9-0.4-1.8-0.6-2.8-0.6c-1.5,0-2.6,0.5-3.4,1.3c-0.8,0.9-1.1,2.2-1.1,3.9v7.9h-6.5v-18.4H164.2z"/>
	<path d="M187.5,558v18.1l6.8-6.7h8.9l-9.3,8.5l9.8,9.9h-9.1l-7.2-7.5v7.5h-6.5V558H187.5z"/>
	<path d="M205.7,562.4c0-0.5,0.1-1,0.3-1.4s0.5-0.8,0.8-1.2c0.3-0.3,0.7-0.6,1.2-0.8c0.4-0.2,0.9-0.3,1.4-0.3s1,0.1,1.4,0.3
		s0.8,0.5,1.2,0.8c0.3,0.3,0.6,0.7,0.8,1.2c0.2,0.4,0.3,0.9,0.3,1.4s-0.1,1-0.3,1.4s-0.5,0.8-0.8,1.2c-0.3,0.3-0.7,0.6-1.2,0.8
		c-0.4,0.2-0.9,0.3-1.4,0.3s-1-0.1-1.4-0.3s-0.8-0.5-1.2-0.8c-0.3-0.3-0.6-0.7-0.8-1.2C205.8,563.3,205.7,562.9,205.7,562.4z
		 M212.6,569.5V588h-6.5v-18.5H212.6z"/>
	<path d="M223,579.8c0,2.8,1.3,4.2,4,4.2c1.4,0,2.5-0.6,3.2-1.7h6.3c-1.3,4.2-4.5,6.3-9.5,6.3c-1.6,0-3-0.2-4.3-0.7s-2.4-1.1-3.3-2
		c-0.9-0.9-1.6-1.9-2.1-3.1c-0.5-1.2-0.8-2.5-0.8-4s0.2-2.9,0.7-4.2c0.5-1.2,1.2-2.3,2.1-3.2c0.9-0.9,2-1.5,3.2-2
		c1.3-0.5,2.7-0.7,4.3-0.7s3,0.2,4.2,0.7s2.3,1.1,3.2,2s1.5,2,2,3.3s0.7,2.7,0.7,4.3v0.7H223L223,579.8L223,579.8z M230.6,576
		c-0.2-0.9-0.7-1.6-1.3-2.2c-0.7-0.6-1.5-0.8-2.4-0.8c-1,0-1.8,0.3-2.5,0.8c-0.6,0.5-1,1.3-1.2,2.2H230.6z"/>
	<path d="M252.6,574.2c-1.2-0.6-2.4-0.9-3.5-0.9c-0.6,0-1.1,0.1-1.5,0.4c-0.4,0.2-0.6,0.6-0.6,1c0,0.2,0,0.4,0.1,0.5
		s0.2,0.3,0.4,0.4c0.2,0.1,0.5,0.2,0.9,0.3s0.9,0.2,1.6,0.4c1.8,0.4,3.1,1,4,1.9s1.3,2.1,1.3,3.5c0,1.1-0.2,2.1-0.6,2.9
		c-0.4,0.9-1,1.6-1.8,2.2s-1.7,1-2.8,1.4s-2.3,0.5-3.6,0.5c-2.5,0-5-0.7-7.4-2.1l2.4-4.6c1.8,1.2,3.6,1.9,5.2,1.9
		c0.6,0,1.1-0.1,1.5-0.4c0.4-0.3,0.6-0.6,0.6-1c0-0.2,0-0.4-0.1-0.6c-0.1-0.2-0.2-0.3-0.4-0.4c-0.2-0.1-0.5-0.3-0.8-0.4
		c-0.4-0.1-0.9-0.2-1.5-0.3c-2-0.4-3.4-1-4.2-1.8c-0.8-0.8-1.2-1.9-1.2-3.3c0-1,0.2-2,0.6-2.8s0.9-1.5,1.7-2.1
		c0.7-0.6,1.6-1,2.6-1.3s2.2-0.5,3.4-0.5c2,0,4,0.4,5.9,1.2L252.6,574.2z"/>
	<path d="M266.5,574.9v13H260v-13h-2.2v-5.4h2.2V564h6.5v5.5h3.7v5.4H266.5z"/>
	<path d="M272.7,569.5h6.5v3c0.7-1.1,1.5-1.9,2.6-2.5c1-0.6,2.2-0.9,3.5-0.9c0.2,0,0.4,0,0.6,0s0.4,0,0.7,0.1v6.2
		c-0.9-0.4-1.8-0.6-2.8-0.6c-1.5,0-2.6,0.5-3.4,1.3c-0.8,0.9-1.1,2.2-1.1,3.9v7.9h-6.5v-18.4H272.7z"/>
	<path d="M303.9,569.5h6.6V588h-6.6v-2.1c-1.4,1.8-3.3,2.6-5.7,2.6c-1.3,0-2.6-0.2-3.7-0.7s-2.1-1.2-3-2.1c-0.8-0.9-1.5-1.9-2-3.1
		c-0.5-1.2-0.7-2.5-0.7-3.9c0-1.3,0.2-2.6,0.7-3.8s1.1-2.2,1.9-3.1c0.8-0.9,1.8-1.6,2.9-2.1s2.4-0.8,3.7-0.8c2.3,0,4.2,0.8,5.7,2.4
		v-1.8L303.9,569.5L303.9,569.5z M295.7,578.6c0,0.6,0.1,1.2,0.3,1.7c0.2,0.5,0.5,1,0.9,1.4s0.8,0.7,1.3,0.9s1.1,0.3,1.7,0.3
		s1.1-0.1,1.6-0.3s1-0.5,1.3-0.9s0.7-0.8,0.9-1.3s0.3-1,0.3-1.6s-0.1-1.1-0.3-1.6c-0.2-0.5-0.5-1-0.9-1.4s-0.8-0.7-1.3-0.9
		s-1.1-0.3-1.6-0.3c-0.6,0-1.2,0.1-1.7,0.3s-1,0.5-1.3,0.9c-0.4,0.4-0.7,0.8-0.9,1.3S295.7,578.1,295.7,578.6z"/>
</g>
<g class="st9">
	<path d="M613.1,675.2h-6.5v-27.7h6.5v2.1c1.4-1.8,3.3-2.6,5.7-2.6c1.3,0,2.6,0.3,3.7,0.8c1.1,0.5,2.1,1.2,3,2.1
		c0.8,0.9,1.5,1.9,2,3.1c0.5,1.2,0.7,2.5,0.7,3.9s-0.2,2.6-0.7,3.8s-1.1,2.2-1.9,3.1s-1.8,1.6-2.9,2.1s-2.4,0.8-3.7,0.8
		c-2.3,0-4.2-0.8-5.8-2.4L613.1,675.2L613.1,675.2z M621.3,657c0-0.6-0.1-1.1-0.3-1.6s-0.5-1-0.9-1.3c-0.4-0.4-0.8-0.7-1.4-0.9
		c-0.5-0.2-1.1-0.3-1.7-0.3c-0.6,0-1.1,0.1-1.6,0.3s-0.9,0.5-1.3,0.9c-0.4,0.4-0.7,0.8-0.9,1.4c-0.2,0.5-0.3,1.1-0.3,1.6
		s0.1,1.1,0.3,1.6s0.5,0.9,0.9,1.3c0.4,0.4,0.8,0.7,1.4,0.9c0.5,0.2,1.1,0.3,1.6,0.3c0.6,0,1.1-0.1,1.6-0.3s0.9-0.5,1.3-0.9
		c0.4-0.4,0.7-0.8,0.9-1.3C621.2,658,621.3,657.5,621.3,657z"/>
	<path d="M631.1,656.7c0-1.4,0.3-2.6,0.8-3.8c0.6-1.2,1.3-2.2,2.3-3.1c1-0.9,2.2-1.6,3.5-2.1c1.4-0.5,2.8-0.8,4.4-0.8
		c1.6,0,3.1,0.2,4.4,0.7c1.4,0.5,2.5,1.2,3.5,2.1c1,0.9,1.8,1.9,2.3,3.1c0.6,1.2,0.8,2.6,0.8,4s-0.3,2.8-0.8,4
		c-0.6,1.2-1.3,2.3-2.3,3.1c-1,0.9-2.2,1.6-3.5,2c-1.4,0.5-2.9,0.7-4.5,0.7s-3-0.2-4.4-0.7c-1.3-0.5-2.5-1.2-3.5-2.1
		c-1-0.9-1.7-2-2.3-3.2C631.4,659.5,631.1,658.2,631.1,656.7z M638,656.8c0,0.6,0.1,1.2,0.3,1.7s0.5,1,0.9,1.4s0.8,0.7,1.3,0.9
		s1.1,0.3,1.6,0.3c0.6,0,1.1-0.1,1.6-0.3s1-0.5,1.3-0.9s0.7-0.8,0.9-1.4c0.2-0.5,0.3-1.1,0.3-1.7c0-0.6-0.1-1.1-0.3-1.6
		s-0.5-1-0.9-1.4s-0.8-0.7-1.3-0.9s-1.1-0.3-1.6-0.3c-0.6,0-1.1,0.1-1.6,0.3s-1,0.5-1.3,0.9c-0.4,0.4-0.7,0.8-0.9,1.3
		C638.1,655.7,638,656.2,638,656.8z"/>
	<path d="M671.3,636.2h6.6v29.9h-6.6V664c-1.4,1.8-3.3,2.6-5.7,2.6c-1.3,0-2.6-0.3-3.7-0.8c-1.1-0.5-2.1-1.2-3-2.1s-1.5-1.9-2-3.1
		c-0.5-1.2-0.7-2.5-0.7-3.9c0-1.3,0.2-2.6,0.7-3.8c0.4-1.2,1.1-2.2,1.9-3.1c0.8-0.9,1.8-1.6,2.9-2.1s2.4-0.8,3.8-0.8
		c2.3,0,4.2,0.8,5.7,2.4L671.3,636.2L671.3,636.2z M663.1,656.8c0,0.6,0.1,1.2,0.3,1.7s0.5,1,0.9,1.4s0.8,0.7,1.3,0.9
		s1.1,0.3,1.7,0.3s1.1-0.1,1.6-0.3s1-0.5,1.3-0.9s0.7-0.8,0.9-1.3s0.3-1,0.3-1.6s-0.1-1.1-0.3-1.6s-0.5-1-0.9-1.4s-0.8-0.7-1.3-0.9
		s-1.1-0.3-1.6-0.3s-1.1,0.1-1.6,0.3s-1,0.5-1.3,0.9c-0.4,0.4-0.7,0.8-0.9,1.3C663.2,655.7,663.1,656.2,663.1,656.8z"/>
	<path d="M687.7,647.7l4.4,9.7l4.6-9.7h4.1l4.6,10l4.6-10h7.2l-9.6,18.5h-4.4l-4.6-10.1l-4.4,10.1h-4.4l-9.5-18.5H687.7z"/>
	<path d="M718.8,656.7c0-1.4,0.3-2.6,0.8-3.8c0.6-1.2,1.3-2.2,2.3-3.1c1-0.9,2.2-1.6,3.5-2.1c1.4-0.5,2.8-0.8,4.4-0.8
		s3.1,0.2,4.4,0.7c1.4,0.5,2.5,1.2,3.5,2.1c1,0.9,1.8,1.9,2.3,3.1c0.6,1.2,0.8,2.6,0.8,4s-0.3,2.8-0.8,4c-0.6,1.2-1.3,2.3-2.3,3.1
		c-1,0.9-2.2,1.6-3.5,2c-1.4,0.5-2.9,0.7-4.5,0.7s-3-0.2-4.4-0.7c-1.3-0.5-2.5-1.2-3.5-2.1c-1-0.9-1.7-2-2.3-3.2
		C719.1,659.5,718.8,658.2,718.8,656.7z M725.7,656.8c0,0.6,0.1,1.2,0.3,1.7s0.5,1,0.9,1.4s0.8,0.7,1.3,0.9s1.1,0.3,1.6,0.3
		c0.6,0,1.1-0.1,1.6-0.3s1-0.5,1.3-0.9s0.7-0.8,0.9-1.4c0.2-0.5,0.3-1.1,0.3-1.7c0-0.6-0.1-1.1-0.3-1.6s-0.5-1-0.9-1.4
		s-0.8-0.7-1.3-0.9s-1.1-0.3-1.6-0.3c-0.6,0-1.1,0.1-1.6,0.3s-1,0.5-1.3,0.9c-0.4,0.4-0.7,0.8-0.9,1.3
		C725.8,655.7,725.7,656.2,725.7,656.8z M735.9,639.4l-6.3,5.5l-3-2.2l5.1-6.3L735.9,639.4z"/>
	<path d="M744.7,647.7h6.5v3c0.7-1.1,1.5-1.9,2.6-2.5c1-0.6,2.2-0.9,3.5-0.9c0.2,0,0.4,0,0.6,0s0.4,0,0.7,0.1v6.2
		c-0.9-0.4-1.8-0.6-2.8-0.6c-1.5,0-2.6,0.5-3.4,1.3c-0.8,0.9-1.1,2.2-1.1,3.9v7.9h-6.5L744.7,647.7L744.7,647.7z"/>
	<path d="M768,636.2v18.1l6.8-6.7h8.9l-9.3,8.5l9.8,9.9h-9.1l-7.2-7.5v7.5h-6.5v-29.9h6.6L768,636.2L768,636.2z"/>
	<path d="M784.7,656.7c0-1.4,0.3-2.6,0.8-3.8c0.6-1.2,1.3-2.2,2.3-3.1c1-0.9,2.2-1.6,3.5-2.1c1.4-0.5,2.8-0.8,4.4-0.8
		s3.1,0.2,4.4,0.7c1.4,0.5,2.5,1.2,3.5,2.1c1,0.9,1.8,1.9,2.3,3.1c0.6,1.2,0.8,2.6,0.8,4s-0.3,2.8-0.8,4c-0.6,1.2-1.3,2.3-2.3,3.1
		c-1,0.9-2.2,1.6-3.5,2s-2.9,0.7-4.5,0.7s-3-0.2-4.4-0.7s-2.5-1.2-3.5-2.1c-1-0.9-1.7-2-2.3-3.2C785,659.5,784.7,658.2,784.7,656.7z
		 M791.6,656.8c0,0.6,0.1,1.2,0.3,1.7s0.5,1,0.9,1.4s0.8,0.7,1.3,0.9s1.1,0.3,1.6,0.3s1.1-0.1,1.6-0.3s1-0.5,1.3-0.9
		s0.7-0.8,0.9-1.4c0.2-0.5,0.3-1.1,0.3-1.7c0-0.6-0.1-1.1-0.3-1.6s-0.5-1-0.9-1.4s-0.8-0.7-1.3-0.9s-1.1-0.3-1.6-0.3
		s-1.1,0.1-1.6,0.3s-1,0.5-1.3,0.9c-0.4,0.4-0.7,0.8-0.9,1.3C791.7,655.5,791.6,656.2,791.6,656.8z"/>
	<path d="M814.7,647.7l4.4,9.7l4.6-9.7h4.1l4.6,10l4.6-10h7.2l-9.6,18.5h-4.4l-4.6-10.1l-4.4,10.1h-4.4l-9.5-18.5H814.7z"/>
	<path d="M859.9,647.7h6.6v18.5h-6.6v-2.1c-1.4,1.8-3.3,2.6-5.7,2.6c-1.3,0-2.6-0.2-3.7-0.7c-1.1-0.5-2.1-1.2-3-2.1
		c-0.8-0.9-1.5-1.9-2-3.1c-0.5-1.2-0.7-2.5-0.7-3.9c0-1.3,0.2-2.6,0.7-3.8s1.1-2.2,1.9-3.1c0.8-0.9,1.8-1.6,2.9-2.1s2.4-0.8,3.7-0.8
		c2.3,0,4.2,0.8,5.7,2.4v-1.8L859.9,647.7L859.9,647.7z M851.7,656.8c0,0.6,0.1,1.2,0.3,1.7s0.5,1,0.9,1.4s0.8,0.7,1.3,0.9
		s1.1,0.3,1.7,0.3c0.6,0,1.1-0.1,1.6-0.3s1-0.5,1.3-0.9s0.7-0.8,0.9-1.3s0.3-1,0.3-1.6s-0.1-1.1-0.3-1.6s-0.5-1-0.9-1.4
		s-0.8-0.7-1.3-0.9s-1.1-0.3-1.6-0.3c-0.6,0-1.2,0.1-1.7,0.3s-1,0.5-1.3,0.9c-0.4,0.4-0.7,0.8-0.9,1.3
		C851.8,655.8,851.7,656.2,851.7,656.8z"/>
</g>
<circle class="st4" cx="1063" cy="422.9" r="18.4"/>
<circle class="st4" cx="1063" cy="377.3" r="18.4"/>
<circle class="st4" cx="1063" cy="335.6" r="18.4"/>
<circle class="st4" cx="1063" cy="291.6" r="18.4"/>
<circle class="st4" cx="1067.6" cy="421.1" r="11"/>
<circle class="st4" cx="1065.4" cy="377.3" r="11"/>
<circle class="st4" cx="1065.4" cy="335.6" r="11"/>
<circle class="st4" cx="1065.4" cy="291.6" r="11"/>
<rect x="507.1" y="563.2" width="89.2" height="77.8"/>
<g>
	<circle cx="873.9" cy="185.9" r="53.4"/>
	<circle class="st7" cx="873.9" cy="185.9" r="23.8"/>
	<circle class="st10" cx="915.8" cy="293.7" r="36.9"/>
	<path class="st11" d="M887.8,317.2c-11.4-5.9-14.6-26.1-16.3-41.1c-1.2-10.4-1.5-21.1,2-30.9c14.1-0.5,28-6,39.7-14
		c-13.1,19.7-20.6,43.2-21.1,66.9c-0.2,10.2,1.5,21.9,10,27.7"/>
</g>
<g>
	<g>
		<circle cx="153.9" cy="479.1" r="31.2"/>
		<rect x="104.3" y="416.2" transform="matrix(0.2454 -0.9694 0.9694 0.2454 -281.9775 481.1464)" width="127.5" height="11.1"/>
		<polygon points="195.3,360.4 172.8,354.7 185.5,326.2 198.4,329.5 		"/>
		<ellipse cx="202.8" cy="335" rx="2.9" ry="2.9"/>
		<ellipse cx="202" cy="345.2" rx="2.9" ry="2.9"/>
		<ellipse cx="201.2" cy="355.9" rx="2.9" ry="2.9"/>
		<ellipse cx="178.8" cy="328.6" rx="2.9" ry="2.9"/>
		<ellipse cx="174.7" cy="337.9" rx="2.9" ry="2.9"/>
		<ellipse cx="170.4" cy="347.8" rx="2.9" ry="2.9"/>
	</g>
	<circle class="st7" cx="153.9" cy="479.1" r="25"/>
</g>
<rect x="699.1" y="268.8" width="8.5" height="32.1"/>
<rect x="714.5" y="268.8" width="8.5" height="32.1"/>
<rect x="727.6" y="268.8" width="8.5" height="32.1"/>
<rect x="739.9" y="268.8" width="8.5" height="32.1"/>
<rect x="754.3" y="268.8" width="8.5" height="32.1"/>
<rect x="768.9" y="268.8" width="8.5" height="32.1"/>
<rect x="781.6" y="268.8" width="8.5" height="32.1"/>
<rect x="794.1" y="268.8" width="8.5" height="32.1"/>
<rect x="806.7" y="268.8" width="8.5" height="32.1"/>
<rect x="823.2" y="268.8" width="8.5" height="32.1"/>
<rect x="354" y="557.2" transform="matrix(0.8192 -0.5736 0.5736 0.8192 -274.9128 318.3516)" width="26.8" height="75.8"/>
<circle class="st7" cx="444.4" cy="573.4" r="1.9"/>
<circle class="st7" cx="437.9" cy="582.8" r="1.9"/>
<circle class="st7" cx="431.4" cy="592.2" r="1.9"/>
<circle class="st7" cx="424.9" cy="601.6" r="1.9"/>
<circle class="st7" cx="418.4" cy="611" r="1.9"/>
<circle class="st7" cx="446.3" cy="580.9" r="1.9"/>
<circle class="st7" cx="439.8" cy="590.3" r="1.9"/>
<circle class="st7" cx="433.3" cy="599.7" r="1.9"/>
<circle class="st7" cx="426.8" cy="609.1" r="1.9"/>
<circle class="st7" cx="454.7" cy="579" r="1.9"/>
<circle class="st7" cx="448.2" cy="588.4" r="1.9"/>
<circle class="st7" cx="441.7" cy="597.8" r="1.9"/>
<circle class="st7" cx="435.2" cy="607.2" r="1.9"/>
<path class="st12" d="M445.1,548.3"/>
<polyline class="st12" points="368.7,564.3 379.7,553.3 379.7,553.3 390.7,564.3 390.8,564.3 401.8,553.3 401.8,553.3 411.8,564.3 
	412,564.3 423,553.3 423,553.3 434,564.3 "/>
<circle class="st7" cx="427.6" cy="617.7" r="1.9"/>
<rect x="246.7" y="-171.8" width="36.5" height="68.8"/>
<rect x="235.7" y="-225.8" width="67.6" height="34.4"/>
<rect x="246.7" y="-171.8" width="68.2" height="33.5"/>
<rect x="332.4" y="-239.3" width="50.2" height="64.2"/>
<rect x="321.4" y="-171.8" width="29.4" height="68.8"/>
<rect x="386.6" y="-239.3" width="71.1" height="57.7"/>
<rect x="424.6" y="-237.9" width="35.5" height="130.4"/>
<rect x="517" y="-251.8" width="66.1" height="57.4"/>
<rect x="517" y="-229.5" width="33.1" height="100.1"/>
<rect x="487.7" y="-251.8" width="23" height="95.1"/>
<rect x="464.6" y="-194.4" width="46.1" height="37.7"/>
<rect x="711.2" y="-179.4" width="55.2" height="130.9"/>
<rect x="711.2" y="-77" width="79.3" height="28.5"/>
<rect x="776.7" y="-229.5" width="12.7" height="140.1"/>
<rect x="797.7" y="-244.2" width="61.4" height="181.5"/>
<rect x="812.4" y="-107.9" width="163.1" height="45.1"/>
<rect x="843.9" y="-151.8" width="33.6" height="57.2"/>
<rect x="671.9" y="-269.5" width="25.9" height="116"/>
<rect x="882.5" y="-253.1" width="41" height="23.6"/>
<rect x="912.3" y="-155.6" width="41.4" height="28.8"/>
<rect x="905.2" y="-211.3" width="45.5" height="45.5"/>
<rect x="930.4" y="-243.9" width="20.3" height="64.5"/>
<rect x="882.5" y="-183" width="20.5" height="46.9"/>
<rect x="970.6" y="-246.3" width="44.5" height="30.7"/>
<rect x="992.8" y="-230.9" width="22" height="68.1"/>
<rect x="970.6" y="-207" width="29.5" height="93.1"/>
<rect x="983.9" y="-156.5" width="33.1" height="42.6"/>
<circle class="st4" cx="725.2" cy="328.1" r="18.4"/>
<circle class="st4" cx="769.2" cy="328.1" r="18.4"/>
<circle class="st4" cx="725.2" cy="330.5" r="11"/>
<circle class="st4" cx="769.2" cy="330.5" r="11"/>
<ellipse transform="matrix(0.7071 -0.7071 0.7071 0.7071 12.2174 678.684)" class="st4" cx="825.4" cy="324.6" rx="18.4" ry="18.4"/>
<circle class="st4" cx="823.7" cy="322.9" r="11"/>
<circle class="st13" cx="172.5" cy="681.3" r="7.6"/>
<circle class="st13" cx="194" cy="681.3" r="7.6"/>
<circle class="st13" cx="216" cy="681.3" r="7.6"/>
<circle class="st13" cx="172.3" cy="702.5" r="7.6"/>
<circle class="st13" cx="193.8" cy="702.5" r="7.6"/>
<circle class="st13" cx="215.8" cy="702.5" r="7.6"/>
<circle class="st13" cx="558.4" cy="-103.1" r="7.6"/>
<circle class="st13" cx="579.9" cy="-103.1" r="7.6"/>
<circle class="st13" cx="601.9" cy="-103.1" r="7.6"/>
<circle class="st13" cx="558.1" cy="-82" r="7.6"/>
<circle class="st13" cx="579.6" cy="-82" r="7.6"/>
<circle class="st13" cx="601.6" cy="-82" r="7.6"/>
<circle class="st13" cx="557.9" cy="-60.9" r="7.6"/>
<circle class="st13" cx="579.4" cy="-60.9" r="7.6"/>
<circle class="st13" cx="601.4" cy="-60.9" r="7.6"/>
<ellipse transform="matrix(0.4473 -0.8944 0.8944 0.4473 365.0209 384.4944)" class="st13" cx="493.6" cy="-103.1" rx="7.6" ry="7.6"/>
<circle class="st13" cx="515.1" cy="-103.1" r="7.6"/>
<circle class="st13" cx="537.1" cy="-103.1" r="7.6"/>
<ellipse transform="matrix(0.5847 -0.8112 0.8112 0.5847 271.3567 366.1991)" class="st13" cx="493.4" cy="-81.9" rx="7.6" ry="7.6"/>
<circle class="st13" cx="514.9" cy="-82" r="7.6"/>
<circle class="st13" cx="536.9" cy="-82" r="7.6"/>
<ellipse transform="matrix(0.4473 -0.8944 0.8944 0.4473 326.998 407.3719)" class="st13" cx="493.1" cy="-60.9" rx="7.6" ry="7.6"/>
<circle class="st13" cx="514.6" cy="-60.9" r="7.6"/>
<circle class="st13" cx="536.6" cy="-60.9" r="7.6"/>
<circle class="st13" cx="947.2" cy="567.5" r="7.6"/>
<circle class="st13" cx="968.7" cy="567.5" r="7.6"/>
<circle class="st13" cx="990.7" cy="567.5" r="7.6"/>
<circle class="st13" cx="946.9" cy="588.6" r="7.6"/>
<circle class="st13" cx="968.4" cy="588.6" r="7.6"/>
<circle class="st13" cx="990.5" cy="588.6" r="7.6"/>
<circle class="st13" cx="946.7" cy="609.7" r="7.6"/>
<circle class="st13" cx="968.2" cy="609.7" r="7.6"/>
<circle class="st13" cx="990.2" cy="609.7" r="7.6"/>
<ellipse class="st4" cx="396.9" cy="-151.8" rx="18.4" ry="18.4"/>
<circle class="st4" cx="395.2" cy="-153.5" r="11"/>
<ellipse class="st4" cx="656.9" cy="-78.4" rx="18.4" ry="18.4"/>
<circle class="st4" cx="655.1" cy="-80.1" r="11"/>
<circle class="st13" cx="405.4" cy="-87.6" r="7.6"/>
<circle class="st13" cx="426.9" cy="-87.6" r="7.6"/>
<circle class="st13" cx="448.9" cy="-87.6" r="7.6"/>
<circle class="st13" cx="405.1" cy="-66.4" r="7.6"/>
<circle class="st13" cx="426.6" cy="-66.4" r="7.6"/>
<circle class="st13" cx="448.6" cy="-66.4" r="7.6"/>
<rect x="939.4" y="635.8" width="56.2" height="10.1"/>
<rect x="939.4" y="660.3" width="56.2" height="10.1"/>
<rect x="939.4" y="684.8" width="56.2" height="10.1"/>
<rect x="939.4" y="707.8" width="56.2" height="10.1"/>
<g>
	<path class="st7" d="M391.9,394.7v115.4h-52.6v-39h-34v39h-52.6V394.7h52.6V432h34v-37.3H391.9z"/>
	<path class="st7" d="M481.4,499.9h-42.8l-5.9,10.2H392l75.5-129l75.5,129h-56L481.4,499.9z M469.3,477.8l-8.7-15.6l-9.2,15.6H469.3
		z"/>
	<path class="st7" d="M543,389.6l83.2,44.1v-39h47.5v120.9l-83.2-44.1v39H543V389.6z M653.5,357.3l-40.7,27.2h-5.9v-27.2H653.5z"/>
	<path class="st7" d="M792.2,451.4c7.1,2.6,12.6,6.1,16.6,10.5c3.9,4.4,5.9,10,5.9,16.8c0,6.6-1.5,11.9-4.6,16s-7.4,7.2-13.1,9.5
		c-5.7,2.3-12.5,3.8-20.4,4.7c-7.9,0.8-16.8,1.3-26.5,1.3h-66.2V394.7h64.5c8.8,0,17,0.5,24.4,1.5c7.5,1,13.9,2.8,19.4,5.3
		c5.4,2.5,9.7,5.9,12.7,10.1c3.1,4.2,4.6,9.6,4.6,16.2c0,6-1.5,10.9-4.6,14.6S797.6,449.1,792.2,451.4z M736.5,440.5h10.2
		c5.1,0,8.5-0.8,10.2-2.4s2.5-3.3,2.5-5.3c0-1.9-0.8-3.7-2.5-5.3c-1.7-1.6-5.1-2.4-10.2-2.4h-10.2V440.5z M748.4,479.5
		c5.1,0,8.5-0.8,10.2-2.4s2.5-3.3,2.5-5.3c0-1.9-0.8-3.7-2.5-5.3c-1.7-1.6-5.1-2.4-10.2-2.4h-11.9v15.3L748.4,479.5L748.4,479.5z"/>
	<path class="st7" d="M893.9,499.9h-42.8l-5.9,10.2h-40.7l75.5-129l75.5,129h-56L893.9,499.9z M881.8,477.8l-8.7-15.6l-9.2,15.6
		H881.8z"/>
	<path class="st7" d="M1008.2,394.7l-17,67.9h-18.7l-17-67.9H1008.2z M981.8,511.6c-2.8,0-5.5-0.5-7.9-1.6s-4.6-2.5-6.4-4.3
		c-1.8-1.8-3.2-3.9-4.2-6.4c-1-2.4-1.5-5-1.5-7.7s0.5-5.3,1.5-7.7c1-2.4,2.4-4.6,4.2-6.4s3.9-3.3,6.4-4.3c2.4-1.1,5.1-1.6,7.9-1.6
		c2.7,0,5.3,0.5,7.7,1.6s4.6,2.5,6.4,4.3c1.8,1.8,3.2,3.9,4.2,6.4c1,2.4,1.5,5,1.5,7.7s-0.5,5.3-1.5,7.7c-1,2.4-2.4,4.6-4.2,6.4
		s-3.9,3.3-6.4,4.3C987.1,511.1,984.6,511.6,981.8,511.6z"/>
</g>
<circle class="st13" cx="364.5" cy="682.2" r="7.6"/>
<circle class="st13" cx="386" cy="682.2" r="7.6"/>
<circle class="st13" cx="408" cy="682.2" r="7.6"/>
<circle class="st13" cx="364.2" cy="703.4" r="7.6"/>
<circle class="st13" cx="385.7" cy="703.4" r="7.6"/>
<circle class="st13" cx="407.7" cy="703.4" r="7.6"/>
<ellipse transform="matrix(0.1602 -0.9871 0.9871 0.1602 -421.8182 868.8105)" class="st13" cx="299.7" cy="682.3" rx="7.6" ry="7.6"/>
<circle class="st13" cx="321.2" cy="682.2" r="7.6"/>
<circle class="st13" cx="343.2" cy="682.2" r="7.6"/>
<circle class="st13" cx="299.4" cy="703.4" r="7.6"/>
<circle class="st13" cx="321" cy="703.4" r="7.6"/>
<circle class="st13" cx="343" cy="703.4" r="7.6"/>
</svg>
