<?xml version="1.0" encoding="utf-8"?>
<!-- Generator: Adobe Illustrator 23.0.3, SVG Export Plug-In . SVG Version: 6.00 Build 0)  -->
<svg version="1.1" id="Layer_1" xmlns="http://www.w3.org/2000/svg" xmlns:xlink="http://www.w3.org/1999/xlink" x="0px" y="0px"
	 viewBox="0 0 1261.7 751.6" style="enable-background:new 0 0 1261.7 751.6;" xml:space="preserve">
<style type="text/css">
	.st0{fill:none;stroke:#000000;stroke-width:8;stroke-miterlimit:10;}
	.st1{fill:none;stroke:#000000;stroke-width:0.75;stroke-miterlimit:10;}
	.st2{fill:none;stroke:#000000;stroke-width:7.4961;stroke-miterlimit:10;}
	.st3{fill:none;stroke:#000000;stroke-miterlimit:10;}
	.st4{fill:none;stroke:#000000;stroke-width:0.4882;stroke-miterlimit:10;}
	.st5{fill:none;stroke:#000000;stroke-width:0.6072;stroke-miterlimit:10;}
	.st6{fill:#D68B09;}
	.st7{fill:none;stroke:#000000;stroke-width:0.7796;stroke-miterlimit:10;}
	.st8{enable-background:new    ;}
	.st9{fill:none;stroke:#020203;stroke-width:4.4031;stroke-miterlimit:10;}
	.st10{fill:#020203;}
	.st11{fill:none;stroke:#020203;stroke-width:3.4149;stroke-miterlimit:10;}
	.st12{fill:none;stroke:#000000;stroke-width:4;stroke-miterlimit:10;}
</style>
<rect x="410.6" y="589.8" transform="matrix(0.5736 -0.8192 0.8192 0.5736 -302.884 624.6426)" width="75.8" height="26.8"/>
<line class="st0" x1="44.4" y1="123.5" x2="190.3" y2="123.5"/>
<line class="st0" x1="195.3" y1="123.5" x2="347.6" y2="123.5"/>
<line class="st0" x1="45.1" y1="109.6" x2="191" y2="109.6"/>
<line class="st0" x1="195" y1="109.6" x2="347.2" y2="109.6"/>
<line class="st1" x1="378.7" y1="67.7" x2="808.8" y2="67.7"/>
<line class="st1" x1="378.7" y1="73.6" x2="808.8" y2="73.6"/>
<line class="st1" x1="378.7" y1="79.7" x2="808.8" y2="79.7"/>
<line class="st1" x1="378.7" y1="82.7" x2="808.8" y2="82.7"/>
<line class="st1" x1="378.7" y1="91.8" x2="808.8" y2="91.8"/>
<line class="st1" x1="378.7" y1="95.2" x2="808.8" y2="95.2"/>
<line class="st1" x1="378.7" y1="102.8" x2="808.8" y2="102.8"/>
<line class="st1" x1="378.7" y1="106.6" x2="808.8" y2="106.6"/>
<line class="st1" x1="378.7" y1="109.6" x2="808.8" y2="109.6"/>
<line class="st1" x1="378.7" y1="112.6" x2="808.8" y2="112.6"/>
<line class="st1" x1="378.7" y1="118.5" x2="808.8" y2="118.5"/>
<line class="st1" x1="378.7" y1="127.4" x2="808.8" y2="127.4"/>
<line class="st2" x1="839.4" y1="119.4" x2="967.5" y2="119.4"/>
<line class="st2" x1="971.9" y1="119.4" x2="1105.6" y2="119.4"/>
<line class="st2" x1="840" y1="109.2" x2="968.1" y2="109.2"/>
<line class="st2" x1="971.6" y1="109.2" x2="1105.3" y2="109.2"/>
<rect x="1121.8" y="101.6" width="45.3" height="37.2"/>
<rect x="1148" y="135" width="19" height="58.8"/>
<rect x="1039.3" y="139.2" width="38.1" height="100.7"/>
<rect x="1039.3" y="205.6" width="100.7" height="34.3"/>
<rect x="1144.4" y="205.6" width="10.4" height="34.3"/>
<rect x="961.1" y="139.2" width="7.6" height="208.9"/>
<rect x="983.5" y="139.2" width="19.9" height="208.9"/>
<rect x="1016.9" y="139.2" width="9.7" height="208.9"/>
<rect x="1090.6" y="282.1" width="129" height="10.1"/>
<rect x="1090.3" y="305.7" width="129.4" height="10.1"/>
<rect x="1090.3" y="333.4" width="129.4" height="10.1"/>
<rect x="1090.6" y="356.1" width="129" height="10.1"/>
<rect x="1090.6" y="380.6" width="129" height="10.1"/>
<rect x="1090.6" y="405.1" width="129" height="10.1"/>
<rect x="1090.6" y="428" width="129" height="10.1"/>
<rect x="1090.6" y="455" width="129" height="10.1"/>
<rect x="1090.6" y="482" width="129" height="10.1"/>
<rect x="1090.6" y="504.1" width="129" height="10.1"/>
<rect x="1090.6" y="530.3" width="129" height="10.1"/>
<rect x="1090.6" y="553.5" width="129" height="10.1"/>
<rect x="1090.6" y="576.8" width="129" height="10.1"/>
<rect x="1090.6" y="600.1" width="129" height="10.1"/>
<polygon points="1226.7,639.3 1108.7,639.3 1108.7,617.6 1082.5,617.6 1082.5,538.5 1019.5,538.5 1019.5,689.2 1063,689.2 
	1063,689.2 1108.7,689.2 1108.7,689.2 1226.7,689.2 "/>
<rect x="477.8" y="195.2" width="58" height="58"/>
<rect x="533.9" y="161.6" width="70.7" height="52.7"/>
<rect x="603.6" y="144.5" width="69.8" height="32.4"/>
<rect x="675.4" y="154" width="136.1" height="13.3"/>
<rect x="659.9" y="176.8" width="135.2" height="14.6"/>
<rect x="156.1" y="580.5" width="172.7" height="7.7"/>
<rect x="538" y="261.8" width="206.5" height="7.6"/>
<rect x="44.4" y="139.2" width="50.2" height="48.7"/>
<rect x="76.2" y="191.4" width="48.8" height="27.9"/>
<rect x="112.9" y="228.2" width="50.1" height="30.4"/>
<rect x="132.9" y="175.8" width="92.3" height="37.4"/>
<rect x="170" y="142.6" width="130" height="34.3"/>
<rect x="81.2" y="214.3" width="24.4" height="67.2"/>
<rect x="112.9" y="253.3" width="25.1" height="65"/>
<rect x="74.5" y="281.5" width="11.1" height="36.8"/>
<rect x="93.4" y="285.8" width="12.2" height="32.5"/>
<rect x="74.5" y="323.4" width="66.3" height="52"/>
<rect x="163" y="313.2" width="150.3" height="5.1"/>
<rect x="303.3" y="142.6" width="91.3" height="34.3"/>
<rect x="339.4" y="175.8" width="128.8" height="37.4"/>
<circle class="st3" cx="202.5" cy="261.9" r="18.4"/>
<circle class="st3" cx="248.1" cy="261.9" r="18.4"/>
<circle class="st3" cx="289.8" cy="261.9" r="18.4"/>
<circle class="st3" cx="333.8" cy="261.9" r="18.4"/>
<circle class="st3" cx="204.3" cy="266.5" r="11"/>
<circle class="st3" cx="248.1" cy="264.3" r="11"/>
<circle class="st3" cx="289.8" cy="264.3" r="11"/>
<circle class="st3" cx="333.8" cy="264.3" r="11"/>
<rect x="400.3" y="140.3" width="8.5" height="32.1"/>
<rect x="412.7" y="140.3" width="8.5" height="32.1"/>
<rect x="425.8" y="140.3" width="8.5" height="32.1"/>
<rect x="438.1" y="140.3" width="8.5" height="32.1"/>
<rect x="452.5" y="140.3" width="8.5" height="32.1"/>
<rect x="467.1" y="140.3" width="8.5" height="32.1"/>
<rect x="479.8" y="140.3" width="8.5" height="32.1"/>
<rect x="492.3" y="140.3" width="8.5" height="32.1"/>
<rect x="504.9" y="140.3" width="8.5" height="32.1"/>
<rect x="519.4" y="140.3" width="8.5" height="32.1"/>
<circle class="st3" cx="93.4" cy="398.9" r="18.4"/>
<circle class="st3" cx="93.4" cy="444.5" r="18.4"/>
<circle class="st3" cx="93.4" cy="486.2" r="18.4"/>
<circle class="st3" cx="93.4" cy="530.2" r="18.4"/>
<circle class="st3" cx="88.7" cy="400.7" r="11"/>
<circle class="st3" cx="91" cy="444.5" r="11"/>
<circle class="st3" cx="90" cy="487.2" r="11"/>
<circle class="st3" cx="91" cy="530.2" r="11"/>
<rect x="55.2" y="552.7" width="75.2" height="57.1"/>
<rect x="55.2" y="615.8" width="58.4" height="52.7"/>
<rect x="136.9" y="605.1" width="174.4" height="15.1"/>
<rect x="124.5" y="638.2" width="151" height="7.9"/>
<rect x="59.7" y="681.8" width="74.2" height="6.3"/>
<line class="st4" x1="154.3" y1="545.5" x2="154.3" y2="363.3"/>
<line class="st4" x1="160.2" y1="545.5" x2="160.2" y2="363.3"/>
<line class="st4" x1="166.2" y1="544.9" x2="166.2" y2="362.6"/>
<line class="st4" x1="169.2" y1="544.9" x2="169.2" y2="362.6"/>
<line class="st4" x1="178.3" y1="544.9" x2="178.3" y2="362.6"/>
<line class="st4" x1="181.8" y1="544.9" x2="181.8" y2="362.6"/>
<line class="st4" x1="189.4" y1="544.9" x2="189.4" y2="362.6"/>
<line class="st4" x1="193.2" y1="544.9" x2="193.2" y2="362.6"/>
<line class="st4" x1="196.1" y1="545.5" x2="196.1" y2="363.3"/>
<line class="st4" x1="199.1" y1="544.2" x2="199.1" y2="361.9"/>
<line class="st4" x1="205" y1="544.9" x2="205" y2="362.6"/>
<line class="st4" x1="213.9" y1="544.2" x2="213.9" y2="361.9"/>
<line class="st5" x1="359.3" y1="281" x2="641.2" y2="281"/>
<line class="st5" x1="359.3" y1="286.9" x2="641.2" y2="286.9"/>
<line class="st5" x1="359.3" y1="293" x2="641.2" y2="293"/>
<line class="st5" x1="359.3" y1="296" x2="641.2" y2="296"/>
<line class="st5" x1="359.3" y1="305" x2="641.2" y2="305"/>
<line class="st5" x1="359.3" y1="308.5" x2="641.2" y2="308.5"/>
<line class="st5" x1="359.3" y1="316.1" x2="641.2" y2="316.1"/>
<line class="st5" x1="359.3" y1="319.9" x2="641.2" y2="319.9"/>
<line class="st5" x1="359.3" y1="322.9" x2="641.2" y2="322.9"/>
<line class="st5" x1="359.3" y1="325.8" x2="641.2" y2="325.8"/>
<line class="st5" x1="359.3" y1="331.7" x2="641.2" y2="331.7"/>
<line class="st5" x1="359.3" y1="340.6" x2="641.2" y2="340.6"/>
<rect x="1090.5" y="319.9" width="129.4" height="3.7"/>
<rect x="158" y="660.8" width="438" height="6.3"/>
<g>
	<circle cx="396" cy="305.7" r="51.3"/>
	<ellipse transform="matrix(0.4395 -0.8982 0.8982 0.4395 13.5757 517.8091)" cx="421.7" cy="248" rx="5.3" ry="23.3"/>
	<rect x="364.6" y="242.2" width="28.7" height="6.9"/>
	<circle class="st6" cx="396" cy="305.7" r="17"/>
</g>
<line class="st7" x1="619" y1="621.3" x2="922.5" y2="621.3"/>
<line class="st7" x1="619" y1="635.1" x2="922.5" y2="635.1"/>
<line class="st7" x1="619" y1="640.9" x2="922.5" y2="640.9"/>
<line class="st7" x1="619" y1="645.5" x2="922.5" y2="645.5"/>
<line class="st7" x1="619" y1="650" x2="922.5" y2="650"/>
<line class="st7" x1="619" y1="659.1" x2="922.5" y2="659.1"/>
<line class="st7" x1="619" y1="672.6" x2="922.5" y2="672.6"/>
<g class="st8">
	<path d="M58.5,432.5v-7.8h5.4v18.7l-13-8.7v7.5h-5.4v-18.4L58.5,432.5z"/>
	<path d="M34.1,414.3h13.2c-1.6-1.5-2.4-3.5-2.4-5.8c0-1.4,0.3-2.6,0.8-3.8c0.5-1.1,1.2-2.1,2.1-2.9s1.9-1.4,3.1-1.9
		s2.5-0.7,3.8-0.7c1.4,0,2.7,0.2,3.9,0.7s2.2,1.1,3.1,2c0.9,0.8,1.6,1.8,2.1,3c0.5,1.1,0.8,2.4,0.8,3.7c0,2.4-0.9,4.3-2.6,5.7h2.1
		v6.5h-30C34.1,420.8,34.1,414.3,34.1,414.3z M54.8,406.1c-0.6,0-1.1,0.1-1.6,0.3c-0.5,0.2-1,0.5-1.3,0.9c-0.4,0.4-0.7,0.8-0.9,1.3
		s-0.3,1.1-0.3,1.7s0.1,1.1,0.3,1.6s0.5,0.9,0.9,1.3s0.8,0.7,1.4,0.9c0.5,0.2,1.1,0.3,1.6,0.3s1.1-0.1,1.6-0.3
		c0.5-0.2,0.9-0.5,1.3-0.9s0.7-0.8,0.9-1.4c0.2-0.5,0.3-1.1,0.3-1.6c0-0.6-0.1-1.1-0.3-1.6s-0.5-0.9-0.9-1.3s-0.8-0.7-1.3-0.9
		S55.3,406.1,54.8,406.1z"/>
	<path d="M45.5,389h10.4c2.3,0,3.4-1.1,3.4-3.3c0-2.2-1.1-3.3-3.4-3.3H45.5v-6.5h11.6c2.5,0,4.4,0.8,5.6,2.5
		c1.2,1.6,1.9,4.1,1.9,7.4s-0.6,5.7-1.9,7.4c-1.2,1.6-3.1,2.5-5.6,2.5H45.5V389z"/>
	<path d="M45.5,371.5V365h2.3c-1.1-0.9-1.8-1.8-2.2-2.7c-0.4-0.9-0.6-2-0.6-3.2c0-1.3,0.2-2.4,0.6-3.3s1-1.7,1.8-2.4
		c0.6-0.5,1.3-0.9,2.1-1.1s1.6-0.3,2.6-0.3h11.7v6.5h-9.3c-0.9,0-1.6,0.1-2.2,0.2s-1,0.4-1.3,0.7c-0.3,0.3-0.5,0.6-0.6,1
		s-0.2,0.7-0.2,1.2c0,1.1,0.3,2,1,2.5c0.7,0.6,1.6,0.9,2.8,0.9h9.9v6.5L45.5,371.5L45.5,371.5z"/>
	<path d="M50.9,340.3h13v6.5h-13v2.2h-5.4v-2.2H40v-6.5h5.5v-3.7h5.4V340.3z"/>
	<path d="M54.5,334.5c-1.4,0-2.6-0.3-3.8-0.8c-1.2-0.6-2.2-1.3-3.1-2.3s-1.6-2.2-2.1-3.5c-0.5-1.4-0.8-2.8-0.8-4.4s0.2-3.1,0.7-4.4
		c0.5-1.4,1.2-2.5,2.1-3.5s1.9-1.8,3.1-2.3c1.2-0.6,2.6-0.8,4-0.8s2.8,0.3,4,0.8s2.3,1.3,3.1,2.3c0.9,1,1.6,2.2,2,3.5
		c0.5,1.4,0.7,2.9,0.7,4.5s-0.2,3-0.7,4.4c-0.5,1.3-1.2,2.5-2.1,3.5s-2,1.7-3.2,2.3C57.4,334.2,56.1,334.5,54.5,334.5z M54.6,327.6
		c0.6,0,1.2-0.1,1.7-0.3c0.5-0.2,1-0.5,1.4-0.9s0.7-0.8,0.9-1.3s0.3-1.1,0.3-1.6c0-0.6-0.1-1.1-0.3-1.6s-0.5-1-0.9-1.3
		s-0.8-0.7-1.4-0.9c-0.5-0.2-1.1-0.3-1.7-0.3s-1.1,0.1-1.6,0.3c-0.5,0.2-1,0.5-1.4,0.9s-0.7,0.8-0.9,1.3s-0.3,1.1-0.3,1.6
		c0,0.6,0.1,1.1,0.3,1.6s0.5,1,0.9,1.3c0.4,0.4,0.8,0.7,1.3,0.9C53.5,327.5,54,327.6,54.6,327.6z"/>
	<path d="M45.5,304.5l9.7-4.4l-9.7-4.6v-4.1l10-4.6l-10-4.6V275l18.5,9.6v4.4l-10.1,4.6L64,298v4.4l-18.5,9.5V304.5z"/>
	<path d="M45.5,259.3v-6.6H64v6.6h-2.1c1.8,1.4,2.6,3.3,2.6,5.7c0,1.3-0.2,2.6-0.7,3.7c-0.5,1.1-1.2,2.1-2.1,3
		c-0.9,0.8-1.9,1.5-3.1,2s-2.5,0.7-3.9,0.7c-1.3,0-2.6-0.2-3.8-0.7s-2.2-1.1-3.1-1.9s-1.6-1.8-2.1-2.9s-0.8-2.4-0.8-3.7
		c0-2.3,0.8-4.2,2.4-5.7h-1.8C45.5,259.5,45.5,259.3,45.5,259.3z M54.7,267.5c0.6,0,1.2-0.1,1.7-0.3c0.5-0.2,1-0.5,1.4-0.9
		s0.7-0.8,0.9-1.3s0.3-1.1,0.3-1.7c0-0.6-0.1-1.1-0.3-1.6s-0.5-1-0.9-1.3s-0.8-0.7-1.3-0.9s-1-0.3-1.6-0.3s-1.1,0.1-1.6,0.3
		s-1,0.5-1.4,0.9s-0.7,0.8-0.9,1.3s-0.3,1.1-0.3,1.6c0,0.6,0.1,1.2,0.3,1.7s0.5,1,0.9,1.3c0.4,0.4,0.8,0.7,1.3,0.9
		S54.1,267.5,54.7,267.5z"/>
	<path d="M45.5,248.3v-6.5h2.3c-1.1-0.9-1.8-1.8-2.2-2.7s-0.6-2-0.6-3.2c0-1.3,0.2-2.4,0.6-3.3c0.4-0.9,1-1.7,1.8-2.4
		c0.6-0.5,1.3-0.9,2.1-1.1c0.8-0.2,1.6-0.3,2.6-0.3h11.7v6.5h-9.3c-0.9,0-1.6,0.1-2.2,0.2c-0.6,0.1-1,0.4-1.3,0.7s-0.5,0.6-0.6,1
		s-0.2,0.7-0.2,1.2c0,1.1,0.3,2,1,2.5c0.7,0.6,1.6,0.9,2.8,0.9h9.9v6.5L45.5,248.3L45.5,248.3z"/>
	<path d="M45.5,210.1v-6.6H64v6.6h-2.1c1.8,1.4,2.6,3.3,2.6,5.7c0,1.3-0.2,2.6-0.7,3.7c-0.5,1.1-1.2,2.1-2.1,3
		c-0.9,0.8-1.9,1.5-3.1,2s-2.5,0.7-3.9,0.7c-1.3,0-2.6-0.2-3.8-0.7s-2.2-1.1-3.1-1.9c-0.9-0.8-1.6-1.8-2.1-2.9
		c-0.5-1.1-0.8-2.4-0.8-3.7c0-2.3,0.8-4.2,2.4-5.7h-1.8C45.5,210.3,45.5,210.1,45.5,210.1z M54.7,218.4c0.6,0,1.2-0.1,1.7-0.3
		s1-0.5,1.4-0.9s0.7-0.8,0.9-1.3s0.3-1.1,0.3-1.7c0-0.6-0.1-1.1-0.3-1.6s-0.5-1-0.9-1.3s-0.8-0.7-1.3-0.9s-1-0.3-1.6-0.3
		s-1.1,0.1-1.6,0.3s-1,0.5-1.4,0.9s-0.7,0.8-0.9,1.3s-0.3,1.1-0.3,1.6c0,0.6,0.1,1.2,0.3,1.7s0.5,1,0.9,1.3c0.4,0.4,0.8,0.7,1.3,0.9
		S54.1,218.4,54.7,218.4z"/>
</g>
<g class="st8">
	<path d="M609.6,241.8c0-1.4,0.3-2.6,0.8-3.8c0.6-1.2,1.3-2.2,2.3-3.1c1-0.9,2.2-1.6,3.5-2.1c1.4-0.5,2.8-0.8,4.4-0.8
		c1.6,0,3.1,0.2,4.4,0.7c1.4,0.5,2.5,1.2,3.5,2.1c1,0.9,1.8,1.9,2.3,3.1c0.6,1.2,0.8,2.6,0.8,4s-0.3,2.8-0.8,4s-1.3,2.3-2.3,3.1
		c-1,0.9-2.2,1.6-3.5,2c-1.4,0.5-2.9,0.7-4.5,0.7s-3-0.2-4.4-0.7c-1.3-0.5-2.5-1.2-3.5-2.1s-1.7-2-2.3-3.2
		C609.9,244.7,609.6,243.3,609.6,241.8z M616.5,241.9c0,0.6,0.1,1.2,0.3,1.7s0.5,1,0.9,1.4s0.8,0.7,1.3,0.9s1.1,0.3,1.6,0.3
		c0.6,0,1.1-0.1,1.6-0.3s1-0.5,1.3-0.9s0.7-0.8,0.9-1.4c0.2-0.5,0.3-1.1,0.3-1.7c0-0.6-0.1-1.1-0.3-1.6s-0.5-1-0.9-1.4
		s-0.8-0.7-1.3-0.9s-1.1-0.3-1.6-0.3c-0.6,0-1.1,0.1-1.6,0.3s-1,0.5-1.3,0.9c-0.4,0.4-0.7,0.8-0.9,1.3
		C616.6,240.8,616.5,241.3,616.5,241.9z"/>
	<path d="M635.5,232.8h6.5v3c0.7-1.1,1.5-1.9,2.6-2.5c1-0.6,2.2-0.9,3.5-0.9c0.2,0,0.4,0,0.6,0c0.2,0,0.4,0,0.7,0.1v6.2
		c-0.9-0.4-1.8-0.6-2.8-0.6c-1.5,0-2.6,0.5-3.4,1.3c-0.8,0.9-1.1,2.2-1.1,3.9v7.9h-6.5L635.5,232.8L635.5,232.8z"/>
	<path d="M658.8,221.3v18.1l6.8-6.7h8.9l-9.3,8.5l9.8,9.9h-9.1l-7.2-7.5v7.5h-6.5v-29.8H658.8z"/>
	<path d="M677,225.7c0-0.5,0.1-1,0.3-1.4s0.5-0.8,0.8-1.2c0.3-0.3,0.7-0.6,1.2-0.8c0.4-0.2,0.9-0.3,1.4-0.3s1,0.1,1.4,0.3
		s0.8,0.5,1.2,0.8c0.3,0.3,0.6,0.7,0.8,1.2c0.2,0.4,0.3,0.9,0.3,1.4s-0.1,1-0.3,1.4s-0.5,0.8-0.8,1.2c-0.3,0.3-0.7,0.6-1.2,0.8
		c-0.4,0.2-0.9,0.3-1.4,0.3s-1-0.1-1.4-0.3s-0.8-0.5-1.2-0.8c-0.3-0.3-0.6-0.7-0.8-1.2S677,226.2,677,225.7z M683.9,232.8v18.5h-6.5
		v-18.5H683.9z"/>
	<path d="M694.3,243.1c0,2.8,1.3,4.2,4,4.2c1.4,0,2.5-0.6,3.2-1.7h6.3c-1.3,4.2-4.5,6.3-9.5,6.3c-1.6,0-3-0.2-4.3-0.7
		s-2.4-1.1-3.3-2c-0.9-0.9-1.6-1.9-2.1-3.1c-0.5-1.2-0.8-2.5-0.8-4s0.2-2.9,0.7-4.2c0.5-1.2,1.2-2.3,2.1-3.2c0.9-0.9,2-1.5,3.2-2
		c1.3-0.5,2.7-0.7,4.3-0.7s3,0.2,4.2,0.7s2.3,1.1,3.2,2s1.5,2,2,3.3s0.7,2.7,0.7,4.3v0.7L694.3,243.1L694.3,243.1L694.3,243.1z
		 M701.9,239.3c-0.2-0.9-0.7-1.6-1.3-2.2c-0.7-0.6-1.5-0.8-2.4-0.8c-1,0-1.8,0.3-2.5,0.8c-0.6,0.5-1,1.3-1.2,2.2H701.9z"/>
	<path d="M723.9,237.5c-1.2-0.6-2.4-0.9-3.5-0.9c-0.6,0-1.1,0.1-1.5,0.4c-0.4,0.2-0.6,0.6-0.6,1c0,0.2,0,0.4,0.1,0.5
		s0.2,0.3,0.4,0.4c0.2,0.1,0.5,0.2,0.9,0.3s0.9,0.2,1.6,0.4c1.8,0.4,3.1,1,4,1.9s1.3,2.1,1.3,3.5c0,1.1-0.2,2.1-0.6,2.9
		c-0.4,0.9-1,1.6-1.8,2.2c-0.8,0.6-1.7,1-2.8,1.4s-2.3,0.5-3.6,0.5c-2.5,0-5-0.7-7.4-2.1l2.4-4.6c1.8,1.2,3.6,1.9,5.2,1.9
		c0.6,0,1.1-0.1,1.5-0.4c0.4-0.3,0.6-0.6,0.6-1c0-0.2,0-0.4-0.1-0.6c-0.1-0.2-0.2-0.3-0.4-0.4c-0.2-0.1-0.5-0.3-0.8-0.4
		c-0.4-0.1-0.9-0.2-1.5-0.3c-2-0.4-3.4-1-4.2-1.8s-1.2-1.9-1.2-3.3c0-1,0.2-2,0.6-2.8c0.4-0.8,0.9-1.5,1.7-2.1
		c0.7-0.6,1.6-1,2.6-1.3s2.2-0.5,3.4-0.5c2,0,4,0.4,5.9,1.2L723.9,237.5z"/>
	<path d="M737.8,238.2v13h-6.5v-13h-2.2v-5.4h2.2v-5.5h6.5v5.5h3.7v5.4H737.8z"/>
	<path d="M744,232.8h6.5v3c0.7-1.1,1.5-1.9,2.6-2.5c1-0.6,2.2-0.9,3.5-0.9c0.2,0,0.4,0,0.6,0s0.4,0,0.7,0.1v6.2
		c-0.9-0.4-1.8-0.6-2.8-0.6c-1.5,0-2.6,0.5-3.4,1.3c-0.8,0.9-1.1,2.2-1.1,3.9v7.9h-6.5L744,232.8L744,232.8z"/>
	<path d="M775.2,232.8h6.6v18.5h-6.6v-2.1c-1.4,1.8-3.3,2.6-5.7,2.6c-1.3,0-2.6-0.2-3.7-0.7c-1.1-0.5-2.1-1.2-3-2.1
		c-0.8-0.9-1.5-1.9-2-3.1c-0.5-1.2-0.7-2.5-0.7-3.9c0-1.3,0.2-2.6,0.7-3.8s1.1-2.2,1.9-3.1c0.8-0.9,1.8-1.6,2.9-2.1
		c1.1-0.5,2.4-0.8,3.7-0.8c2.3,0,4.2,0.8,5.7,2.4v-1.8L775.2,232.8L775.2,232.8z M767,241.9c0,0.6,0.1,1.2,0.3,1.7s0.5,1,0.9,1.4
		s0.8,0.7,1.3,0.9s1.1,0.3,1.7,0.3c0.6,0,1.1-0.1,1.6-0.3s1-0.5,1.3-0.9s0.7-0.8,0.9-1.3s0.3-1,0.3-1.6s-0.1-1.1-0.3-1.6
		s-0.5-1-0.9-1.4s-0.8-0.7-1.3-0.9s-1.1-0.3-1.6-0.3c-0.6,0-1.2,0.1-1.7,0.3s-1,0.5-1.3,0.9c-0.4,0.4-0.7,0.8-0.9,1.3
		S767,241.4,767,241.9z"/>
</g>
<circle class="st3" cx="745.3" cy="585.2" r="18.4"/>
<circle class="st3" cx="790.9" cy="585.2" r="18.4"/>
<circle class="st3" cx="832.6" cy="585.2" r="18.4"/>
<circle class="st3" cx="876.6" cy="585.2" r="18.4"/>
<circle class="st3" cx="747.1" cy="589.8" r="11"/>
<circle class="st3" cx="790.9" cy="587.6" r="11"/>
<circle class="st3" cx="832.6" cy="587.6" r="11"/>
<circle class="st3" cx="876.6" cy="587.6" r="11"/>
<rect x="507.1" y="568" width="89.2" height="81.1"/>
<circle cx="873.9" cy="194" r="53.4"/>
<circle class="st6" cx="873.9" cy="194" r="23.8"/>
<circle class="st9" cx="915.8" cy="301.8" r="36.9"/>
<path class="st10" d="M889,330.1c-10.1-8.1-16.6-29.6-18.3-44.6c-1.2-10.4-0.7-22.4,2.8-32.2c14.1-0.5,28-6,39.7-14
	c-13.1,19.7-20.6,43.2-21.1,66.9c-0.2,10.2,2.3,23.3,10.8,29.1"/>
<g>
	<g>
		<circle cx="158.9" cy="487.2" r="31.2"/>
		<rect x="109.3" y="424.2" transform="matrix(0.2454 -0.9694 0.9694 0.2454 -286.0667 492.0727)" width="127.5" height="11.1"/>
		<polygon points="200.3,368.5 177.8,362.8 190.5,334.3 203.4,337.6 		"/>
		<ellipse cx="207.8" cy="343.1" rx="2.9" ry="2.9"/>
		<ellipse cx="207" cy="353.3" rx="2.9" ry="2.9"/>
		<ellipse cx="206.2" cy="364" rx="2.9" ry="2.9"/>
		<ellipse cx="183.8" cy="336.7" rx="2.9" ry="2.9"/>
		<ellipse cx="179.7" cy="346" rx="2.9" ry="2.9"/>
		<ellipse cx="175.4" cy="355.9" rx="2.9" ry="2.9"/>
	</g>
	<circle class="st6" cx="158.9" cy="487.2" r="25"/>
</g>
<rect x="699.1" y="276.9" width="8.5" height="32.1"/>
<rect x="714.5" y="276.9" width="8.5" height="32.1"/>
<rect x="727.6" y="276.9" width="8.5" height="32.1"/>
<rect x="739.9" y="276.9" width="8.5" height="32.1"/>
<rect x="754.3" y="276.9" width="8.5" height="32.1"/>
<rect x="768.9" y="276.9" width="8.5" height="32.1"/>
<rect x="781.6" y="276.9" width="8.5" height="32.1"/>
<rect x="794.1" y="276.9" width="8.5" height="32.1"/>
<rect x="806.7" y="276.9" width="8.5" height="32.1"/>
<rect x="823.2" y="276.9" width="8.5" height="32.1"/>
<rect x="367" y="565.3" transform="matrix(0.8192 -0.5736 0.5736 0.8192 -277.2067 327.2899)" width="26.8" height="75.8"/>
<circle class="st6" cx="457.4" cy="581.5" r="1.9"/>
<circle class="st6" cx="450.9" cy="590.9" r="1.9"/>
<circle class="st6" cx="444.4" cy="600.3" r="1.9"/>
<circle class="st6" cx="437.9" cy="609.7" r="1.9"/>
<circle class="st6" cx="431.4" cy="619.1" r="1.9"/>
<circle class="st6" cx="459.3" cy="589" r="1.9"/>
<circle class="st6" cx="452.8" cy="598.4" r="1.9"/>
<circle class="st6" cx="446.3" cy="607.8" r="1.9"/>
<circle class="st6" cx="439.8" cy="617.2" r="1.9"/>
<circle class="st6" cx="467.7" cy="587.1" r="1.9"/>
<circle class="st6" cx="461.2" cy="596.5" r="1.9"/>
<circle class="st6" cx="454.7" cy="605.9" r="1.9"/>
<circle class="st6" cx="448.2" cy="615.3" r="1.9"/>
<path class="st11" d="M458.1,556.4"/>
<polyline class="st11" points="381.7,572.4 392.7,561.4 392.7,561.4 403.7,572.4 403.8,572.4 414.8,561.4 414.8,561.4 424.8,572.4 
	425,572.4 436,561.4 436,561.4 447,572.4 "/>
<circle class="st6" cx="440.6" cy="625.8" r="1.9"/>
<circle class="st3" cx="725.2" cy="336.2" r="18.4"/>
<circle class="st3" cx="769.2" cy="336.2" r="18.4"/>
<circle class="st3" cx="725.2" cy="338.6" r="11"/>
<circle class="st3" cx="769.2" cy="338.6" r="11"/>
<ellipse transform="matrix(0.7071 -0.7071 0.7071 0.7071 6.4825 681.0914)" class="st3" cx="825.4" cy="332.7" rx="18.4" ry="18.4"/>
<circle class="st3" cx="823.7" cy="331" r="11"/>
<circle class="st12" cx="947.2" cy="575.6" r="7.6"/>
<circle class="st12" cx="968.7" cy="575.6" r="7.6"/>
<circle class="st12" cx="990.7" cy="575.6" r="7.6"/>
<circle class="st12" cx="946.9" cy="596.7" r="7.6"/>
<circle class="st12" cx="968.4" cy="596.7" r="7.6"/>
<circle class="st12" cx="990.5" cy="596.7" r="7.6"/>
<circle class="st12" cx="946.7" cy="617.8" r="7.6"/>
<circle class="st12" cx="968.2" cy="617.8" r="7.6"/>
<circle class="st12" cx="990.2" cy="617.8" r="7.6"/>
<rect x="939.4" y="643.9" width="56.2" height="10.1"/>
<rect x="939.4" y="668.4" width="56.2" height="10.1"/>
<g>
	<path class="st6" d="M391.9,402.8v115.4h-52.6v-39h-34v39h-52.6V402.8h52.6v37.3h34v-37.3H391.9z"/>
	<path class="st6" d="M481.4,508h-42.8l-5.9,10.2H392l75.5-129l75.5,129h-56L481.4,508z M469.3,485.9l-8.7-15.6l-9.2,15.6H469.3z"/>
	<path class="st6" d="M543,397.7l83.2,44.1v-39h47.5v120.9l-83.2-44.1v39H543V397.7z M653.5,365.4l-40.7,27.2h-5.9v-27.2H653.5z"/>
	<path class="st6" d="M792.2,459.5c7.1,2.6,12.6,6.1,16.6,10.5c3.9,4.4,5.9,10,5.9,16.8c0,6.6-1.5,11.9-4.6,16s-7.4,7.2-13.1,9.5
		c-5.7,2.3-12.5,3.8-20.4,4.7c-7.9,0.8-16.8,1.3-26.5,1.3h-66.2V402.8h64.5c8.8,0,17,0.5,24.4,1.5c7.5,1,13.9,2.8,19.4,5.3
		c5.4,2.5,9.7,5.9,12.7,10.1c3.1,4.2,4.6,9.6,4.6,16.2c0,6-1.5,10.9-4.6,14.6S797.6,457.2,792.2,459.5z M736.5,448.6h10.2
		c5.1,0,8.5-0.8,10.2-2.4s2.5-3.3,2.5-5.3c0-1.9-0.8-3.7-2.5-5.3c-1.7-1.6-5.1-2.4-10.2-2.4h-10.2V448.6z M748.4,487.6
		c5.1,0,8.5-0.8,10.2-2.4s2.5-3.3,2.5-5.3c0-1.9-0.8-3.7-2.5-5.3c-1.7-1.6-5.1-2.4-10.2-2.4h-11.9v15.3L748.4,487.6L748.4,487.6z"/>
	<path class="st6" d="M893.9,508h-42.8l-5.9,10.2h-40.7l75.5-129l75.5,129h-56L893.9,508z M881.8,485.9l-8.7-15.6l-9.2,15.6H881.8z"
		/>
	<path class="st6" d="M1008.2,402.8l-17,67.9h-18.7l-17-67.9H1008.2z M981.8,519.7c-2.8,0-5.5-0.5-7.9-1.6s-4.6-2.5-6.4-4.3
		c-1.8-1.8-3.2-3.9-4.2-6.4c-1-2.4-1.5-5-1.5-7.7s0.5-5.3,1.5-7.7c1-2.4,2.4-4.6,4.2-6.4s3.9-3.3,6.4-4.3c2.4-1.1,5.1-1.6,7.9-1.6
		c2.7,0,5.3,0.5,7.7,1.6s4.6,2.5,6.4,4.3c1.8,1.8,3.2,3.9,4.2,6.4c1,2.4,1.5,5,1.5,7.7s-0.5,5.3-1.5,7.7c-1,2.4-2.4,4.6-4.2,6.4
		s-3.9,3.3-6.4,4.3C987.1,519.2,984.6,519.7,981.8,519.7z"/>
</g>
<line class="st1" x1="1218.5" y1="101.6" x2="1218.5" y2="268.4"/>
<line class="st1" x1="1212.6" y1="101.6" x2="1212.6" y2="268.4"/>
<line class="st1" x1="1206.5" y1="101.6" x2="1206.5" y2="268.4"/>
<line class="st1" x1="1203.5" y1="101.6" x2="1203.5" y2="268.4"/>
<line class="st1" x1="1194.5" y1="101.6" x2="1194.5" y2="268.4"/>
<line class="st1" x1="1191" y1="101.6" x2="1191" y2="268.4"/>
<line class="st1" x1="1184.5" y1="101.8" x2="1184.5" y2="268.6"/>
<line class="st1" x1="1181" y1="101.8" x2="1181" y2="268.6"/>
<g class="st8">
	<path d="M1040.3,269.2v-6.5h27.8v6.5h-2.1c1.8,1.4,2.6,3.3,2.6,5.7c0,1.3-0.3,2.6-0.8,3.7s-1.2,2.1-2.1,3c-0.9,0.8-1.9,1.5-3.1,2
		s-2.5,0.7-3.9,0.7s-2.6-0.2-3.8-0.7s-2.2-1.1-3.1-1.9s-1.6-1.8-2.1-2.9s-0.8-2.4-0.8-3.7c0-2.3,0.8-4.2,2.4-5.8L1040.3,269.2
		L1040.3,269.2z M1058.6,277.5c0.6,0,1.1-0.1,1.6-0.3s1-0.5,1.3-0.9c0.4-0.4,0.7-0.8,0.9-1.4c0.2-0.5,0.3-1.1,0.3-1.7
		s-0.1-1.1-0.3-1.6c-0.2-0.5-0.5-0.9-0.9-1.3s-0.8-0.7-1.4-0.9c-0.5-0.2-1.1-0.3-1.6-0.3s-1.1,0.1-1.6,0.3s-0.9,0.5-1.3,0.9
		s-0.7,0.8-0.9,1.4c-0.2,0.5-0.3,1.1-0.3,1.6c0,0.6,0.1,1.1,0.3,1.6s0.5,0.9,0.9,1.3s0.8,0.7,1.3,0.9
		C1057.6,277.3,1058.1,277.5,1058.6,277.5z"/>
	<path d="M1058.9,287.2c1.4,0,2.6,0.3,3.8,0.8c1.2,0.6,2.2,1.3,3.1,2.3s1.6,2.2,2.1,3.5c0.5,1.4,0.8,2.8,0.8,4.4s-0.2,3.1-0.7,4.4
		c-0.5,1.4-1.2,2.5-2.1,3.5s-1.9,1.8-3.1,2.3c-1.2,0.6-2.6,0.8-4,0.8s-2.8-0.3-4-0.8c-1.2-0.6-2.3-1.3-3.1-2.3c-0.9-1-1.6-2.2-2-3.5
		c-0.5-1.4-0.7-2.9-0.7-4.5s0.2-3,0.7-4.4c0.5-1.3,1.2-2.5,2.1-3.5s2-1.7,3.2-2.3C1056.1,287.5,1057.3,287.2,1058.9,287.2z
		 M1058.8,294c-0.6,0-1.2,0.1-1.7,0.3s-1,0.5-1.4,0.9s-0.7,0.8-0.9,1.3s-0.3,1.1-0.3,1.6c0,0.6,0.1,1.1,0.3,1.6s0.5,1,0.9,1.3
		s0.8,0.7,1.4,0.9c0.5,0.2,1.1,0.3,1.7,0.3s1.1-0.1,1.6-0.3s1-0.5,1.4-0.9s0.7-0.8,0.9-1.3c0.2-0.5,0.3-1.1,0.3-1.6
		c0-0.6-0.1-1.1-0.3-1.6c-0.2-0.5-0.5-1-0.9-1.3c-0.4-0.4-0.8-0.7-1.3-0.9C1059.9,294.2,1059.3,294,1058.8,294z"/>
	<path d="M1079.3,327.5v6.6h-29.9v-6.6h2.1c-1.8-1.4-2.6-3.3-2.6-5.7c0-1.3,0.3-2.6,0.8-3.7s1.2-2.1,2.1-3s1.9-1.5,3.1-2
		s2.5-0.7,3.9-0.7c1.3,0,2.6,0.2,3.8,0.7c1.2,0.4,2.2,1.1,3.1,1.9s1.6,1.8,2.1,2.9s0.8,2.4,0.8,3.8c0,2.3-0.8,4.2-2.4,5.7
		L1079.3,327.5L1079.3,327.5z M1058.8,319.2c-0.6,0-1.2,0.1-1.7,0.3s-1,0.5-1.4,0.9s-0.7,0.8-0.9,1.3s-0.3,1.1-0.3,1.7
		s0.1,1.1,0.3,1.6s0.5,1,0.9,1.3s0.8,0.7,1.3,0.9s1,0.3,1.6,0.3s1.1-0.1,1.6-0.3s1-0.5,1.4-0.9s0.7-0.8,0.9-1.3
		c0.2-0.5,0.3-1.1,0.3-1.6s-0.1-1.1-0.3-1.6c-0.2-0.5-0.5-1-0.9-1.3c-0.4-0.4-0.8-0.7-1.3-0.9
		C1059.9,319.3,1059.3,319.2,1058.8,319.2z"/>
	<path d="M1067.9,343.8l-9.7,4.4l9.7,4.6v4.1l-10,4.6l10,4.6v7.2l-18.5-9.6v-4.4l10.1-4.6l-10.1-4.4v-4.4l18.5-9.5V343.8z"/>
	<path d="M1058.9,375c1.4,0,2.6,0.3,3.8,0.8c1.2,0.6,2.2,1.3,3.1,2.3s1.6,2.2,2.1,3.5c0.5,1.4,0.8,2.8,0.8,4.4s-0.2,3.1-0.7,4.4
		c-0.5,1.4-1.2,2.5-2.1,3.5s-1.9,1.8-3.1,2.3c-1.2,0.6-2.6,0.8-4,0.8s-2.8-0.3-4-0.8c-1.2-0.6-2.3-1.3-3.1-2.3c-0.9-1-1.6-2.2-2-3.5
		c-0.5-1.4-0.7-2.9-0.7-4.5s0.2-3,0.7-4.4c0.5-1.3,1.2-2.5,2.1-3.5s2-1.7,3.2-2.3C1056.1,375.2,1057.3,375,1058.9,375z
		 M1058.8,381.8c-0.6,0-1.2,0.1-1.7,0.3s-1,0.5-1.4,0.9s-0.7,0.8-0.9,1.3s-0.3,1.1-0.3,1.6c0,0.6,0.1,1.1,0.3,1.6s0.5,1,0.9,1.3
		s0.8,0.7,1.4,0.9c0.5,0.2,1.1,0.3,1.7,0.3s1.1-0.1,1.6-0.3s1-0.5,1.4-0.9s0.7-0.8,0.9-1.3c0.2-0.5,0.3-1.1,0.3-1.6
		c0-0.6-0.1-1.1-0.3-1.6c-0.2-0.5-0.5-1-0.9-1.3c-0.4-0.4-0.8-0.7-1.3-0.9C1059.9,382,1059.3,381.8,1058.8,381.8z M1076.1,392
		l-5.5-6.3l2.2-3l6.3,5.1L1076.1,392z"/>
	<path d="M1067.9,400.8v6.5h-3c1.1,0.7,1.9,1.5,2.5,2.6c0.6,1,0.9,2.2,0.9,3.5c0,0.2,0,0.4,0,0.6s0,0.4-0.1,0.7h-6.2
		c0.4-0.9,0.6-1.8,0.6-2.8c0-1.5-0.5-2.6-1.3-3.4c-0.9-0.8-2.2-1.1-3.9-1.1h-7.9v-6.5L1067.9,400.8L1067.9,400.8z"/>
	<path d="M1079.3,424h-18.1l6.7,6.8v8.9l-8.5-9.3l-9.9,9.8v-9.1l7.5-7.2h-7.5v-6.5h29.9L1079.3,424L1079.3,424L1079.3,424z"/>
	<path d="M1058.9,440.8c1.4,0,2.6,0.3,3.8,0.8c1.2,0.6,2.2,1.3,3.1,2.3s1.6,2.2,2.1,3.5c0.5,1.4,0.8,2.8,0.8,4.4s-0.2,3.1-0.7,4.4
		c-0.5,1.4-1.2,2.5-2.1,3.5s-1.9,1.8-3.1,2.3c-1.2,0.6-2.6,0.8-4,0.8s-2.8-0.3-4-0.8c-1.2-0.6-2.3-1.3-3.1-2.3c-0.9-1-1.6-2.2-2-3.5
		s-0.7-2.9-0.7-4.5s0.2-3,0.7-4.4s1.2-2.5,2.1-3.5s2-1.7,3.2-2.3C1056.1,441,1057.3,440.8,1058.9,440.8z M1058.8,447.7
		c-0.6,0-1.2,0.1-1.7,0.3s-1,0.5-1.4,0.9s-0.7,0.8-0.9,1.3s-0.3,1.1-0.3,1.6s0.1,1.1,0.3,1.6s0.5,1,0.9,1.3s0.8,0.7,1.4,0.9
		c0.5,0.2,1.1,0.3,1.7,0.3s1.1-0.1,1.6-0.3s1-0.5,1.4-0.9s0.7-0.8,0.9-1.3c0.2-0.5,0.3-1.1,0.3-1.6s-0.1-1.1-0.3-1.6
		c-0.2-0.5-0.5-1-0.9-1.3c-0.4-0.4-0.8-0.7-1.3-0.9C1060.1,447.8,1059.3,447.7,1058.8,447.7z"/>
	<path d="M1067.9,470.8l-9.7,4.4l9.7,4.6v4.1l-10,4.6l10,4.6v7.2l-18.5-9.6v-4.4l10.1-4.6l-10.1-4.4v-4.4l18.5-9.5V470.8z"/>
	<path d="M1067.9,516v6.6h-18.5V516h2.1c-1.8-1.4-2.6-3.3-2.6-5.7c0-1.3,0.2-2.6,0.7-3.7s1.2-2.1,2.1-3c0.9-0.8,1.9-1.5,3.1-2
		s2.5-0.7,3.9-0.7c1.3,0,2.6,0.2,3.8,0.7c1.2,0.5,2.2,1.1,3.1,1.9s1.6,1.8,2.1,2.9s0.8,2.4,0.8,3.7c0,2.3-0.8,4.2-2.4,5.7h1.8V516
		L1067.9,516z M1058.8,507.8c-0.6,0-1.2,0.1-1.7,0.3s-1,0.5-1.4,0.9s-0.7,0.8-0.9,1.3s-0.3,1.1-0.3,1.7c0,0.6,0.1,1.1,0.3,1.6
		s0.5,1,0.9,1.3s0.8,0.7,1.3,0.9c0.5,0.2,1,0.3,1.6,0.3s1.1-0.1,1.6-0.3c0.5-0.2,1-0.5,1.4-0.9s0.7-0.8,0.9-1.3
		c0.2-0.5,0.3-1.1,0.3-1.6c0-0.6-0.1-1.2-0.3-1.7c-0.2-0.5-0.5-1-0.9-1.3c-0.4-0.4-0.8-0.7-1.3-0.9
		C1059.8,508,1059.3,507.8,1058.8,507.8z"/>
</g>
<rect x="617.3" y="569" width="69.8" height="32.4"/>
<polyline points="658.2,695.2 630.4,723 602.7,695.2 "/>
</svg>
