<?xml version="1.0" encoding="utf-8"?>
<!-- Generator: Adobe Illustrator 23.0.2, SVG Export Plug-In . SVG Version: 6.00 Build 0)  -->
<svg version="1.1" id="Layer_1" xmlns="http://www.w3.org/2000/svg" xmlns:xlink="http://www.w3.org/1999/xlink" x="0px" y="0px"
	 viewBox="0 0 1300 850" style="enable-background:new 0 0 1300 850;" xml:space="preserve">
<style type="text/css">
	.st0{fill-rule:evenodd;clip-rule:evenodd;fill:#F20C3E;}
	.st1{fill-rule:evenodd;clip-rule:evenodd;fill:#0C2231;}
	.st2{fill:#D6E9F5;}
	.st3{fill:#0C2231;}
	.st4{fill:#153A4F;}
</style>
<polygon class="st0" points="362.9,122 121,186.8 298.1,363.9 "/>
<rect x="231.6" y="569.4" class="st0" width="836.4" height="31.5"/>
<g>
	
		<rect x="112.9" y="390.3" transform="matrix(0.3422 -0.9396 0.9396 0.3422 -227.1637 473.7943)" class="st1" width="223.9" height="17.6"/>
	
		<rect x="83.4" y="379.6" transform="matrix(0.3422 -0.9396 0.9396 0.3422 -236.4481 439.0827)" class="st1" width="223.9" height="17.6"/>
	
		<rect x="53.1" y="370.6" transform="matrix(0.3422 -0.9396 0.9396 0.3422 -247.8893 404.6024)" class="st1" width="223.9" height="17.6"/>
	
		<rect x="23.9" y="358.9" transform="matrix(0.3422 -0.9396 0.9396 0.3422 -256.1087 369.532)" class="st1" width="223.9" height="17.6"/>
	
		<rect x="-5.7" y="348.1" transform="matrix(0.3422 -0.9396 0.9396 0.3422 -265.5111 334.6114)" class="st1" width="223.9" height="17.6"/>
	
		<rect x="-35.8" y="339.2" transform="matrix(0.3422 -0.9396 0.9396 0.3422 -276.8761 300.5007)" class="st1" width="223.9" height="17.6"/>
</g>
<path class="st0" d="M570.3,222.6c8.1,5.1,16.9,10.5,25.3,15.6l22.1,13.7c0.5,0.3,1,0.7,1.5,1c0.3,0.2,1.3,0.9,1.6,1
	c0.2-0.3,0.4-0.7,0.7-1c0.4-0.7,0.2-0.4,0.7-0.9l9.1-13.2c2.1-3.2,1.4-2.6,3.4-3c12.8-2.1,25.7-4,38.6-6.1c2.5-0.4,5.7-0.9,8.2-1.3
	c1.3-0.2,0.5,0,2-1.3l6.6-6.2l-0.3-5.1c1.7,0,4.3,0.3,5.9,0.1c0.3-3.5,0.3-7.1,0.5-10.6c0.2-3.6,0.3-7.1,0.5-10.6s0.4-7.1,0.5-10.7
	c0.3-7,0.8-14.2,1.1-21.2c0-0.9,0.1-1.9,0.1-2.6c0.2-2.7-0.4-1.6,1.7-3.8c1.1-1.1,7-6.7,7.1-6.9c0.1-0.4-0.4-9.3-0.5-10.6
	c-0.7-0.1-5.7,0.7-6.8,0.8c-0.5,0-1.1,0.1-1.6,0.2c-0.9,0.1-0.9,0-1.3-0.4l-6.1-5.2c-1.9-1.6-4.3-3.6-6.1-5.2
	c-0.8-0.8-0.5-0.4-2.7,0.2c-3.6,1.3-7.4,2.8-11,4.2c-0.9,0.3-1.9,0.7-2.7,1.1l-13.8,5.2c-3.6,1.4-7.3,2.8-11,4.2l-13.8,5.1
	L614.5,168c-1.1,1.4-2.2,2.8-3.4,4.3c-1.2,1.4-2.2,2.8-3.4,4.3c-1.2,1.4-2.3,2.8-3.4,4.2c-2.3,2.8-4.5,5.6-6.8,8.4
	c-2.2,2.6-4.6,5.9-6.8,8.4s-4.6,5.8-6.8,8.4c-2.3,2.8-4.5,5.6-6.8,8.4C576.8,214.3,570.5,222,570.3,222.6L570.3,222.6z M577.6,221.1
	c0.1-0.4,7.8-9.8,8.7-10.9c1.5-1.9,2.8-3.6,4.4-5.5c1.4-1.7,2.8-3.6,4.4-5.4c1.5-1.7,3-3.6,4.4-5.5l8.7-10.8
	c2.1-2.5,22.6-28.2,23-28.3l6.1-1.2c2.6-0.4,5.5-1,8.3-1.5c1.6-0.2,15.6-2.8,16.6-3c-0.1,0.3-1.1,1.4-1.3,1.6l-1.3,1.5
	c-0.4,0.5-0.9,1.1-1.3,1.5l-3.9,4.5l-2.3,3.4c0.2,0.3,10.2,7,10.5,7.2c-0.1,0.2,0,0.1-0.2,0.2c-0.3,0.2-6.3,2.5-6.4,2.5l-7,2.3
	c0,0.4,1,2.2,1.2,2.7c1.7,3.6,1,2,1.9,5.8c0.2,0.8,0,0.9-0.4,1.4l-10.6,14.5c-1.1,1.5-2.2,3-3.3,4.5c-2.7,3.8-1.9,3.2-4.2,3.6
	c-2.2,0.4-4.4,0.8-6.6,1.2l0.9,4.8c0.8,0.1,8.6-1.5,10.5-1.7c0.8-1.4,1.9-2.6,2.7-3.9l2.8-3.9c2-2.6,3.8-5.1,5.7-7.8
	c1.9-2.6,3.8-5.1,5.7-7.8c2.3-3.3,2.2-2.2,1.7-4.5c-0.2-1-0.3-1.9-0.5-2.8c-0.1-0.8-0.5-2.1-0.5-2.8c0.4-0.1,0.9-0.4,1.3-0.4
	l9.1,38.2c0.4,0.1,0.4-0.1,0.9-0.1c0.8,0.1,7.2,0.3,8,0.3c1.5,0,3.1,0.1,4.7,0.2c1.5,0.1,3.2,0,4.6,0.2l0.2,3.5
	c-0.3,0.5-1.1,1.1-1.5,1.5l-2.3,2.1c-1.3,1.1-0.4,0.9-3.2,1.2c-3.3,0.4-6.7,1.2-9.9,1.6c-1.6,0.2-3.4,0.5-5.1,0.8l-20.1,3.2
	c-1.7,0.3-3.4,0.5-5.1,0.8c-0.7,0.1-7.1,1.1-7.4,1.2c-0.2,0.1-3.4,4.8-3.6,5.1l-5.9,8.6c-0.3,0.4-1,1.3-1.1,1.7
	c-0.5-0.1-9.8-6-10.6-6.4C607.4,239.5,578.2,221.4,577.6,221.1L577.6,221.1z M659.1,160.6c0.1-0.3,0-0.2,0.2-0.4l0.8-0.9
	c2.1-2.5,4.7-5.4,6.8-7.9c3.7-4.5,8-9.1,11.7-13.7l2-2.2c0.7-0.8,1-1.3,1.5-1.5c1-0.3,0.9-0.4,1.4,0l8.4,7.2
	c-0.1,0.2-12.1,11.8-12.6,12.2l-3.2,3.1c-1.1,1.1-2.1,2-3.2,3.1l-6.3,6.1c-0.5-0.3-3.1-2.1-3.8-2.6L659.1,160.6L659.1,160.6z
	 M662,174.6c0.4-0.2,7.2-3,7.8-3.2c5-2,10.4-4.3,15.6-6.2c1.4-0.5,6.8-2.8,7.9-3.1l-0.8,15.1l-28.7,4.4L662,174.6L662,174.6z
	 M664.8,186.4l27.3-4.2l-0.7,12.8c-0.4,0.2-10.7,0.9-12.1,1c-2,0.1-4,0.3-6,0.4c-1,0.1-2.1,0.1-3.1,0.2c-0.8,0.1-2.3,0.2-3.1,0.2
	C667.2,196.6,664.9,186.8,664.8,186.4L664.8,186.4z M668.6,201.8l22.6-1.6c0.2,1.3-0.1,3.9-0.2,5.2c-0.1,1.7-0.1,3.6-0.2,5.2
	c-0.3,0.1-19.8-0.5-20.2-0.8C670.2,209.7,668.5,202.2,668.6,201.8L668.6,201.8z M676.3,163.4c0.1-0.3,0.4-0.5,0.8-0.8l16.7-16.2
	c1.7-1.7,1.2-1.6,2.5-1.7c1.5-0.2,5.2-0.8,6.2-0.8c0.1,0.5,0.2,2.1-0.1,2.4l-9.1,8.7l-0.1,1.5c-2.1,1-6.1,2.4-8.5,3.4l-6.3,2.5
	C678.1,162.9,676.9,163.4,676.3,163.4L676.3,163.4z M649.8,146.4L672,138c-0.1,0.3-1.3,1.6-1.7,2.1c-0.5,0.8-1.2,1.3-1.7,2.1
	c-1.1,1.4-1,1.2-2.4,1.4l-13.1,2.3C652.2,145.9,650.4,146.4,649.8,146.4z"/>
<g>
	
		<ellipse transform="matrix(0.7071 -0.7071 0.7071 0.7071 -314.6241 256.0474)" class="st2" cx="151.8" cy="507.8" rx="61.6" ry="61.6"/>
	<rect x="115.7" y="267.9" transform="matrix(0.9777 -0.21 0.21 0.9777 -79.8632 35.3842)" class="st2" width="22" height="251.7"/>
	<polygon class="st2" points="121,261.6 76.3,271.2 73.8,209.7 99.5,204.1 	"/>
	<circle class="st2" cx="112.3" cy="209.9" r="5.6"/>
	<circle class="st2" cx="119.6" cy="228.7" r="5.6"/>
	<circle class="st2" cx="127.5" cy="248.5" r="5.6"/>
	<ellipse class="st2" cx="64" cy="219.7" rx="5.6" ry="5.6"/>
	<ellipse class="st2" cx="65.1" cy="239.8" rx="5.6" ry="5.6"/>
	<ellipse class="st2" cx="66" cy="261" rx="5.6" ry="5.6"/>
</g>
<rect x="801.2" y="200.6" transform="matrix(0.5 -0.866 0.866 0.5 182.4431 828.5996)" class="st0" width="15.2" height="111.3"/>
<rect x="470.1" y="274.9" transform="matrix(0.866 -0.5 0.5 0.866 -70.8096 300.721)" class="st0" width="111.3" height="15.2"/>
<rect x="692.7" y="237.9" transform="matrix(0.8331 -0.5531 0.5531 0.8331 -45.497 436.3264)" class="st0" width="15.2" height="111.3"/>
<rect x="501.9" y="94.4" transform="matrix(0.5 -0.866 0.866 0.5 124.7533 516.2299)" class="st0" width="15.2" height="111.3"/>
<rect x="724" y="146.5" transform="matrix(0.866 -0.5 0.5 0.866 27.4034 410.4716)" class="st0" width="111.3" height="15.2"/>
<polygon class="st0" points="1173.1,238.2 970.3,385 1198.9,487.2 "/>
<path class="st3" d="M1243,303.8c-16.9,0-25.4,5.5-33,10.2c-6.7,4.2-12,7.4-23.5,7.4s-16.9-3.3-23.5-7.4c-7.6-4.8-16.3-10.2-33-10.2
	c-16.8,0-25.4,5.5-33,10.2c-6.7,4.2-12,7.4-23.5,7.4c-11.4,0-16.9-3.3-23.5-7.4c-7.6-4.8-16.3-10.2-33-10.2v14.8
	c11.5,0,16.9,3.3,23.5,7.4c7.6,4.8,16.3,10.2,33,10.2c16.8,0,25.4-5.5,33-10.2c6.7-4.2,12-7.4,23.5-7.4c11.4,0,16.9,3.3,23.5,7.4
	c7.6,4.8,16.3,10.2,33,10.2c16.9,0,25.4-5.5,33-10.2c6.7-4.2,12-7.4,23.5-7.4c11.4,0,16.9,3.3,23.5,7.4c7.6,4.8,16.3,10.2,33,10.2
	v-14.8c-11.5,0-16.9-3.3-23.5-7.4C1268.5,309.3,1259.7,303.8,1243,303.8z"/>
<path class="st3" d="M1243,216.9c-16.9,0-25.4,5.5-33,10.2c-6.7,4.2-12,7.4-23.5,7.4s-16.9-3.3-23.5-7.4c-7.6-4.8-16.3-10.2-33-10.2
	c-16.8,0-25.4,5.5-33,10.2c-6.7,4.2-12,7.4-23.5,7.4c-11.4,0-16.9-3.3-23.5-7.4c-7.6-4.8-16.3-10.2-33-10.2v14.8
	c11.5,0,16.9,3.3,23.5,7.4c7.6,4.8,16.3,10.2,33,10.2c16.8,0,25.4-5.5,33-10.2c6.7-4.2,12-7.4,23.5-7.4c11.4,0,16.9,3.3,23.5,7.4
	c7.6,4.8,16.3,10.2,33,10.2c16.9,0,25.4-5.5,33-10.2c6.7-4.2,12-7.4,23.5-7.4c11.4,0,16.9,3.3,23.5,7.4c7.6,4.8,16.3,10.2,33,10.2
	v-14.8c-11.5,0-16.9-3.3-23.5-7.4C1268.5,222.3,1259.7,216.9,1243,216.9z"/>
<path class="st3" d="M1243,260.3c-16.9,0-25.4,5.5-33,10.2c-6.7,4.2-12,7.4-23.5,7.4s-16.9-3.3-23.5-7.4c-7.6-4.8-16.3-10.2-33-10.2
	c-16.8,0-25.4,5.5-33,10.2c-6.7,4.2-12,7.4-23.5,7.4c-11.4,0-16.9-3.3-23.5-7.4c-7.6-4.8-16.3-10.2-33-10.2v14.8
	c11.5,0,16.9,3.3,23.5,7.4c7.6,4.8,16.3,10.2,33,10.2c16.8,0,25.4-5.5,33-10.2c6.7-4.2,12-7.4,23.5-7.4c11.4,0,16.9,3.3,23.5,7.4
	c7.6,4.8,16.3,10.2,33,10.2c16.9,0,25.4-5.5,33-10.2c6.7-4.2,12-7.4,23.5-7.4c11.4,0,16.9,3.3,23.5,7.4c7.6,4.8,16.3,10.2,33,10.2
	v-14.6c-11.5,0-16.9-3.3-23.5-7.4C1268.5,265.8,1259.7,260.3,1243,260.3z"/>
<path class="st3" d="M1276.1,183.6c-7.6-4.8-16.3-10.2-33.1-10.2c-16.8,0-25.4,5.5-33,10.2c-6.7,4.2-12,7.4-23.5,7.4
	s-16.9-3.3-23.5-7.4c-7.6-4.8-16.3-10.2-33-10.2c-16.8,0-25.4,5.5-33,10.2c-6.7,4.2-12,7.4-23.5,7.4c-11.4,0-16.9-3.3-23.5-7.4
	c-7.7-4.7-16.4-10.2-33-10.2v14.8c11.5,0,16.9,3.3,23.5,7.4c7.6,4.8,16.3,10.2,33,10.2c16.8,0,25.4-5.5,33-10.2
	c6.7-4.2,12-7.4,23.5-7.4s16.9,3.3,23.5,7.4c7.6,4.8,16.3,10.2,33,10.2c16.8,0,25.4-5.5,33-10.2c6.7-4.2,12-7.4,23.5-7.4
	s16.9,3.3,23.5,7.4c7.6,4.8,16.3,10.2,33,10.2v-14.7C1288.1,191.1,1282.7,187.9,1276.1,183.6z"/>
<path class="st3" d="M1276.1,314.1c-7.6-4.8-16.3-10.2-33-10.2c-16.8,0-25.4,5.5-33,10.2c-6.7,4.2-12,7.4-23.5,7.4
	s-16.9-3.3-23.5-7.4c-7.6-4.8-16.3-10.2-33-10.2c-16.8,0-25.4,5.5-33,10.2c-6.7,4.2-12,7.4-23.5,7.4c-11.4,0-16.9-3.3-23.5-7.4
	c-7.6-4.8-16.3-10.2-33-10.2v14.8c11.5,0,16.9,3.3,23.5,7.4c7.6,4.8,16.3,10.2,33,10.2c16.8,0,25.4-5.5,33-10.2
	c6.7-4.2,12-7.4,23.5-7.4c11.4,0,16.9,3.3,23.5,7.4c7.6,4.8,16.3,10.2,33,10.2c16.9,0,25.4-5.5,33-10.2c6.7-4.2,12-7.4,23.5-7.4
	c11.4,0,16.9,3.3,23.5,7.4c7.6,4.8,16.3,10.2,33,10.2v-14.8C1288.1,321.7,1282.7,318.5,1276.1,314.1z"/>
<g>
	<circle class="st2" cx="1176.6" cy="469" r="74"/>
	
		<ellipse transform="matrix(0.4395 -0.8982 0.8982 0.4395 333.6213 1306.2544)" class="st2" cx="1213.5" cy="385.8" rx="7.7" ry="33.6"/>
	<rect x="1131.4" y="377.6" class="st2" width="41.4" height="9.9"/>
	<circle class="st4" cx="1176.6" cy="469" r="24.5"/>
</g>
</svg>
