<?xml version="1.0" encoding="utf-8"?>
<!-- Generator: Adobe Illustrator 23.0.3, SVG Export Plug-In . SVG Version: 6.00 Build 0)  -->
<svg version="1.1" id="Layer_1" xmlns="http://www.w3.org/2000/svg" xmlns:xlink="http://www.w3.org/1999/xlink" x="0px" y="0px"
	 viewBox="0 0 1261.7 455" style="enable-background:new 0 0 1261.7 455;" xml:space="preserve">
<style type="text/css">
	.st0{fill:none;stroke:#000000;stroke-width:8;stroke-miterlimit:10;}
	.st1{fill:none;stroke:#000000;stroke-width:0.75;stroke-miterlimit:10;}
	.st2{fill:none;stroke:#000000;stroke-width:7.4961;stroke-miterlimit:10;}
	.st3{fill:none;stroke:#000000;stroke-miterlimit:10;}
	.st4{fill:none;stroke:#000000;stroke-width:0.5;stroke-miterlimit:10;}
	.st5{fill:none;stroke:#000000;stroke-width:4;stroke-miterlimit:10;}
</style>
<line class="st0" x1="44.4" y1="152.4" x2="190.3" y2="152.4"/>
<line class="st0" x1="45.1" y1="138.5" x2="191" y2="138.5"/>
<line class="st1" x1="356.7" y1="340.2" x2="673.4" y2="340.2"/>
<line class="st1" x1="356.7" y1="349.3" x2="673.4" y2="349.3"/>
<line class="st1" x1="356.7" y1="352.7" x2="673.4" y2="352.7"/>
<line class="st1" x1="356.7" y1="360.3" x2="673.4" y2="360.3"/>
<line class="st1" x1="356.7" y1="364.1" x2="673.4" y2="364.1"/>
<line class="st1" x1="356.7" y1="367.1" x2="673.4" y2="367.1"/>
<line class="st1" x1="356.7" y1="370.1" x2="673.4" y2="370.1"/>
<line class="st1" x1="356.7" y1="376" x2="673.4" y2="376"/>
<line class="st1" x1="356.7" y1="384.9" x2="673.4" y2="384.9"/>
<line class="st2" x1="839.4" y1="148.3" x2="967.5" y2="148.3"/>
<line class="st2" x1="971.9" y1="148.3" x2="1105.6" y2="148.3"/>
<line class="st2" x1="840" y1="138.1" x2="968.1" y2="138.1"/>
<line class="st2" x1="971.6" y1="138.1" x2="1105.3" y2="138.1"/>
<rect x="1121.8" y="130.5" width="45.3" height="37.2"/>
<rect x="1148" y="163.9" width="19" height="58.8"/>
<rect x="1039.3" y="168.1" width="38.1" height="100.7"/>
<rect x="1039.3" y="234.5" width="100.7" height="34.3"/>
<rect x="1144.4" y="234.5" width="10.4" height="34.3"/>
<rect x="195.4" y="170" width="20.2" height="52.7"/>
<rect x="255" y="170" width="53" height="52.7"/>
<rect x="343.9" y="170" width="25.8" height="52.7"/>
<rect x="1090.6" y="311" width="129" height="10.1"/>
<rect x="1090.3" y="334.6" width="129.4" height="10.1"/>
<rect x="1090.3" y="362.3" width="129.4" height="10.1"/>
<rect x="477.8" y="224.1" width="58" height="58"/>
<rect x="391.5" y="226.5" width="70.7" height="52.7"/>
<rect x="551.7" y="176.6" width="32.4" height="69.8"/>
<rect x="675.4" y="182.9" width="136.1" height="13.3"/>
<rect x="675.9" y="205.7" width="135.2" height="14.6"/>
<rect x="609" y="231.1" width="133.4" height="12.1"/>
<rect x="538" y="260.3" width="206.5" height="8.2"/>
<rect x="538" y="290.7" width="206.5" height="7.6"/>
<rect x="44.4" y="168.1" width="50.2" height="48.7"/>
<rect x="76.2" y="220.3" width="48.8" height="27.9"/>
<rect x="107.9" y="257.1" width="50.1" height="30.4"/>
<rect x="76.2" y="243.2" width="24.4" height="67.2"/>
<rect x="107.9" y="282.2" width="25.1" height="65"/>
<rect x="69.5" y="310.4" width="11.1" height="36.8"/>
<rect x="88.4" y="314.7" width="12.2" height="32.5"/>
<rect x="158" y="342.1" width="150.3" height="5.1"/>
<circle class="st3" cx="306.5" cy="313" r="18.4"/>
<circle class="st3" cx="352.1" cy="313" r="18.4"/>
<circle class="st3" cx="393.8" cy="313" r="18.4"/>
<circle class="st3" cx="437.8" cy="313" r="18.4"/>
<circle class="st3" cx="308.3" cy="317.6" r="11"/>
<circle class="st3" cx="352.1" cy="315.4" r="11"/>
<circle class="st3" cx="393.8" cy="315.4" r="11"/>
<circle class="st3" cx="437.8" cy="315.4" r="11"/>
<rect x="400.3" y="169.2" width="8.5" height="32.1"/>
<rect x="412.7" y="169.2" width="8.5" height="32.1"/>
<rect x="425.8" y="169.2" width="8.5" height="32.1"/>
<rect x="438.1" y="169.2" width="8.5" height="32.1"/>
<rect x="452.5" y="169.2" width="8.5" height="32.1"/>
<rect x="467.1" y="169.2" width="8.5" height="32.1"/>
<rect x="479.8" y="169.2" width="8.5" height="32.1"/>
<rect x="492.3" y="169.2" width="8.5" height="32.1"/>
<rect x="504.9" y="169.2" width="8.5" height="32.1"/>
<rect x="519.4" y="169.2" width="8.5" height="32.1"/>
<rect x="1090.5" y="348.8" width="129.4" height="3.7"/>
<circle class="st3" cx="1063" cy="372.6" r="18.4"/>
<circle class="st3" cx="1063" cy="328.6" r="18.4"/>
<circle class="st3" cx="1065.4" cy="372.6" r="11"/>
<circle class="st3" cx="1065.4" cy="328.6" r="11"/>
<rect x="699.1" y="305.8" width="8.5" height="32.1"/>
<rect x="714.5" y="305.8" width="8.5" height="32.1"/>
<rect x="727.6" y="305.8" width="8.5" height="32.1"/>
<rect x="739.9" y="305.8" width="8.5" height="32.1"/>
<rect x="754.3" y="305.8" width="8.5" height="32.1"/>
<rect x="768.9" y="305.8" width="8.5" height="32.1"/>
<rect x="781.6" y="305.8" width="8.5" height="32.1"/>
<rect x="794.1" y="305.8" width="8.5" height="32.1"/>
<rect x="806.7" y="305.8" width="8.5" height="32.1"/>
<rect x="823.2" y="305.8" width="8.5" height="32.1"/>
<circle class="st3" cx="725.2" cy="365.1" r="18.4"/>
<circle class="st3" cx="769.2" cy="365.1" r="18.4"/>
<circle class="st3" cx="725.2" cy="367.5" r="11"/>
<circle class="st3" cx="769.2" cy="367.5" r="11"/>
<ellipse transform="matrix(0.7071 -0.7071 0.7071 0.7071 -13.9197 689.5572)" class="st3" cx="825.4" cy="361.6" rx="18.4" ry="18.4"/>
<circle class="st3" cx="823.7" cy="359.9" r="11"/>
<g>
	<path class="st4" d="M765.8,244.3c18.2,0,28.9-7,47.1-7c17.6,0,26.1,6.7,41.9,7h0.7c18.2,0,28.9-7,47.1-7c17.6,0,26.1,6.7,41.9,7"
		/>
	<path class="st4" d="M765.8,247.8c18.2,0,28.9-7,47.1-7c17.6,0,26.1,6.7,41.9,7h0.7c18.2,0,28.9-7,47.1-7c17.6,0,26.1,6.7,41.9,7"
		/>
	<path class="st4" d="M765.8,251.3c18.2,0,28.9-7,47.1-7c17.6,0,26.1,6.7,41.9,7h0.7c18.2,0,28.9-7,47.1-7c17.6,0,26.1,6.7,41.9,7"
		/>
	<path class="st4" d="M765.8,254.8c18.2,0,28.9-7,47.1-7c17.6,0,26.1,6.7,41.9,7h0.7c18.2,0,28.9-7,47.1-7c17.6,0,26.1,6.7,41.9,7"
		/>
	<path class="st4" d="M765.8,258.5c18.2,0,28.9-7,47.1-7c17.6,0,26.1,6.7,41.9,7h0.7c18.2,0,28.9-7,47.1-7c17.6,0,26.1,6.7,41.9,7"
		/>
	<path class="st4" d="M765.8,262c18.2,0,28.9-7,47.1-7c17.6,0,26.1,6.7,41.9,7h0.7c18.2,0,28.9-7,47.1-7c17.6,0,26.1,6.7,41.9,7"/>
	<path class="st4" d="M765.8,265.5c18.2,0,28.9-7,47.1-7c17.6,0,26.1,6.7,41.9,7h0.7c18.2,0,28.9-7,47.1-7c17.6,0,26.1,6.7,41.9,7"
		/>
	<path class="st4" d="M765.8,268.8c18.2,0,28.9-7,47.1-7c17.6,0,26.1,6.7,41.9,7h0.7c18.2,0,28.9-7,47.1-7c17.6,0,26.1,6.7,41.9,7"
		/>
	<path class="st4" d="M765.8,272.5c18.2,0,28.9-7,47.1-7c17.6,0,26.1,6.7,41.9,7h0.7c18.2,0,28.9-7,47.1-7c17.6,0,26.1,6.7,41.9,7"
		/>
	<path class="st4" d="M765.8,276c18.2,0,28.9-7,47.1-7c17.6,0,26.1,6.7,41.9,7h0.7c18.2,0,28.9-7,47.1-7c17.6,0,26.1,6.7,41.9,7"/>
	<path class="st4" d="M765.8,279.5c18.2,0,28.9-7,47.1-7c17.6,0,26.1,6.7,41.9,7h0.7c18.2,0,28.9-7,47.1-7c17.6,0,26.1,6.7,41.9,7"
		/>
</g>
<circle class="st5" cx="889.2" cy="175.1" r="7.6"/>
<circle class="st5" cx="910.7" cy="175.1" r="7.6"/>
<circle class="st5" cx="932.7" cy="175.1" r="7.6"/>
<circle class="st5" cx="888.9" cy="196.2" r="7.6"/>
<circle class="st5" cx="910.4" cy="196.2" r="7.6"/>
<circle class="st5" cx="932.4" cy="196.2" r="7.6"/>
<circle class="st5" cx="888.7" cy="217.3" r="7.6"/>
<circle class="st5" cx="910.2" cy="217.3" r="7.6"/>
<circle class="st5" cx="932.2" cy="217.3" r="7.6"/>
<circle class="st5" cx="277.1" cy="367.5" r="7.6"/>
<circle class="st5" cx="298.6" cy="367.5" r="7.6"/>
<circle class="st5" cx="320.6" cy="367.5" r="7.6"/>
<ellipse transform="matrix(0.4473 -0.8944 0.8944 0.4473 -211.3609 392.9429)" class="st5" cx="212.2" cy="367.5" rx="7.6" ry="7.6"/>
<ellipse transform="matrix(0.4473 -0.8944 0.8944 0.4473 -199.4895 412.2331)" class="st5" cx="233.8" cy="367.5" rx="7.6" ry="7.6"/>
<circle class="st5" cx="255.8" cy="367.5" r="7.6"/>
<circle class="st3" cx="1196.3" cy="152.1" r="18.4"/>
<circle class="st3" cx="1196.3" cy="197.7" r="18.4"/>
<circle class="st3" cx="1196.3" cy="239.3" r="18.4"/>
<circle class="st3" cx="1196.3" cy="283.3" r="18.4"/>
<circle class="st3" cx="1191.7" cy="153.9" r="11"/>
<circle class="st3" cx="1193.9" cy="197.7" r="11"/>
<circle class="st3" cx="1193.9" cy="239.3" r="11"/>
<circle class="st3" cx="1193.9" cy="283.3" r="11"/>
<g>
	<line class="st1" x1="1021.7" y1="168.3" x2="1021.7" y2="383.6"/>
	<line class="st1" x1="1015.8" y1="168.3" x2="1015.8" y2="383.6"/>
	<line class="st1" x1="1009.7" y1="168.3" x2="1009.7" y2="383.6"/>
	<line class="st1" x1="1006.7" y1="168.3" x2="1006.7" y2="383.6"/>
	<line class="st1" x1="997.7" y1="168.3" x2="997.7" y2="383.6"/>
	<line class="st1" x1="994.2" y1="168.3" x2="994.2" y2="383.6"/>
	<line class="st1" x1="986.6" y1="168.3" x2="986.6" y2="383.6"/>
	<line class="st1" x1="982.8" y1="168.3" x2="982.8" y2="383.6"/>
	<line class="st1" x1="979.8" y1="168.3" x2="979.8" y2="383.6"/>
	<line class="st1" x1="976.9" y1="168.3" x2="976.9" y2="383.6"/>
	<line class="st1" x1="971" y1="168.3" x2="971" y2="383.6"/>
	<line class="st1" x1="962.1" y1="168.3" x2="962.1" y2="383.6"/>
</g>
<g>
	<path class="st4" d="M187.7,246.2c18.2,0,28.9-7,47.1-7c17.6,0,26.1,6.7,41.9,7h0.7c18.2,0,28.9-7,47.1-7c17.6,0,26.1,6.7,41.9,7"
		/>
	<path class="st4" d="M187.7,249.7c18.2,0,28.9-7,47.1-7c17.6,0,26.1,6.7,41.9,7h0.7c18.2,0,28.9-7,47.1-7c17.6,0,26.1,6.7,41.9,7"
		/>
	<path class="st4" d="M187.7,253.2c18.2,0,28.9-7,47.1-7c17.6,0,26.1,6.7,41.9,7h0.7c18.2,0,28.9-7,47.1-7c17.6,0,26.1,6.7,41.9,7"
		/>
	<path class="st4" d="M187.7,256.7c18.2,0,28.9-7,47.1-7c17.6,0,26.1,6.7,41.9,7h0.7c18.2,0,28.9-7,47.1-7c17.6,0,26.1,6.7,41.9,7"
		/>
	<path class="st4" d="M187.7,260.4c18.2,0,28.9-7,47.1-7c17.6,0,26.1,6.7,41.9,7h0.7c18.2,0,28.9-7,47.1-7c17.6,0,26.1,6.7,41.9,7"
		/>
	<path class="st4" d="M187.7,263.9c18.2,0,28.9-7,47.1-7c17.6,0,26.1,6.7,41.9,7h0.7c18.2,0,28.9-7,47.1-7c17.6,0,26.1,6.7,41.9,7"
		/>
	<path class="st4" d="M187.7,267.4c18.2,0,28.9-7,47.1-7c17.6,0,26.1,6.7,41.9,7h0.7c18.2,0,28.9-7,47.1-7c17.6,0,26.1,6.7,41.9,7"
		/>
	<path class="st4" d="M187.7,270.7c18.2,0,28.9-7,47.1-7c17.6,0,26.1,6.7,41.9,7h0.7c18.2,0,28.9-7,47.1-7c17.6,0,26.1,6.7,41.9,7"
		/>
	<path class="st4" d="M187.7,274.4c18.2,0,28.9-7,47.1-7c17.6,0,26.1,6.7,41.9,7h0.7c18.2,0,28.9-7,47.1-7c17.6,0,26.1,6.7,41.9,7"
		/>
	<path class="st4" d="M187.7,277.9c18.2,0,28.9-7,47.1-7c17.6,0,26.1,6.7,41.9,7h0.7c18.2,0,28.9-7,47.1-7c17.6,0,26.1,6.7,41.9,7"
		/>
	<path class="st4" d="M187.7,281.4c18.2,0,28.9-7,47.1-7c17.6,0,26.1,6.7,41.9,7h0.7c18.2,0,28.9-7,47.1-7c17.6,0,26.1,6.7,41.9,7"
		/>
</g>
<rect x="363.1" y="110.7" width="83.5" height="36.2"/>
<rect x="446.6" y="129.5" width="77.1" height="25.6"/>
<rect x="208.7" y="121.4" width="8.5" height="32.1"/>
<rect x="224.1" y="121.4" width="8.5" height="32.1"/>
<rect x="237.2" y="121.4" width="8.5" height="32.1"/>
<rect x="249.5" y="121.4" width="8.5" height="32.1"/>
<rect x="263.9" y="121.4" width="8.5" height="32.1"/>
<rect x="278.5" y="121.4" width="8.5" height="32.1"/>
<rect x="291.2" y="121.4" width="8.5" height="32.1"/>
<rect x="303.7" y="121.4" width="8.5" height="32.1"/>
<rect x="316.3" y="121.4" width="8.5" height="32.1"/>
<rect x="332.8" y="121.4" width="8.5" height="32.1"/>
<rect x="600.1" y="175.1" width="32.4" height="45"/>
<rect x="864.6" y="301.7" width="17" height="81.9"/>
<rect x="888.7" y="301.7" width="55.8" height="45"/>
<rect x="913.8" y="354.2" width="30.7" height="30.7"/>
<circle class="st5" cx="724.7" cy="131.5" r="7.6"/>
<circle class="st5" cx="746.2" cy="131.5" r="7.6"/>
<circle class="st5" cx="768.2" cy="131.5" r="7.6"/>
<circle class="st5" cx="724.5" cy="152.6" r="7.6"/>
<circle class="st5" cx="746" cy="152.6" r="7.6"/>
<circle class="st5" cx="768" cy="152.6" r="7.6"/>
<ellipse class="st5" cx="660" cy="131.6" rx="7.6" ry="7.6"/>
<ellipse transform="matrix(0.4473 -0.8944 0.8944 0.4473 259.0499 682.2736)" class="st5" cx="681.5" cy="131.5" rx="7.6" ry="7.6"/>
<circle class="st5" cx="703.5" cy="131.5" r="7.6"/>
<ellipse transform="matrix(0.4473 -0.8944 0.8944 0.4473 228.1234 674.3773)" class="st5" cx="659.7" cy="152.6" rx="7.6" ry="7.6"/>
<ellipse transform="matrix(0.4473 -0.8944 0.8944 0.4473 240.0108 693.6677)" class="st5" cx="681.2" cy="152.6" rx="7.6" ry="7.6"/>
<circle class="st5" cx="703.2" cy="152.6" r="7.6"/>
</svg>
