<?xml version="1.0" encoding="utf-8"?>
<!-- Generator: Adobe Illustrator 23.0.3, SVG Export Plug-In . SVG Version: 6.00 Build 0)  -->
<svg version="1.1" id="Layer_1" xmlns="http://www.w3.org/2000/svg" xmlns:xlink="http://www.w3.org/1999/xlink" x="0px" y="0px"
	 viewBox="0 0 1300 743.5" style="enable-background:new 0 0 1300 743.5;" xml:space="preserve">
<style type="text/css">
	.st0{fill:none;stroke:#000000;stroke-width:8;stroke-miterlimit:10;}
	.st1{fill:none;}
	.st2{fill:none;stroke:#000000;stroke-width:0.75;stroke-miterlimit:10;}
	.st3{fill:none;stroke:#000000;stroke-width:7.4961;stroke-miterlimit:10;}
	.st4{fill:none;stroke:#000000;stroke-miterlimit:10;}
	.st5{fill:none;stroke:#000000;stroke-width:0.4882;stroke-miterlimit:10;}
	.st6{fill:none;stroke:#000000;stroke-width:0.6072;stroke-miterlimit:10;}
	.st7{fill:#D68B09;}
	.st8{fill:none;stroke:#000000;stroke-width:0.7796;stroke-miterlimit:10;}
	.st9{enable-background:new    ;}
	.st10{fill:none;stroke:#020203;stroke-width:4.4031;stroke-miterlimit:10;}
	.st11{fill:#020203;}
	.st12{fill:none;stroke:#020203;stroke-width:3.4149;stroke-miterlimit:10;}
	.st13{fill:none;stroke:#000000;stroke-width:4;stroke-miterlimit:10;}
</style>
<rect x="416.5" y="581.7" transform="matrix(0.5736 -0.8192 0.8192 0.5736 -293.7101 625.9785)" width="75.8" height="26.8"/>
<line class="st0" x1="63.3" y1="115.4" x2="209.2" y2="115.4"/>
<line class="st1" x1="226.4" y1="-139.6" x2="397.6" y2="-139.6"/>
<line class="st0" x1="214.2" y1="115.4" x2="366.5" y2="115.4"/>
<line class="st1" x1="259.4" y1="-125.6" x2="416.7" y2="-126.9"/>
<line class="st0" x1="64" y1="101.5" x2="209.9" y2="101.5"/>
<line class="st1" x1="269.5" y1="-72.3" x2="387.5" y2="-71.1"/>
<line class="st0" x1="213.9" y1="101.5" x2="366.1" y2="101.5"/>
<line class="st2" x1="397.6" y1="59.6" x2="827.7" y2="59.6"/>
<line class="st2" x1="397.6" y1="65.5" x2="827.7" y2="65.5"/>
<line class="st2" x1="397.6" y1="71.6" x2="827.7" y2="71.6"/>
<line class="st2" x1="397.6" y1="74.6" x2="827.7" y2="74.6"/>
<line class="st2" x1="397.6" y1="83.7" x2="827.7" y2="83.7"/>
<line class="st2" x1="397.6" y1="87.1" x2="827.7" y2="87.1"/>
<line class="st2" x1="397.6" y1="94.7" x2="827.7" y2="94.7"/>
<line class="st2" x1="397.6" y1="98.5" x2="827.7" y2="98.5"/>
<line class="st2" x1="397.6" y1="101.5" x2="827.7" y2="101.5"/>
<line class="st2" x1="397.6" y1="104.5" x2="827.7" y2="104.5"/>
<line class="st2" x1="397.6" y1="110.4" x2="827.7" y2="110.4"/>
<line class="st2" x1="397.6" y1="119.3" x2="827.7" y2="119.3"/>
<line class="st3" x1="858.3" y1="111.3" x2="986.4" y2="111.3"/>
<line class="st3" x1="990.8" y1="111.3" x2="1124.5" y2="111.3"/>
<line class="st3" x1="858.9" y1="101.1" x2="987" y2="101.1"/>
<line class="st3" x1="990.5" y1="101.1" x2="1124.2" y2="101.1"/>
<rect x="1140.7" y="93.5" width="45.3" height="37.2"/>
<rect x="1166.9" y="126.9" width="19" height="58.8"/>
<rect x="1058.2" y="131.1" width="38.1" height="100.7"/>
<rect x="1058.2" y="197.5" width="100.7" height="34.3"/>
<rect x="1163.3" y="197.5" width="10.4" height="34.3"/>
<rect x="980" y="131.1" width="7.6" height="208.9"/>
<rect x="1002.4" y="131.1" width="19.9" height="208.9"/>
<rect x="1035.8" y="131.1" width="9.7" height="208.9"/>
<rect x="1109.5" y="274" width="129" height="10.1"/>
<rect x="1109.2" y="297.6" width="129.4" height="10.1"/>
<rect x="1109.2" y="325.3" width="129.4" height="10.1"/>
<rect x="1109.5" y="348" width="129" height="10.1"/>
<rect x="1109.5" y="372.5" width="129" height="10.1"/>
<rect x="1109.5" y="397" width="129" height="10.1"/>
<rect x="1109.5" y="419.9" width="129" height="10.1"/>
<rect x="1109.5" y="446.9" width="129" height="10.1"/>
<rect x="1109.5" y="473.9" width="129" height="10.1"/>
<rect x="1109.5" y="496" width="129" height="10.1"/>
<rect x="1109.5" y="522.2" width="129" height="10.1"/>
<rect x="1109.5" y="545.4" width="129" height="10.1"/>
<rect x="1109.5" y="568.7" width="129" height="10.1"/>
<rect x="1109.5" y="592" width="129" height="10.1"/>
<rect x="1109.5" y="615.2" width="129" height="10.1"/>
<rect x="1038.4" y="537.5" width="63" height="194.1"/>
<rect x="1081.9" y="639.4" width="45.7" height="92.2"/>
<rect x="1120.4" y="667.3" width="125.2" height="64.3"/>
<rect x="496.7" y="187.1" width="58" height="58"/>
<rect x="552.8" y="153.5" width="70.7" height="52.7"/>
<rect x="622.5" y="136.4" width="69.8" height="32.4"/>
<rect x="694.3" y="145.9" width="136.1" height="13.3"/>
<rect x="699.8" y="168.7" width="135.2" height="14.6"/>
<rect x="627.9" y="194.1" width="133.4" height="12.1"/>
<rect x="556.9" y="223.3" width="206.5" height="8.2"/>
<rect x="556.9" y="253.7" width="206.5" height="7.6"/>
<rect x="63.3" y="126.5" width="50.2" height="8.9"/>
<rect x="95.1" y="183.3" width="48.8" height="27.9"/>
<rect x="126.8" y="220.1" width="50.1" height="30.4"/>
<rect x="151.8" y="167.7" width="92.3" height="37.4"/>
<rect x="188.9" y="134.5" width="130" height="34.3"/>
<rect x="95.1" y="206.2" width="24.4" height="67.2"/>
<rect x="126.8" y="245.2" width="25.1" height="65"/>
<rect x="88.4" y="273.4" width="11.1" height="36.8"/>
<rect x="107.3" y="277.7" width="12.2" height="32.5"/>
<rect x="88.4" y="315.3" width="66.3" height="52"/>
<rect x="176.9" y="305.1" width="150.3" height="5.1"/>
<rect x="322.2" y="134.5" width="91.3" height="34.3"/>
<rect x="358.3" y="167.7" width="128.8" height="37.4"/>
<circle class="st4" cx="216.4" cy="253.8" r="18.4"/>
<circle class="st4" cx="262" cy="253.8" r="18.4"/>
<circle class="st4" cx="303.7" cy="253.8" r="18.4"/>
<circle class="st4" cx="347.7" cy="253.8" r="18.4"/>
<circle class="st4" cx="218.2" cy="258.4" r="11"/>
<circle class="st4" cx="262" cy="256.2" r="11"/>
<circle class="st4" cx="303.7" cy="256.2" r="11"/>
<circle class="st4" cx="347.7" cy="256.2" r="11"/>
<rect x="419.2" y="132.2" width="8.5" height="32.1"/>
<rect x="431.6" y="132.2" width="8.5" height="32.1"/>
<rect x="444.7" y="132.2" width="8.5" height="32.1"/>
<rect x="457" y="132.2" width="8.5" height="32.1"/>
<rect x="471.4" y="132.2" width="8.5" height="32.1"/>
<rect x="486" y="132.2" width="8.5" height="32.1"/>
<rect x="498.7" y="132.2" width="8.5" height="32.1"/>
<rect x="511.2" y="132.2" width="8.5" height="32.1"/>
<rect x="523.8" y="132.2" width="8.5" height="32.1"/>
<rect x="538.3" y="132.2" width="8.5" height="32.1"/>
<circle class="st4" cx="107.3" cy="390.8" r="18.4"/>
<circle class="st4" cx="107.3" cy="436.4" r="18.4"/>
<circle class="st4" cx="107.3" cy="478.1" r="18.4"/>
<circle class="st4" cx="107.3" cy="522.1" r="18.4"/>
<circle class="st4" cx="102.6" cy="392.6" r="11"/>
<circle class="st4" cx="104.9" cy="436.4" r="11"/>
<circle class="st4" cx="103.9" cy="479.1" r="11"/>
<circle class="st4" cx="104.9" cy="522.1" r="11"/>
<rect x="74.1" y="544.6" width="75.2" height="57.1"/>
<rect x="74.1" y="607.7" width="58.4" height="52.7"/>
<rect x="155.8" y="597" width="174.4" height="15.1"/>
<rect x="143.4" y="630.1" width="151" height="7.9"/>
<rect x="78.6" y="673.7" width="74.2" height="6.3"/>
<line class="st5" x1="168.2" y1="537.4" x2="168.2" y2="355.2"/>
<line class="st5" x1="174.1" y1="537.4" x2="174.1" y2="355.2"/>
<line class="st5" x1="180.1" y1="536.8" x2="180.1" y2="354.5"/>
<line class="st5" x1="183.1" y1="536.8" x2="183.1" y2="354.5"/>
<line class="st5" x1="192.2" y1="536.8" x2="192.2" y2="354.5"/>
<line class="st5" x1="195.7" y1="536.8" x2="195.7" y2="354.5"/>
<line class="st5" x1="203.3" y1="536.8" x2="203.3" y2="354.5"/>
<line class="st5" x1="207.1" y1="536.8" x2="207.1" y2="354.5"/>
<line class="st5" x1="210" y1="537.4" x2="210" y2="355.2"/>
<line class="st5" x1="213" y1="536.1" x2="213" y2="353.8"/>
<line class="st5" x1="218.9" y1="536.8" x2="218.9" y2="354.5"/>
<line class="st5" x1="227.8" y1="536.1" x2="227.8" y2="353.8"/>
<line class="st6" x1="378.2" y1="272.9" x2="660.1" y2="272.9"/>
<line class="st6" x1="378.2" y1="278.8" x2="660.1" y2="278.8"/>
<line class="st6" x1="378.2" y1="284.9" x2="660.1" y2="284.9"/>
<line class="st6" x1="378.2" y1="287.9" x2="660.1" y2="287.9"/>
<line class="st6" x1="378.2" y1="296.9" x2="660.1" y2="296.9"/>
<line class="st6" x1="378.2" y1="300.4" x2="660.1" y2="300.4"/>
<line class="st6" x1="378.2" y1="308" x2="660.1" y2="308"/>
<line class="st6" x1="378.2" y1="311.8" x2="660.1" y2="311.8"/>
<line class="st6" x1="378.2" y1="314.8" x2="660.1" y2="314.8"/>
<line class="st6" x1="378.2" y1="317.7" x2="660.1" y2="317.7"/>
<line class="st6" x1="378.2" y1="323.6" x2="660.1" y2="323.6"/>
<line class="st6" x1="378.2" y1="332.5" x2="660.1" y2="332.5"/>
<rect x="1109.4" y="311.8" width="129.4" height="3.7"/>
<rect x="176.9" y="652.7" width="438" height="6.3"/>
<g>
	<circle cx="414.9" cy="297.6" r="51.3"/>
	<ellipse transform="matrix(0.4395 -0.8982 0.8982 0.4395 31.4689 530.197)" cx="440.6" cy="239.9" rx="5.3" ry="23.3"/>
	<rect x="383.5" y="234.1" width="28.7" height="6.9"/>
	<circle class="st7" cx="414.9" cy="297.6" r="17"/>
</g>
<line class="st8" x1="634.9" y1="591.4" x2="938.4" y2="591.4"/>
<line class="st8" x1="634.9" y1="603" x2="938.4" y2="603"/>
<line class="st8" x1="634.9" y1="608.8" x2="938.4" y2="608.8"/>
<line class="st8" x1="634.9" y1="613.4" x2="938.4" y2="613.4"/>
<line class="st8" x1="634.9" y1="617.9" x2="938.4" y2="617.9"/>
<line class="st8" x1="634.9" y1="627" x2="938.4" y2="627"/>
<line class="st8" x1="634.9" y1="640.5" x2="938.4" y2="640.5"/>
<g class="st9">
	<path d="M77.4,369.4v-7.8h5.4v18.7l-13-8.7v7.5h-5.4v-18.4L77.4,369.4z"/>
	<path d="M53,351.2h13.2c-1.6-1.5-2.4-3.5-2.4-5.8c0-1.4,0.3-2.6,0.8-3.8c0.5-1.1,1.2-2.1,2.1-2.9s1.9-1.4,3.1-1.9s2.5-0.7,3.8-0.7
		c1.4,0,2.7,0.2,3.9,0.7c1.2,0.5,2.2,1.1,3.1,2c0.9,0.8,1.6,1.8,2.1,3c0.5,1.1,0.8,2.4,0.8,3.7c0,2.4-0.9,4.3-2.6,5.7H83v6.5H53
		V351.2z M73.7,343c-0.6,0-1.1,0.1-1.6,0.3c-0.5,0.2-1,0.5-1.3,0.9c-0.4,0.4-0.7,0.8-0.9,1.3c-0.2,0.5-0.3,1.1-0.3,1.7
		s0.1,1.1,0.3,1.6c0.2,0.5,0.5,0.9,0.9,1.3s0.8,0.7,1.4,0.9c0.5,0.2,1.1,0.3,1.6,0.3s1.1-0.1,1.6-0.3c0.5-0.2,0.9-0.5,1.3-0.9
		s0.7-0.8,0.9-1.4c0.2-0.5,0.3-1.1,0.3-1.6c0-0.6-0.1-1.1-0.3-1.6s-0.5-0.9-0.9-1.3s-0.8-0.7-1.3-0.9S74.2,343,73.7,343z"/>
	<path d="M64.4,325.9h10.4c2.3,0,3.4-1.1,3.4-3.3c0-2.2-1.1-3.3-3.4-3.3H64.4v-6.5H76c2.5,0,4.4,0.8,5.6,2.5
		c1.2,1.6,1.9,4.1,1.9,7.4s-0.6,5.7-1.9,7.4c-1.2,1.6-3.1,2.5-5.6,2.5H64.4V325.9z"/>
	<path d="M64.4,308.4v-6.5h2.3c-1.1-0.9-1.8-1.8-2.2-2.7c-0.4-0.9-0.6-2-0.6-3.2c0-1.3,0.2-2.4,0.6-3.3s1-1.7,1.8-2.4
		c0.6-0.5,1.3-0.9,2.1-1.1c0.8-0.2,1.6-0.3,2.6-0.3h11.7v6.5h-9.3c-0.9,0-1.6,0.1-2.2,0.2s-1,0.4-1.3,0.7c-0.3,0.3-0.5,0.6-0.6,1
		s-0.2,0.7-0.2,1.2c0,1.1,0.3,2,1,2.5c0.7,0.6,1.6,0.9,2.8,0.9h9.9v6.5L64.4,308.4L64.4,308.4z"/>
	<path d="M69.8,277.2h13v6.5h-13v2.2h-5.4v-2.2h-5.5v-6.5h5.5v-3.7h5.4V277.2z"/>
	<path d="M73.4,271.4c-1.4,0-2.6-0.3-3.8-0.8c-1.2-0.6-2.2-1.3-3.1-2.3s-1.6-2.2-2.1-3.5c-0.5-1.4-0.8-2.8-0.8-4.4s0.2-3.1,0.7-4.4
		c0.5-1.4,1.2-2.5,2.1-3.5s1.9-1.8,3.1-2.3c1.2-0.6,2.6-0.8,4-0.8s2.8,0.3,4,0.8s2.3,1.3,3.1,2.3c0.9,1,1.6,2.2,2,3.5
		c0.5,1.4,0.7,2.9,0.7,4.5s-0.2,3-0.7,4.4c-0.5,1.3-1.2,2.5-2.1,3.5s-2,1.7-3.2,2.3C76.3,271.1,75,271.4,73.4,271.4z M73.5,264.5
		c0.6,0,1.2-0.1,1.7-0.3c0.5-0.2,1-0.5,1.4-0.9s0.7-0.8,0.9-1.3s0.3-1.1,0.3-1.6c0-0.6-0.1-1.1-0.3-1.6s-0.5-1-0.9-1.3
		s-0.8-0.7-1.4-0.9c-0.5-0.2-1.1-0.3-1.7-0.3s-1.1,0.1-1.6,0.3c-0.5,0.2-1,0.5-1.4,0.9s-0.7,0.8-0.9,1.3s-0.3,1.1-0.3,1.6
		c0,0.6,0.1,1.1,0.3,1.6s0.5,1,0.9,1.3c0.4,0.4,0.8,0.7,1.3,0.9C72.4,264.4,72.9,264.5,73.5,264.5z"/>
	<path d="M64.4,241.4l9.7-4.4l-9.7-4.6v-4.1l10-4.6l-10-4.6v-7.2l18.5,9.6v4.4l-10.1,4.6l10.1,4.4v4.4l-18.5,9.5V241.4z"/>
	<path d="M64.4,196.2v-6.6h18.5v6.6h-2.1c1.8,1.4,2.6,3.3,2.6,5.7c0,1.3-0.2,2.6-0.7,3.7c-0.5,1.1-1.2,2.1-2.1,3
		c-0.9,0.8-1.9,1.5-3.1,2s-2.5,0.7-3.9,0.7c-1.3,0-2.6-0.2-3.8-0.7c-1.2-0.5-2.2-1.1-3.1-1.9c-0.9-0.8-1.6-1.8-2.1-2.9
		c-0.5-1.1-0.8-2.4-0.8-3.7c0-2.3,0.8-4.2,2.4-5.7h-1.8V196.2z M73.6,204.4c0.6,0,1.2-0.1,1.7-0.3s1-0.5,1.4-0.9s0.7-0.8,0.9-1.3
		s0.3-1.1,0.3-1.7c0-0.6-0.1-1.1-0.3-1.6s-0.5-1-0.9-1.3s-0.8-0.7-1.3-0.9s-1-0.3-1.6-0.3s-1.1,0.1-1.6,0.3s-1,0.5-1.4,0.9
		s-0.7,0.8-0.9,1.3c-0.2,0.5-0.3,1.1-0.3,1.6c0,0.6,0.1,1.2,0.3,1.7c0.2,0.5,0.5,1,0.9,1.3c0.4,0.4,0.8,0.7,1.3,0.9
		S73,204.4,73.6,204.4z"/>
	<path d="M64.4,185.2v-6.5h2.3c-1.1-0.9-1.8-1.8-2.2-2.7c-0.4-0.9-0.6-2-0.6-3.2c0-1.3,0.2-2.4,0.6-3.3c0.4-0.9,1-1.7,1.8-2.4
		c0.6-0.5,1.3-0.9,2.1-1.1c0.8-0.2,1.6-0.3,2.6-0.3h11.7v6.5h-9.3c-0.9,0-1.6,0.1-2.2,0.2c-0.6,0.1-1,0.4-1.3,0.7s-0.5,0.6-0.6,1
		s-0.2,0.7-0.2,1.2c0,1.1,0.3,2,1,2.5c0.7,0.6,1.6,0.9,2.8,0.9h9.9v6.5L64.4,185.2L64.4,185.2z"/>
	<path d="M64.4,147v-6.6h18.5v6.6h-2.1c1.8,1.4,2.6,3.3,2.6,5.7c0,1.3-0.2,2.6-0.7,3.7c-0.5,1.1-1.2,2.1-2.1,3
		c-0.9,0.8-1.9,1.5-3.1,2s-2.5,0.7-3.9,0.7c-1.3,0-2.6-0.2-3.8-0.7c-1.2-0.5-2.2-1.1-3.1-1.9c-0.9-0.8-1.6-1.8-2.1-2.9
		c-0.5-1.1-0.8-2.4-0.8-3.7c0-2.3,0.8-4.2,2.4-5.7h-1.8V147z M73.6,155.3c0.6,0,1.2-0.1,1.7-0.3s1-0.5,1.4-0.9s0.7-0.8,0.9-1.3
		s0.3-1.1,0.3-1.7c0-0.6-0.1-1.1-0.3-1.6s-0.5-1-0.9-1.3s-0.8-0.7-1.3-0.9s-1-0.3-1.6-0.3s-1.1,0.1-1.6,0.3s-1,0.5-1.4,0.9
		s-0.7,0.8-0.9,1.3c-0.2,0.5-0.3,1.1-0.3,1.6c0,0.6,0.1,1.2,0.3,1.7c0.2,0.5,0.5,1,0.9,1.3c0.4,0.4,0.8,0.7,1.3,0.9
		S73,155.3,73.6,155.3z"/>
</g>
<g class="st9">
	<path d="M157.2,578.5c0-1.4,0.3-2.6,0.8-3.8c0.6-1.2,1.3-2.2,2.3-3.1c1-0.9,2.2-1.6,3.5-2.1c1.4-0.5,2.8-0.8,4.4-0.8
		c1.6,0,3.1,0.2,4.4,0.7c1.4,0.5,2.5,1.2,3.5,2.1c1,0.9,1.8,1.9,2.3,3.1c0.6,1.2,0.8,2.6,0.8,4s-0.3,2.8-0.8,4s-1.3,2.3-2.3,3.1
		c-1,0.9-2.2,1.6-3.5,2c-1.4,0.5-2.9,0.7-4.5,0.7s-3-0.2-4.4-0.7c-1.3-0.5-2.5-1.2-3.5-2.1s-1.7-2-2.3-3.2
		C157.5,581.4,157.2,580,157.2,578.5z M164.1,578.6c0,0.6,0.1,1.2,0.3,1.7s0.5,1,0.9,1.4s0.8,0.7,1.3,0.9s1.1,0.3,1.6,0.3
		c0.6,0,1.1-0.1,1.6-0.3s1-0.5,1.3-0.9s0.7-0.8,0.9-1.4c0.2-0.5,0.3-1.1,0.3-1.7c0-0.6-0.1-1.1-0.3-1.6s-0.5-1-0.9-1.4
		s-0.8-0.7-1.3-0.9s-1.1-0.3-1.6-0.3c-0.6,0-1.1,0.1-1.6,0.3s-1,0.5-1.3,0.9c-0.4,0.4-0.7,0.8-0.9,1.3
		C164.2,577.5,164.1,578,164.1,578.6z"/>
	<path d="M183.1,569.5h6.5v3c0.7-1.1,1.5-1.9,2.6-2.5c1-0.6,2.2-0.9,3.5-0.9c0.2,0,0.4,0,0.6,0c0.2,0,0.4,0,0.7,0.1v6.2
		c-0.9-0.4-1.8-0.6-2.8-0.6c-1.5,0-2.6,0.5-3.4,1.3c-0.8,0.9-1.1,2.2-1.1,3.9v7.9h-6.5v-18.4H183.1z"/>
	<path d="M206.4,558v18.1l6.8-6.7h8.9l-9.3,8.5l9.8,9.9h-9.1l-7.2-7.5v7.5h-6.5V558H206.4z"/>
	<path d="M224.6,562.4c0-0.5,0.1-1,0.3-1.4s0.5-0.8,0.8-1.2c0.3-0.3,0.7-0.6,1.2-0.8c0.4-0.2,0.9-0.3,1.4-0.3s1,0.1,1.4,0.3
		s0.8,0.5,1.2,0.8c0.3,0.3,0.6,0.7,0.8,1.2c0.2,0.4,0.3,0.9,0.3,1.4s-0.1,1-0.3,1.4s-0.5,0.8-0.8,1.2c-0.3,0.3-0.7,0.6-1.2,0.8
		c-0.4,0.2-0.9,0.3-1.4,0.3s-1-0.1-1.4-0.3s-0.8-0.5-1.2-0.8c-0.3-0.3-0.6-0.7-0.8-1.2C224.7,563.3,224.6,562.9,224.6,562.4z
		 M231.5,569.5V588H225v-18.5H231.5z"/>
	<path d="M241.9,579.8c0,2.8,1.3,4.2,4,4.2c1.4,0,2.5-0.6,3.2-1.7h6.3c-1.3,4.2-4.5,6.3-9.5,6.3c-1.6,0-3-0.2-4.3-0.7
		s-2.4-1.1-3.3-2c-0.9-0.9-1.6-1.9-2.1-3.1c-0.5-1.2-0.8-2.5-0.8-4s0.2-2.9,0.7-4.2c0.5-1.2,1.2-2.3,2.1-3.2c0.9-0.9,2-1.5,3.2-2
		c1.3-0.5,2.7-0.7,4.3-0.7s3,0.2,4.2,0.7s2.3,1.1,3.2,2s1.5,2,2,3.3s0.7,2.7,0.7,4.3v0.7h-13.9V579.8z M249.5,576
		c-0.2-0.9-0.7-1.6-1.3-2.2c-0.7-0.6-1.5-0.8-2.4-0.8c-1,0-1.8,0.3-2.5,0.8c-0.6,0.5-1,1.3-1.2,2.2H249.5z"/>
	<path d="M271.5,574.2c-1.2-0.6-2.4-0.9-3.5-0.9c-0.6,0-1.1,0.1-1.5,0.4c-0.4,0.2-0.6,0.6-0.6,1c0,0.2,0,0.4,0.1,0.5
		s0.2,0.3,0.4,0.4c0.2,0.1,0.5,0.2,0.9,0.3s0.9,0.2,1.6,0.4c1.8,0.4,3.1,1,4,1.9s1.3,2.1,1.3,3.5c0,1.1-0.2,2.1-0.6,2.9
		c-0.4,0.9-1,1.6-1.8,2.2s-1.7,1-2.8,1.4s-2.3,0.5-3.6,0.5c-2.5,0-5-0.7-7.4-2.1l2.4-4.6c1.8,1.2,3.6,1.9,5.2,1.9
		c0.6,0,1.1-0.1,1.5-0.4c0.4-0.3,0.6-0.6,0.6-1c0-0.2,0-0.4-0.1-0.6c-0.1-0.2-0.2-0.3-0.4-0.4c-0.2-0.1-0.5-0.3-0.8-0.4
		c-0.4-0.1-0.9-0.2-1.5-0.3c-2-0.4-3.4-1-4.2-1.8c-0.8-0.8-1.2-1.9-1.2-3.3c0-1,0.2-2,0.6-2.8s0.9-1.5,1.7-2.1
		c0.7-0.6,1.6-1,2.6-1.3s2.2-0.5,3.4-0.5c2,0,4,0.4,5.9,1.2L271.5,574.2z"/>
	<path d="M285.4,574.9v13h-6.5v-13h-2.2v-5.4h2.2V564h6.5v5.5h3.7v5.4H285.4z"/>
	<path d="M291.6,569.5h6.5v3c0.7-1.1,1.5-1.9,2.6-2.5c1-0.6,2.2-0.9,3.5-0.9c0.2,0,0.4,0,0.6,0s0.4,0,0.7,0.1v6.2
		c-0.9-0.4-1.8-0.6-2.8-0.6c-1.5,0-2.6,0.5-3.4,1.3c-0.8,0.9-1.1,2.2-1.1,3.9v7.9h-6.5v-18.4H291.6z"/>
	<path d="M322.8,569.5h6.6V588h-6.6v-2.1c-1.4,1.8-3.3,2.6-5.7,2.6c-1.3,0-2.6-0.2-3.7-0.7s-2.1-1.2-3-2.1c-0.8-0.9-1.5-1.9-2-3.1
		c-0.5-1.2-0.7-2.5-0.7-3.9c0-1.3,0.2-2.6,0.7-3.8s1.1-2.2,1.9-3.1c0.8-0.9,1.8-1.6,2.9-2.1s2.4-0.8,3.7-0.8c2.3,0,4.2,0.8,5.7,2.4
		v-1.8H322.8z M314.6,578.6c0,0.6,0.1,1.2,0.3,1.7c0.2,0.5,0.5,1,0.9,1.4s0.8,0.7,1.3,0.9s1.1,0.3,1.7,0.3s1.1-0.1,1.6-0.3
		s1-0.5,1.3-0.9s0.7-0.8,0.9-1.3s0.3-1,0.3-1.6s-0.1-1.1-0.3-1.6c-0.2-0.5-0.5-1-0.9-1.4s-0.8-0.7-1.3-0.9s-1.1-0.3-1.6-0.3
		c-0.6,0-1.2,0.1-1.7,0.3s-1,0.5-1.3,0.9c-0.4,0.4-0.7,0.8-0.9,1.3S314.6,578.1,314.6,578.6z"/>
</g>
<g class="st9">
	<path d="M627.3,590.8h-6.5v-27.7h6.5v2.1c1.4-1.8,3.3-2.6,5.7-2.6c1.3,0,2.6,0.3,3.7,0.8c1.1,0.5,2.1,1.2,3,2.1
		c0.8,0.9,1.5,1.9,2,3.1c0.5,1.2,0.7,2.5,0.7,3.9s-0.2,2.6-0.7,3.8s-1.1,2.2-1.9,3.1s-1.8,1.6-2.9,2.1c-1.1,0.5-2.4,0.8-3.7,0.8
		c-2.3,0-4.2-0.8-5.8-2.4L627.3,590.8L627.3,590.8z M635.5,572.5c0-0.6-0.1-1.1-0.3-1.6s-0.5-1-0.9-1.3c-0.4-0.4-0.8-0.7-1.4-0.9
		c-0.5-0.2-1.1-0.3-1.7-0.3c-0.6,0-1.1,0.1-1.6,0.3s-0.9,0.5-1.3,0.9c-0.4,0.4-0.7,0.8-0.9,1.4c-0.2,0.5-0.3,1.1-0.3,1.6
		s0.1,1.1,0.3,1.6s0.5,0.9,0.9,1.3c0.4,0.4,0.8,0.7,1.4,0.9c0.5,0.2,1.1,0.3,1.6,0.3c0.6,0,1.1-0.1,1.6-0.3s0.9-0.5,1.3-0.9
		s0.7-0.8,0.9-1.3C635.4,573.5,635.5,573,635.5,572.5z"/>
	<path d="M645.3,572.2c0-1.4,0.3-2.6,0.8-3.8c0.6-1.2,1.3-2.2,2.3-3.1c1-0.9,2.2-1.6,3.5-2.1c1.4-0.5,2.8-0.8,4.4-0.8
		c1.6,0,3.1,0.2,4.4,0.7c1.4,0.5,2.5,1.2,3.5,2.1c1,0.9,1.8,1.9,2.3,3.1c0.6,1.2,0.8,2.6,0.8,4s-0.3,2.8-0.8,4
		c-0.6,1.2-1.3,2.3-2.3,3.1c-1,0.9-2.2,1.6-3.5,2c-1.4,0.5-2.9,0.7-4.5,0.7s-3-0.2-4.4-0.7c-1.3-0.5-2.5-1.2-3.5-2.1
		c-1-0.9-1.7-2-2.3-3.2C645.6,575.1,645.3,573.7,645.3,572.2z M652.2,572.3c0,0.6,0.1,1.2,0.3,1.7s0.5,1,0.9,1.4s0.8,0.7,1.3,0.9
		s1.1,0.3,1.6,0.3c0.6,0,1.1-0.1,1.6-0.3s1-0.5,1.3-0.9s0.7-0.8,0.9-1.4c0.2-0.5,0.3-1.1,0.3-1.7c0-0.6-0.1-1.1-0.3-1.6
		s-0.5-1-0.9-1.4s-0.8-0.7-1.3-0.9s-1.1-0.3-1.6-0.3c-0.6,0-1.1,0.1-1.6,0.3s-1,0.5-1.3,0.9c-0.4,0.4-0.7,0.8-0.9,1.3
		C652.3,571.2,652.2,571.7,652.2,572.3z"/>
	<path d="M685.5,551.8h6.6v29.9h-6.6v-2.1c-1.4,1.8-3.3,2.6-5.7,2.6c-1.3,0-2.6-0.3-3.7-0.8s-2.1-1.2-3-2.1s-1.5-1.9-2-3.1
		c-0.5-1.2-0.7-2.5-0.7-3.9c0-1.3,0.2-2.6,0.7-3.8c0.4-1.2,1.1-2.2,1.9-3.1c0.8-0.9,1.8-1.6,2.9-2.1c1.1-0.5,2.4-0.8,3.8-0.8
		c2.3,0,4.2,0.8,5.7,2.4L685.5,551.8L685.5,551.8z M677.3,572.3c0,0.6,0.1,1.2,0.3,1.7s0.5,1,0.9,1.4s0.8,0.7,1.3,0.9
		s1.1,0.3,1.7,0.3c0.6,0,1.1-0.1,1.6-0.3s1-0.5,1.3-0.9s0.7-0.8,0.9-1.3s0.3-1,0.3-1.6s-0.1-1.1-0.3-1.6s-0.5-1-0.9-1.4
		s-0.8-0.7-1.3-0.9s-1.1-0.3-1.6-0.3s-1.1,0.1-1.6,0.3s-1,0.5-1.3,0.9c-0.4,0.4-0.7,0.8-0.9,1.3
		C677.4,571.2,677.3,571.8,677.3,572.3z"/>
	<path d="M701.9,563.2l4.4,9.7l4.6-9.7h4.1l4.6,10l4.6-10h7.2l-9.6,18.5h-4.4l-4.6-10.1l-4.4,10.1H704l-9.5-18.5H701.9z"/>
	<path d="M733,572.2c0-1.4,0.3-2.6,0.8-3.8c0.6-1.2,1.3-2.2,2.3-3.1c1-0.9,2.2-1.6,3.5-2.1c1.4-0.5,2.8-0.8,4.4-0.8
		c1.6,0,3.1,0.2,4.4,0.7c1.4,0.5,2.5,1.2,3.5,2.1c1,0.9,1.8,1.9,2.3,3.1c0.6,1.2,0.8,2.6,0.8,4s-0.3,2.8-0.8,4
		c-0.6,1.2-1.3,2.3-2.3,3.1c-1,0.9-2.2,1.6-3.5,2c-1.4,0.5-2.9,0.7-4.5,0.7s-3-0.2-4.4-0.7c-1.3-0.5-2.5-1.2-3.5-2.1
		c-1-0.9-1.7-2-2.3-3.2C733.3,575.1,733,573.7,733,572.2z M739.9,572.3c0,0.6,0.1,1.2,0.3,1.7s0.5,1,0.9,1.4s0.8,0.7,1.3,0.9
		s1.1,0.3,1.6,0.3c0.6,0,1.1-0.1,1.6-0.3s1-0.5,1.3-0.9s0.7-0.8,0.9-1.4c0.2-0.5,0.3-1.1,0.3-1.7c0-0.6-0.1-1.1-0.3-1.6
		s-0.5-1-0.9-1.4s-0.8-0.7-1.3-0.9s-1.1-0.3-1.6-0.3c-0.6,0-1.1,0.1-1.6,0.3s-1,0.5-1.3,0.9c-0.4,0.4-0.7,0.8-0.9,1.3
		C740,571.2,739.9,571.7,739.9,572.3z M750.1,554.9l-6.3,5.5l-3-2.2l5.1-6.3L750.1,554.9z"/>
	<path d="M758.9,563.2h6.5v3c0.7-1.1,1.5-1.9,2.6-2.5c1-0.6,2.2-0.9,3.5-0.9c0.2,0,0.4,0,0.6,0s0.4,0,0.7,0.1v6.2
		c-0.9-0.4-1.8-0.6-2.8-0.6c-1.5,0-2.6,0.5-3.4,1.3c-0.8,0.9-1.1,2.2-1.1,3.9v7.9H759L758.9,563.2L758.9,563.2z"/>
	<path d="M782.2,551.8v18.1l6.8-6.7h8.9l-9.3,8.5l9.8,9.9h-9.1l-7.2-7.5v7.5h-6.5v-29.9h6.6V551.8z"/>
	<path d="M798.9,572.2c0-1.4,0.3-2.6,0.8-3.8c0.6-1.2,1.3-2.2,2.3-3.1c1-0.9,2.2-1.6,3.5-2.1c1.4-0.5,2.8-0.8,4.4-0.8
		c1.6,0,3.1,0.2,4.4,0.7c1.4,0.5,2.5,1.2,3.5,2.1c1,0.9,1.8,1.9,2.3,3.1c0.6,1.2,0.8,2.6,0.8,4s-0.3,2.8-0.8,4
		c-0.6,1.2-1.3,2.3-2.3,3.1c-1,0.9-2.2,1.6-3.5,2s-2.9,0.7-4.5,0.7s-3-0.2-4.4-0.7s-2.5-1.2-3.5-2.1c-1-0.9-1.7-2-2.3-3.2
		C799.2,575.1,798.9,573.7,798.9,572.2z M805.8,572.3c0,0.6,0.1,1.2,0.3,1.7s0.5,1,0.9,1.4s0.8,0.7,1.3,0.9s1.1,0.3,1.6,0.3
		s1.1-0.1,1.6-0.3s1-0.5,1.3-0.9s0.7-0.8,0.9-1.4c0.2-0.5,0.3-1.1,0.3-1.7c0-0.6-0.1-1.1-0.3-1.6s-0.5-1-0.9-1.4s-0.8-0.7-1.3-0.9
		s-1.1-0.3-1.6-0.3s-1.1,0.1-1.6,0.3s-1,0.5-1.3,0.9c-0.4,0.4-0.7,0.8-0.9,1.3S805.8,571.7,805.8,572.3z"/>
	<path d="M828.9,563.2l4.4,9.7l4.6-9.7h4.1l4.6,10l4.6-10h7.2l-9.6,18.5h-4.4l-4.6-10.1l-4.4,10.1H831l-9.5-18.5H828.9z"/>
	<path d="M874.1,563.2h6.6v18.5h-6.6v-2.1c-1.4,1.8-3.3,2.6-5.7,2.6c-1.3,0-2.6-0.2-3.7-0.7c-1.1-0.5-2.1-1.2-3-2.1
		c-0.8-0.9-1.5-1.9-2-3.1c-0.5-1.2-0.7-2.5-0.7-3.9c0-1.3,0.2-2.6,0.7-3.8s1.1-2.2,1.9-3.1c0.8-0.9,1.8-1.6,2.9-2.1
		c1.1-0.5,2.4-0.8,3.7-0.8c2.3,0,4.2,0.8,5.7,2.4v-1.8H874.1z M865.9,572.3c0,0.6,0.1,1.2,0.3,1.7s0.5,1,0.9,1.4s0.8,0.7,1.3,0.9
		s1.1,0.3,1.7,0.3c0.6,0,1.1-0.1,1.6-0.3s1-0.5,1.3-0.9s0.7-0.8,0.9-1.3s0.3-1,0.3-1.6s-0.1-1.1-0.3-1.6s-0.5-1-0.9-1.4
		s-0.8-0.7-1.3-0.9s-1.1-0.3-1.6-0.3c-0.6,0-1.2,0.1-1.7,0.3s-1,0.5-1.3,0.9c-0.4,0.4-0.7,0.8-0.9,1.3S865.9,571.8,865.9,572.3z"/>
</g>
<circle class="st4" cx="1081.9" cy="422.9" r="18.4"/>
<circle class="st4" cx="1081.9" cy="377.3" r="18.4"/>
<circle class="st4" cx="1081.9" cy="335.6" r="18.4"/>
<circle class="st4" cx="1081.9" cy="291.6" r="18.4"/>
<circle class="st4" cx="1086.5" cy="421.1" r="11"/>
<circle class="st4" cx="1084.3" cy="377.3" r="11"/>
<circle class="st4" cx="1084.3" cy="335.6" r="11"/>
<circle class="st4" cx="1084.3" cy="291.6" r="11"/>
<rect x="526" y="563.2" width="89.2" height="77.8"/>
<g>
	<circle cx="892.8" cy="185.9" r="53.4"/>
	<circle class="st7" cx="892.8" cy="185.9" r="23.8"/>
	<circle class="st10" cx="934.7" cy="293.7" r="36.9"/>
	<path class="st11" d="M906.7,317.2c-11.4-5.9-14.6-26.1-16.3-41.1c-1.2-10.4-1.5-21.1,2-30.9c14.1-0.5,28-6,39.7-14
		c-13.1,19.7-20.6,43.2-21.1,66.9c-0.2,10.2,1.5,21.9,10,27.7"/>
</g>
<g>
	<g>
		<circle cx="172.8" cy="479.1" r="31.2"/>
		<rect x="123.2" y="416.2" transform="matrix(0.2454 -0.9694 0.9694 0.2454 -267.7205 499.4758)" width="127.5" height="11.1"/>
		<polygon points="214.2,360.4 191.7,354.7 204.4,326.2 217.3,329.5 		"/>
		<ellipse cx="221.7" cy="335" rx="2.9" ry="2.9"/>
		<ellipse cx="220.9" cy="345.2" rx="2.9" ry="2.9"/>
		<ellipse cx="220.1" cy="355.9" rx="2.9" ry="2.9"/>
		<ellipse cx="197.7" cy="328.6" rx="2.9" ry="2.9"/>
		<ellipse cx="193.6" cy="337.9" rx="2.9" ry="2.9"/>
		<ellipse cx="189.3" cy="347.8" rx="2.9" ry="2.9"/>
	</g>
	<circle class="st7" cx="172.8" cy="479.1" r="25"/>
</g>
<rect x="718" y="268.8" width="8.5" height="32.1"/>
<rect x="733.4" y="268.8" width="8.5" height="32.1"/>
<rect x="746.5" y="268.8" width="8.5" height="32.1"/>
<rect x="758.8" y="268.8" width="8.5" height="32.1"/>
<rect x="773.2" y="268.8" width="8.5" height="32.1"/>
<rect x="787.8" y="268.8" width="8.5" height="32.1"/>
<rect x="800.5" y="268.8" width="8.5" height="32.1"/>
<rect x="813" y="268.8" width="8.5" height="32.1"/>
<rect x="825.6" y="268.8" width="8.5" height="32.1"/>
<rect x="842.1" y="268.8" width="8.5" height="32.1"/>
<rect x="372.9" y="557.2" transform="matrix(0.8192 -0.5736 0.5736 0.8192 -271.4715 329.198)" width="26.8" height="75.8"/>
<circle class="st7" cx="463.3" cy="573.4" r="1.9"/>
<circle class="st7" cx="456.8" cy="582.8" r="1.9"/>
<circle class="st7" cx="450.3" cy="592.2" r="1.9"/>
<circle class="st7" cx="443.8" cy="601.6" r="1.9"/>
<circle class="st7" cx="437.3" cy="611" r="1.9"/>
<circle class="st7" cx="465.2" cy="580.9" r="1.9"/>
<circle class="st7" cx="458.7" cy="590.3" r="1.9"/>
<circle class="st7" cx="452.2" cy="599.7" r="1.9"/>
<circle class="st7" cx="445.7" cy="609.1" r="1.9"/>
<circle class="st7" cx="473.6" cy="579" r="1.9"/>
<circle class="st7" cx="467.1" cy="588.4" r="1.9"/>
<circle class="st7" cx="460.6" cy="597.8" r="1.9"/>
<circle class="st7" cx="454.1" cy="607.2" r="1.9"/>
<path class="st12" d="M464,548.3"/>
<polyline class="st12" points="387.6,564.3 398.6,553.3 398.6,553.3 409.6,564.3 409.7,564.3 420.7,553.3 420.7,553.3 430.7,564.3 
	430.9,564.3 441.9,553.3 441.9,553.3 452.9,564.3 "/>
<circle class="st7" cx="446.5" cy="617.7" r="1.9"/>
<rect x="265.6" y="-171.8" width="36.5" height="68.8"/>
<rect x="254.6" y="-225.8" width="67.6" height="34.4"/>
<rect x="265.6" y="-171.8" width="68.2" height="33.5"/>
<rect x="351.3" y="-239.3" width="50.2" height="64.2"/>
<rect x="340.3" y="-171.8" width="29.4" height="68.8"/>
<rect x="405.5" y="-239.3" width="71.1" height="57.7"/>
<rect x="443.5" y="-237.9" width="35.5" height="130.4"/>
<rect x="535.9" y="-251.8" width="66.1" height="57.4"/>
<rect x="535.9" y="-229.5" width="33.1" height="100.1"/>
<rect x="506.6" y="-251.8" width="23" height="95.1"/>
<rect x="483.5" y="-194.4" width="46.1" height="37.7"/>
<rect x="730.1" y="-179.4" width="55.2" height="130.9"/>
<rect x="730.1" y="-77" width="79.3" height="28.5"/>
<rect x="795.6" y="-229.5" width="12.7" height="140.1"/>
<rect x="816.6" y="-244.2" width="61.4" height="181.5"/>
<rect x="831.3" y="-107.9" width="163.1" height="45.1"/>
<rect x="862.8" y="-151.8" width="33.6" height="57.2"/>
<rect x="690.8" y="-269.5" width="25.9" height="116"/>
<rect x="901.4" y="-253.1" width="41" height="23.6"/>
<rect x="931.2" y="-155.6" width="41.4" height="28.8"/>
<rect x="924.1" y="-211.3" width="45.5" height="45.5"/>
<rect x="949.3" y="-243.9" width="20.3" height="64.5"/>
<rect x="901.4" y="-183" width="20.5" height="46.9"/>
<rect x="989.5" y="-246.3" width="44.5" height="30.7"/>
<rect x="1011.7" y="-230.9" width="22" height="68.1"/>
<rect x="989.5" y="-207" width="29.5" height="93.1"/>
<rect x="1002.8" y="-156.5" width="33.1" height="42.6"/>
<circle class="st4" cx="744.1" cy="328.1" r="18.4"/>
<circle class="st4" cx="788.1" cy="328.1" r="18.4"/>
<circle class="st4" cx="744.1" cy="330.5" r="11"/>
<circle class="st4" cx="788.1" cy="330.5" r="11"/>
<ellipse transform="matrix(0.7071 -0.7071 0.7071 0.7071 17.7581 692.0788)" class="st4" cx="844.3" cy="324.6" rx="18.4" ry="18.4"/>
<circle class="st4" cx="842.6" cy="322.9" r="11"/>
<circle class="st13" cx="293.5" cy="-80.6" r="7.6"/>
<circle class="st13" cx="315" cy="-80.6" r="7.6"/>
<circle class="st13" cx="337" cy="-80.6" r="7.6"/>
<circle class="st13" cx="293.3" cy="-59.4" r="7.6"/>
<circle class="st13" cx="314.8" cy="-59.4" r="7.6"/>
<circle class="st13" cx="336.8" cy="-59.4" r="7.6"/>
<circle class="st13" cx="577.3" cy="-103.1" r="7.6"/>
<circle class="st13" cx="598.8" cy="-103.1" r="7.6"/>
<circle class="st13" cx="620.8" cy="-103.1" r="7.6"/>
<circle class="st13" cx="577" cy="-82" r="7.6"/>
<circle class="st13" cx="598.5" cy="-82" r="7.6"/>
<circle class="st13" cx="620.5" cy="-82" r="7.6"/>
<circle class="st13" cx="576.8" cy="-60.9" r="7.6"/>
<circle class="st13" cx="598.3" cy="-60.9" r="7.6"/>
<circle class="st13" cx="620.3" cy="-60.9" r="7.6"/>
<circle class="st13" cx="512.5" cy="-103.1" r="7.6"/>
<circle class="st13" cx="534" cy="-103.1" r="7.6"/>
<circle class="st13" cx="556" cy="-103.1" r="7.6"/>
<ellipse transform="matrix(0.1602 -0.9871 0.9871 0.1602 511.2217 436.8692)" class="st13" cx="512.3" cy="-82" rx="7.6" ry="7.6"/>
<circle class="st13" cx="533.8" cy="-82" r="7.6"/>
<circle class="st13" cx="555.8" cy="-82" r="7.6"/>
<circle class="st13" cx="512" cy="-60.9" r="7.6"/>
<circle class="st13" cx="533.5" cy="-60.9" r="7.6"/>
<circle class="st13" cx="555.5" cy="-60.9" r="7.6"/>
<circle class="st13" cx="966.1" cy="567.5" r="7.6"/>
<circle class="st13" cx="987.6" cy="567.5" r="7.6"/>
<circle class="st13" cx="1009.6" cy="567.5" r="7.6"/>
<circle class="st13" cx="965.8" cy="588.6" r="7.6"/>
<circle class="st13" cx="987.3" cy="588.6" r="7.6"/>
<circle class="st13" cx="1009.4" cy="588.6" r="7.6"/>
<circle class="st13" cx="965.6" cy="609.7" r="7.6"/>
<circle class="st13" cx="987.1" cy="609.7" r="7.6"/>
<circle class="st13" cx="1009.1" cy="609.7" r="7.6"/>
<ellipse class="st4" cx="415.8" cy="-151.8" rx="18.4" ry="18.4"/>
<circle class="st4" cx="414.1" cy="-153.5" r="11"/>
<ellipse class="st4" cx="675.8" cy="-78.4" rx="18.4" ry="18.4"/>
<circle class="st4" cx="674" cy="-80.1" r="11"/>
<circle class="st13" cx="424.3" cy="-87.6" r="7.6"/>
<circle class="st13" cx="445.8" cy="-87.6" r="7.6"/>
<circle class="st13" cx="467.8" cy="-87.6" r="7.6"/>
<circle class="st13" cx="424" cy="-66.4" r="7.6"/>
<circle class="st13" cx="445.5" cy="-66.4" r="7.6"/>
<circle class="st13" cx="467.5" cy="-66.4" r="7.6"/>
<rect x="617.8" y="-213" width="56.2" height="10.1"/>
<rect x="617.8" y="-188.5" width="56.2" height="10.1"/>
<rect x="617.8" y="-164" width="56.2" height="10.1"/>
<rect x="617.8" y="-141.1" width="56.2" height="10.1"/>
<g>
	<path class="st7" d="M410.8,394.7v115.4h-52.6v-39h-34v39h-52.6V394.7h52.6V432h34v-37.3H410.8z"/>
	<path class="st7" d="M500.3,499.9h-42.8l-5.9,10.2h-40.7l75.5-129l75.5,129h-56L500.3,499.9z M488.2,477.8l-8.7-15.6l-9.2,15.6
		H488.2z"/>
	<path class="st7" d="M561.9,389.6l83.2,44.1v-39h47.5v120.9l-83.2-44.1v39h-47.5V389.6z M672.4,357.3l-40.7,27.2h-5.9v-27.2H672.4z
		"/>
	<path class="st7" d="M811.1,451.4c7.1,2.6,12.6,6.1,16.6,10.5c3.9,4.4,5.9,10,5.9,16.8c0,6.6-1.5,11.9-4.6,16
		c-3.1,4.1-7.4,7.2-13.1,9.5c-5.7,2.3-12.5,3.8-20.4,4.7c-7.9,0.8-16.8,1.3-26.5,1.3h-66.2V394.7h64.5c8.8,0,17,0.5,24.4,1.5
		c7.5,1,13.9,2.8,19.4,5.3c5.4,2.5,9.7,5.9,12.7,10.1c3.1,4.2,4.6,9.6,4.6,16.2c0,6-1.5,10.9-4.6,14.6S816.5,449.1,811.1,451.4z
		 M755.4,440.5h10.2c5.1,0,8.5-0.8,10.2-2.4c1.7-1.6,2.5-3.3,2.5-5.3c0-1.9-0.8-3.7-2.5-5.3c-1.7-1.6-5.1-2.4-10.2-2.4h-10.2V440.5z
		 M767.3,479.5c5.1,0,8.5-0.8,10.2-2.4c1.7-1.6,2.5-3.3,2.5-5.3c0-1.9-0.8-3.7-2.5-5.3c-1.7-1.6-5.1-2.4-10.2-2.4h-11.9v15.3H767.3z
		"/>
	<path class="st7" d="M912.8,499.9H870l-5.9,10.2h-40.7l75.5-129l75.5,129h-56L912.8,499.9z M900.7,477.8l-8.7-15.6l-9.2,15.6H900.7
		z"/>
	<path class="st7" d="M1027.1,394.7l-17,67.9h-18.7l-17-67.9H1027.1z M1000.7,511.6c-2.8,0-5.5-0.5-7.9-1.6
		c-2.4-1.1-4.6-2.5-6.4-4.3c-1.8-1.8-3.2-3.9-4.2-6.4c-1-2.4-1.5-5-1.5-7.7c0-2.7,0.5-5.3,1.5-7.7c1-2.4,2.4-4.6,4.2-6.4
		c1.8-1.8,3.9-3.3,6.4-4.3c2.4-1.1,5.1-1.6,7.9-1.6c2.7,0,5.3,0.5,7.7,1.6c2.4,1.1,4.6,2.5,6.4,4.3c1.8,1.8,3.2,3.9,4.2,6.4
		c1,2.4,1.5,5,1.5,7.7c0,2.7-0.5,5.3-1.5,7.7c-1,2.4-2.4,4.6-4.2,6.4c-1.8,1.8-3.9,3.3-6.4,4.3
		C1006,511.1,1003.5,511.6,1000.7,511.6z"/>
</g>
</svg>
