<?xml version="1.0" encoding="utf-8"?>
<!-- Generator: Adobe Illustrator 23.0.2, SVG Export Plug-In . SVG Version: 6.00 Build 0)  -->
<svg version="1.1" id="Layer_1" xmlns="http://www.w3.org/2000/svg" xmlns:xlink="http://www.w3.org/1999/xlink" x="0px" y="0px"
	 viewBox="0 0 1300 850" style="enable-background:new 0 0 1300 850;" xml:space="preserve">
<style type="text/css">
	.st0{fill-rule:evenodd;clip-rule:evenodd;fill:#F20C3E;}
	.st1{fill-rule:evenodd;clip-rule:evenodd;fill:#0C2231;}
	.st2{fill:#D6E9F5;}
	.st3{fill:#0C2231;}
	.st4{fill:#153A4F;}
</style>
<polygon class="st0" points="362.9,122 121,186.8 298.1,363.9 "/>
<rect x="231.6" y="569.4" class="st0" width="836.4" height="31.5"/>
<g>
	
		<rect x="112.8" y="390.3" transform="matrix(0.3422 -0.9396 0.9396 0.3422 -227.1468 473.726)" class="st1" width="223.9" height="17.6"/>
	
		<rect x="83.4" y="379.6" transform="matrix(0.3422 -0.9396 0.9396 0.3422 -236.4959 439.0613)" class="st1" width="223.9" height="17.6"/>
	
		<rect x="53.1" y="370.6" transform="matrix(0.3422 -0.9396 0.9396 0.3422 -247.8634 404.643)" class="st1" width="223.9" height="17.6"/>
	
		<rect x="23.9" y="358.9" transform="matrix(0.3422 -0.9396 0.9396 0.3422 -256.139 369.546)" class="st1" width="223.9" height="17.6"/>
	
		<rect x="-5.8" y="348.1" transform="matrix(0.3422 -0.9396 0.9396 0.3422 -265.5098 334.5518)" class="st1" width="223.9" height="17.6"/>
	
		<rect x="-35.8" y="339.2" transform="matrix(0.3422 -0.9396 0.9396 0.3422 -276.9232 300.4997)" class="st1" width="223.9" height="17.6"/>
</g>
<g>
	
		<ellipse transform="matrix(0.7071 -0.7071 0.7071 0.7071 -314.5961 256.0478)" class="st2" cx="151.8" cy="507.8" rx="61.6" ry="61.6"/>
	<rect x="115.7" y="267.9" transform="matrix(0.9777 -0.21 0.21 0.9777 -79.8617 35.3868)" class="st2" width="22" height="251.7"/>
	<polygon class="st2" points="121,261.6 76.3,271.2 73.8,209.7 99.5,204.1 	"/>
	<circle class="st2" cx="112.3" cy="209.9" r="5.6"/>
	<circle class="st2" cx="119.6" cy="228.7" r="5.6"/>
	<circle class="st2" cx="127.5" cy="248.5" r="5.6"/>
	<ellipse class="st2" cx="64" cy="219.7" rx="5.6" ry="5.6"/>
	<ellipse class="st2" cx="65.1" cy="239.8" rx="5.6" ry="5.6"/>
	<ellipse class="st2" cx="66" cy="261" rx="5.6" ry="5.6"/>
</g>
<rect x="537.2" y="93.2" transform="matrix(0.9648 -0.2629 0.2629 0.9648 -5.6255 152.6198)" class="st0" width="60.9" height="8.3"/>
<polygon class="st0" points="1173.1,238.2 970.3,385 1198.9,487.2 "/>
<path class="st3" d="M1243,303.8c-16.9,0-25.4,5.5-33,10.2c-6.7,4.2-12,7.4-23.5,7.4s-16.9-3.3-23.5-7.4c-7.6-4.8-16.3-10.2-33-10.2
	c-16.8,0-25.4,5.5-33,10.2c-6.7,4.2-12,7.4-23.5,7.4c-11.4,0-16.9-3.3-23.5-7.4c-7.6-4.8-16.3-10.2-33-10.2v14.8
	c11.5,0,16.9,3.3,23.5,7.4c7.6,4.8,16.3,10.2,33,10.2c16.8,0,25.4-5.5,33-10.2c6.7-4.2,12-7.4,23.5-7.4c11.4,0,16.9,3.3,23.5,7.4
	c7.6,4.8,16.3,10.2,33,10.2c16.9,0,25.4-5.5,33-10.2c6.7-4.2,12-7.4,23.5-7.4c11.4,0,16.9,3.3,23.5,7.4c7.6,4.8,16.3,10.2,33,10.2
	v-14.8c-11.5,0-16.9-3.3-23.5-7.4C1268.5,309.3,1259.7,303.8,1243,303.8z"/>
<path class="st3" d="M1243,216.9c-16.9,0-25.4,5.5-33,10.2c-6.7,4.2-12,7.4-23.5,7.4s-16.9-3.3-23.5-7.4c-7.6-4.8-16.3-10.2-33-10.2
	c-16.8,0-25.4,5.5-33,10.2c-6.7,4.2-12,7.4-23.5,7.4c-11.4,0-16.9-3.3-23.5-7.4c-7.6-4.8-16.3-10.2-33-10.2v14.8
	c11.5,0,16.9,3.3,23.5,7.4c7.6,4.8,16.3,10.2,33,10.2c16.8,0,25.4-5.5,33-10.2c6.7-4.2,12-7.4,23.5-7.4c11.4,0,16.9,3.3,23.5,7.4
	c7.6,4.8,16.3,10.2,33,10.2c16.9,0,25.4-5.5,33-10.2c6.7-4.2,12-7.4,23.5-7.4c11.4,0,16.9,3.3,23.5,7.4c7.6,4.8,16.3,10.2,33,10.2
	v-14.8c-11.5,0-16.9-3.3-23.5-7.4C1268.5,222.3,1259.7,216.9,1243,216.9z"/>
<path class="st3" d="M1243,260.3c-16.9,0-25.4,5.5-33,10.2c-6.7,4.2-12,7.4-23.5,7.4s-16.9-3.3-23.5-7.4c-7.6-4.8-16.3-10.2-33-10.2
	c-16.8,0-25.4,5.5-33,10.2c-6.7,4.2-12,7.4-23.5,7.4c-11.4,0-16.9-3.3-23.5-7.4c-7.6-4.8-16.3-10.2-33-10.2v14.8
	c11.5,0,16.9,3.3,23.5,7.4c7.6,4.8,16.3,10.2,33,10.2c16.8,0,25.4-5.5,33-10.2c6.7-4.2,12-7.4,23.5-7.4c11.4,0,16.9,3.3,23.5,7.4
	c7.6,4.8,16.3,10.2,33,10.2c16.9,0,25.4-5.5,33-10.2c6.7-4.2,12-7.4,23.5-7.4c11.4,0,16.9,3.3,23.5,7.4c7.6,4.8,16.3,10.2,33,10.2
	v-14.6c-11.5,0-16.9-3.3-23.5-7.4C1268.5,265.8,1259.7,260.3,1243,260.3z"/>
<path class="st3" d="M1276.1,183.6c-7.6-4.8-16.3-10.2-33.1-10.2c-16.8,0-25.4,5.5-33,10.2c-6.7,4.2-12,7.4-23.5,7.4
	s-16.9-3.3-23.5-7.4c-7.6-4.8-16.3-10.2-33-10.2c-16.8,0-25.4,5.5-33,10.2c-6.7,4.2-12,7.4-23.5,7.4c-11.4,0-16.9-3.3-23.5-7.4
	c-7.7-4.7-16.4-10.2-33-10.2v14.8c11.5,0,16.9,3.3,23.5,7.4c7.6,4.8,16.3,10.2,33,10.2c16.8,0,25.4-5.5,33-10.2
	c6.7-4.2,12-7.4,23.5-7.4s16.9,3.3,23.5,7.4c7.6,4.8,16.3,10.2,33,10.2c16.8,0,25.4-5.5,33-10.2c6.7-4.2,12-7.4,23.5-7.4
	s16.9,3.3,23.5,7.4c7.6,4.8,16.3,10.2,33,10.2v-14.7C1288.1,191.1,1282.7,187.9,1276.1,183.6z"/>
<path class="st3" d="M1276.1,314.1c-7.6-4.8-16.3-10.2-33-10.2c-16.8,0-25.4,5.5-33,10.2c-6.7,4.2-12,7.4-23.5,7.4
	s-16.9-3.3-23.5-7.4c-7.6-4.8-16.3-10.2-33-10.2c-16.8,0-25.4,5.5-33,10.2c-6.7,4.2-12,7.4-23.5,7.4c-11.4,0-16.9-3.3-23.5-7.4
	c-7.6-4.8-16.3-10.2-33-10.2v14.8c11.5,0,16.9,3.3,23.5,7.4c7.6,4.8,16.3,10.2,33,10.2c16.8,0,25.4-5.5,33-10.2
	c6.7-4.2,12-7.4,23.5-7.4c11.4,0,16.9,3.3,23.5,7.4c7.6,4.8,16.3,10.2,33,10.2c16.9,0,25.4-5.5,33-10.2c6.7-4.2,12-7.4,23.5-7.4
	c11.4,0,16.9,3.3,23.5,7.4c7.6,4.8,16.3,10.2,33,10.2v-14.8C1288.1,321.7,1282.7,318.5,1276.1,314.1z"/>
<g>
	<circle class="st2" cx="1176.6" cy="469" r="74"/>
	
		<ellipse transform="matrix(0.4395 -0.8982 0.8982 0.4395 333.5534 1306.2507)" class="st2" cx="1213.5" cy="385.8" rx="7.7" ry="33.6"/>
	<rect x="1131.4" y="377.6" class="st2" width="41.4" height="9.9"/>
	<circle class="st4" cx="1176.6" cy="469" r="24.5"/>
</g>
<rect x="741.3" y="66.1" transform="matrix(0.1569 -0.9876 0.9876 0.1569 533.1484 817.6933)" class="st0" width="8.3" height="60.9"/>
<rect x="580.5" y="123.5" transform="matrix(0.4669 -0.8843 0.8843 0.4669 212.824 608.3639)" class="st0" width="60.9" height="8.3"/>
<rect x="703.6" y="97.2" transform="matrix(0.7701 -0.638 0.638 0.7701 81.2899 480.8888)" class="st0" width="8.3" height="60.9"/>
<rect x="626.6" y="139.7" transform="matrix(8.261650e-02 -0.9966 0.9966 8.261650e-02 459.3881 786.6963)" class="st0" width="60.9" height="8.3"/>
</svg>
