<?xml version="1.0" encoding="utf-8"?>
<!-- Generator: Adobe Illustrator 23.0.3, SVG Export Plug-In . SVG Version: 6.00 Build 0)  -->
<svg version="1.1" id="Layer_1" xmlns="http://www.w3.org/2000/svg" xmlns:xlink="http://www.w3.org/1999/xlink" x="0px" y="0px"
	 viewBox="0 0 512 512" style="enable-background:new 0 0 512 512;" xml:space="preserve">
<style type="text/css">
	.st0{fill:#FFFFFF;}
</style>
<rect y="0" class="st0" width="512" height="512"/>
<path d="M301.5,367.8h73v-22.1h-73L301.5,367.8C301.5,367.8,301.5,367.8,301.5,367.8z M137.9,367.8h73v-22.1h-73L137.9,367.8
	L137.9,367.8L137.9,367.8z M56,367.8h73v-22.1H56C56,345.7,56,367.8,56,367.8z M219.7,367.8h73.1v-22.1h-73.1
	C219.7,345.7,219.7,367.8,219.7,367.8z M383.4,367.8h73v-22.1h-73C383.4,345.7,383.4,367.8,383.4,367.8z M383.4,339.1h73v-22h-73
	v22.4v-0.2V339.1z M219.7,339.1h73.2v-22h-73.3v22.4v-0.2L219.7,339.1z M56,339.1h73.1v-22H56v22.4v-0.2L56,339.1z M137.9,339.1H211
	v-22h-73.1v22.4l0-0.2L137.9,339.1z M301.9,339.1H375v-22h-73.4v22.4l0.3-0.2L301.9,339.1z M301.9,310.4H375v-22h-73.4v22.2h0.3
	L301.9,310.4z M138.4,310.4h72.7v-22h-73.2v22.2h0.3L138.4,310.4z M56.5,310.4h72.7v-22H56v22.2h0.3L56.5,310.4z M220.2,310.4h73.1
	v-22h-73.4v22.2h0.3L220.2,310.4z M384.1,310.4h72.3v-22h-73v22.2h0.5L384.1,310.4z M384.1,281.7h72.3v-22.2h-73v22.1h0.5
	L384.1,281.7z M220.4,281.7h72.8v-22.2h-73.4v22.1L220.4,281.7L220.4,281.7z M56.8,281.7h72.7v-22.2H56v22.1h0.5L56.8,281.7z
	 M302.5,281.7h73.1v-22.2h-73.9v22.1h0.7L302.5,281.7z M302.5,253h73.1v-22.2h-73.9v22h0.7L302.5,253z M56.8,253h72.7v-22H56v22h0.5
	H56.8z M220.4,253h73.1v-22h-73.8v22h0.5H220.4z M384.1,253h72.3v-22.2h-73V253l0.5,0L384.1,253z M219.7,224.1h73.1V202h-73.1V224.1
	z M383.4,224.1h73V202h-73V224.1z M219.7,195.3h73.1v-22.1h-73.1V195.3z M383.4,195.3h73v-22.1h-73V195.3z M383.4,166.6h73v-22.1
	h-73C383.4,144.4,383.4,166.6,383.4,166.6z"/>
</svg>
