<?xml version="1.0" encoding="utf-8"?>
<!-- Generator: Adobe Illustrator 23.0.3, SVG Export Plug-In . SVG Version: 6.00 Build 0)  -->
<svg version="1.1" id="Layer_1" xmlns="http://www.w3.org/2000/svg" xmlns:xlink="http://www.w3.org/1999/xlink" x="0px" y="0px"
	 viewBox="0 0 34.7 34.9" style="enable-background:new 0 0 34.7 34.9;" xml:space="preserve">
<style type="text/css">
	.st0{fill:#FFFFFF;}
</style>
<polygon points="-19.4,-34.9 -19.4,-36.3 -33.6,-36.3 -33.6,-34.9 -33.6,-29.9 -33.6,-13.8 -7.4,-13.8 -7.4,-34.9 "/>
<polygon points="14.8,7 2.8,7 2.8,13.7 2.8,27.9 14.8,27.9 26.7,27.9 31.9,27.9 31.9,7 "/>
<g>
	<path class="st0" d="M20.5,11.4l-1.6,0c-1.8,0-3,1.2-3,3.1v1.4h-1.6c-0.1,0-0.3,0.1-0.3,0.3v2c0,0.1,0.1,0.3,0.3,0.3h1.6v5.2
		c0,0.1,0.1,0.3,0.3,0.3h2.1c0.1,0,0.3-0.1,0.3-0.3v-5.2h1.9c0.1,0,0.3-0.1,0.3-0.3l0-2c0-0.1,0-0.1-0.1-0.2c0,0-0.1-0.1-0.2-0.1
		h-1.9v-1.2c0-0.6,0.1-0.9,0.9-0.9l1.1,0c0.1,0,0.3-0.1,0.3-0.3v-1.9C20.7,11.5,20.6,11.4,20.5,11.4z"/>
</g>
</svg>
