<?xml version="1.0" encoding="utf-8"?>
<!-- Generator: Adobe Illustrator 23.0.3, SVG Export Plug-In . SVG Version: 6.00 Build 0)  -->
<svg version="1.1" id="Layer_1" xmlns="http://www.w3.org/2000/svg" xmlns:xlink="http://www.w3.org/1999/xlink" x="0px" y="0px"
	 viewBox="0 0 512 512" style="enable-background:new 0 0 512 512;" xml:space="preserve">
<style type="text/css">
	.st0{fill:#FFFFFF;}
</style>
<rect class="st0" width="512" height="512"/>
<path d="M297.3,508.7c-2.1,0.3-4.3,0.7-6.4,1C293,509.3,295.1,509,297.3,508.7z"/>
<path d="M302.4,507.8c-1,0.2-2,0.4-3.1,0.5C300.4,508.2,301.4,508,302.4,507.8z"/>
<path d="M285.1,510.3c-2.5,0.3-5,0.5-7.5,0.7C280.1,510.9,282.6,510.6,285.1,510.3z"/>
<path d="M290.1,509.7c-1.2,0.2-2.4,0.3-3.6,0.4C287.6,510,288.9,509.9,290.1,509.7z"/>
<path d="M309.4,506.4c-0.9,0.2-1.8,0.4-2.7,0.6C307.6,506.8,308.5,506.6,309.4,506.4z"/>
<path d="M326.7,502.1c-0.7,0.2-1.5,0.4-2.2,0.6C325.2,502.5,325.9,502.3,326.7,502.1z"/>
<path d="M321.4,503.5c-0.8,0.2-1.6,0.4-2.4,0.6C319.9,504,320.6,503.8,321.4,503.5z"/>
<path d="M314.6,505.3c-0.8,0.2-1.7,0.4-2.5,0.6C312.9,505.6,313.8,505.4,314.6,505.3z"/>
<path d="M277.5,511.1c-1.3,0.1-2.7,0.2-4,0.3C274.8,511.3,276.2,511.2,277.5,511.1z"/>
<path d="M272.9,511.4c-2.7,0.2-5.3,0.3-8,0.4C267.6,511.7,270.2,511.6,272.9,511.4z"/>
<path d="M264.8,511.8c-1.4,0-2.8,0.1-4.2,0.1C261.9,511.9,263.3,511.9,264.8,511.8z"/>
<g>
	<path d="M333.4,96.7h-40.4c-45.4,0-75.7,30.3-75.7,78.3v35.3h-40.4c-2.5,0-7.6,2.5-7.6,7.6v50.5c0,2.5,2.5,7.6,7.6,7.6h40.4v131.3
		c0,2.5,2.5,7.6,7.6,7.6h53c2.5,0,7.6-2.5,7.6-7.6V275.9h48c2.5,0,7.6-2.5,7.6-7.6v-50.5c0-2.5,0-2.5-2.5-5c0,0-2.5-2.5-5-2.5h-48
		V180c0-15.1,2.5-22.7,22.7-22.7H336c2.5,0,7.6-2.5,7.6-7.6v-48C338.5,99.2,336,96.7,333.4,96.7z"/>
</g>
</svg>
