<?xml version="1.0" encoding="utf-8"?>
<!-- Generator: Adobe Illustrator 23.0.3, SVG Export Plug-In . SVG Version: 6.00 Build 0)  -->
<svg version="1.1" id="Layer_1" xmlns="http://www.w3.org/2000/svg" xmlns:xlink="http://www.w3.org/1999/xlink" x="0px" y="0px"
	 viewBox="0 0 1366 100" style="enable-background:new 0 0 1366 100;" xml:space="preserve">
<style type="text/css">
	.st0{fill:none;stroke:#000000;stroke-width:0.6072;stroke-miterlimit:10;}
	.st1{fill:none;stroke:#000000;stroke-miterlimit:10;}
</style>
<line class="st0" x1="530.8" y1="20.2" x2="812.7" y2="20.2"/>
<line class="st0" x1="530.8" y1="26.1" x2="812.7" y2="26.1"/>
<line class="st0" x1="530.8" y1="32.2" x2="812.7" y2="32.2"/>
<line class="st0" x1="530.8" y1="35.2" x2="812.7" y2="35.2"/>
<line class="st0" x1="530.8" y1="44.2" x2="812.7" y2="44.2"/>
<line class="st0" x1="530.8" y1="47.7" x2="812.7" y2="47.7"/>
<line class="st0" x1="530.8" y1="55.3" x2="812.7" y2="55.3"/>
<line class="st0" x1="530.8" y1="59.1" x2="812.7" y2="59.1"/>
<line class="st0" x1="530.8" y1="62.1" x2="812.7" y2="62.1"/>
<line class="st0" x1="530.8" y1="65" x2="812.7" y2="65"/>
<line class="st0" x1="530.8" y1="70.9" x2="812.7" y2="70.9"/>
<line class="st0" x1="530.8" y1="79.8" x2="812.7" y2="79.8"/>
<rect x="779.3" y="16.1" width="8.5" height="32.1"/>
<rect x="791.7" y="16.1" width="8.5" height="32.1"/>
<rect x="804.8" y="16.1" width="8.5" height="32.1"/>
<rect x="817.1" y="16.1" width="8.5" height="32.1"/>
<rect x="829.5" y="16.1" width="8.5" height="32.1"/>
<rect x="846.1" y="16.1" width="8.5" height="32.1"/>
<rect x="858.8" y="16.1" width="8.5" height="32.1"/>
<rect x="871.3" y="16.1" width="8.5" height="32.1"/>
<rect x="883.9" y="16.1" width="8.5" height="32.1"/>
<rect x="898.4" y="16.1" width="8.5" height="32.1"/>
<rect x="190.7" y="23.5" width="174.4" height="15.1"/>
<rect x="178.3" y="56.6" width="151" height="7.9"/>
<rect x="211.8" y="79.2" width="438" height="6.3"/>
<circle class="st1" cx="956.1" cy="169.4" r="18.4"/>
<circle class="st1" cx="1001.7" cy="169.4" r="18.4"/>
<circle class="st1" cx="1043.4" cy="169.4" r="18.4"/>
<circle class="st1" cx="957.9" cy="174" r="11"/>
<circle class="st1" cx="1001.7" cy="171.8" r="11"/>
<circle class="st1" cx="1043.4" cy="171.8" r="11"/>
<rect x="909" y="32.2" width="70.7" height="52.7"/>
<rect x="979.7" y="15.1" width="69.8" height="32.4"/>
<rect x="1049.5" y="24.6" width="136.1" height="13.3"/>
<rect x="1052" y="47.4" width="135.2" height="14.6"/>
</svg>
