<?xml version="1.0" encoding="utf-8"?>
<!-- Generator: Adobe Illustrator 23.0.3, SVG Export Plug-In . SVG Version: 6.00 Build 0)  -->
<svg version="1.1" id="Layer_1" xmlns="http://www.w3.org/2000/svg" xmlns:xlink="http://www.w3.org/1999/xlink" x="0px" y="0px"
	 viewBox="0 0 1366 177.4" style="enable-background:new 0 0 1366 177.4;" xml:space="preserve">
<style type="text/css">
	.st0{fill:none;stroke:#FFFFFF;stroke-width:0.6072;stroke-miterlimit:10;}
	.st1{fill:#FFFFFF;}
	.st2{fill:none;stroke:#FFFFFF;stroke-miterlimit:10;}
	.st3{fill:none;stroke:#FFFFFF;stroke-width:0.6919;stroke-miterlimit:10;}
</style>
<line class="st0" x1="600.4" y1="60.7" x2="882.3" y2="60.7"/>
<line class="st0" x1="600.4" y1="66.6" x2="882.3" y2="66.6"/>
<line class="st0" x1="600.4" y1="72.7" x2="882.3" y2="72.7"/>
<line class="st0" x1="600.4" y1="75.7" x2="882.3" y2="75.7"/>
<line class="st0" x1="600.4" y1="84.7" x2="882.3" y2="84.7"/>
<line class="st0" x1="600.4" y1="88.2" x2="882.3" y2="88.2"/>
<line class="st0" x1="600.4" y1="95.8" x2="882.3" y2="95.8"/>
<line class="st0" x1="600.4" y1="99.6" x2="882.3" y2="99.6"/>
<line class="st0" x1="600.4" y1="102.6" x2="882.3" y2="102.6"/>
<line class="st0" x1="600.4" y1="105.5" x2="882.3" y2="105.5"/>
<line class="st0" x1="600.4" y1="111.4" x2="882.3" y2="111.4"/>
<line class="st0" x1="600.4" y1="120.3" x2="882.3" y2="120.3"/>
<rect x="848.9" y="56.6" class="st1" width="8.5" height="32.1"/>
<rect x="861.3" y="56.6" class="st1" width="8.5" height="32.1"/>
<rect x="874.4" y="56.6" class="st1" width="8.5" height="32.1"/>
<rect x="886.7" y="56.6" class="st1" width="8.5" height="32.1"/>
<rect x="899.1" y="56.6" class="st1" width="8.5" height="32.1"/>
<rect x="915.7" y="56.6" class="st1" width="8.5" height="32.1"/>
<rect x="928.4" y="56.6" class="st1" width="8.5" height="32.1"/>
<rect x="940.9" y="56.6" class="st1" width="8.5" height="32.1"/>
<rect x="953.5" y="56.6" class="st1" width="8.5" height="32.1"/>
<rect x="968" y="56.6" class="st1" width="8.5" height="32.1"/>
<rect x="260.3" y="64" class="st1" width="174.4" height="15.1"/>
<rect x="247.9" y="97.1" class="st1" width="151" height="7.9"/>
<rect x="281.4" y="119.7" class="st1" width="438" height="6.3"/>
<circle class="st2" cx="477.9" cy="84.7" r="18.4"/>
<circle class="st2" cx="523.5" cy="84.7" r="18.4"/>
<circle class="st2" cx="565.2" cy="84.7" r="18.4"/>
<circle class="st2" cx="479.7" cy="89.3" r="11"/>
<circle class="st2" cx="523.5" cy="87.1" r="11"/>
<circle class="st2" cx="565.2" cy="87.1" r="11"/>
<rect x="978.6" y="72.7" class="st1" width="70.7" height="52.7"/>
<rect x="1048.3" y="55.6" class="st1" width="69.8" height="32.4"/>
<rect x="303.1" y="23.5" class="st1" width="8.5" height="32.1"/>
<rect x="319.5" y="23.5" class="st1" width="8.5" height="32.1"/>
<rect x="332.6" y="23.5" class="st1" width="8.5" height="32.1"/>
<rect x="344.9" y="23.5" class="st1" width="8.5" height="32.1"/>
<rect x="359.3" y="23.5" class="st1" width="8.5" height="32.1"/>
<rect x="373.9" y="23.5" class="st1" width="8.5" height="32.1"/>
<rect x="386.6" y="23.5" class="st1" width="8.5" height="32.1"/>
<rect x="399.1" y="23.5" class="st1" width="8.5" height="32.1"/>
<rect x="411.7" y="23.5" class="st1" width="8.5" height="32.1"/>
<rect x="429.2" y="23.5" class="st1" width="8.5" height="32.1"/>
<rect x="472.4" y="9.6" class="st1" width="438" height="6.3"/>
<rect x="611.3" y="23.5" class="st1" width="438" height="6.3"/>
<line class="st3" x1="972.4" y1="127.3" x2="972.4" y2="174.5"/>
<line class="st3" x1="926.7" y1="127.3" x2="926.7" y2="174.5"/>
<line class="st3" x1="879.4" y1="127.3" x2="879.4" y2="174.5"/>
<line class="st3" x1="856.1" y1="127.3" x2="856.1" y2="174.5"/>
<line class="st3" x1="786.3" y1="127.3" x2="786.3" y2="174.5"/>
<line class="st3" x1="759.2" y1="127.3" x2="759.2" y2="174.5"/>
<line class="st3" x1="700.3" y1="127.3" x2="700.3" y2="174.5"/>
<line class="st3" x1="670.8" y1="127.3" x2="670.8" y2="174.5"/>
<line class="st3" x1="647.5" y1="127.3" x2="647.5" y2="174.5"/>
<line class="st3" x1="625" y1="127.3" x2="625" y2="174.5"/>
<line class="st3" x1="579.3" y1="127.3" x2="579.3" y2="174.5"/>
<line class="st3" x1="510.3" y1="127.3" x2="510.3" y2="174.5"/>
</svg>
