<?xml version="1.0" encoding="utf-8"?>
<!-- Generator: Adobe Illustrator 23.0.3, SVG Export Plug-In . SVG Version: 6.00 Build 0)  -->
<svg version="1.1" id="Layer_1" xmlns="http://www.w3.org/2000/svg" xmlns:xlink="http://www.w3.org/1999/xlink" x="0px" y="0px"
	 viewBox="0 0 1366 142" style="enable-background:new 0 0 1366 142;" xml:space="preserve">
<rect x="837.6" y="73.3" width="8.5" height="32.1"/>
<rect x="850" y="73.3" width="8.5" height="32.1"/>
<rect x="863.1" y="73.3" width="8.5" height="32.1"/>
<rect x="875.4" y="73.3" width="8.5" height="32.1"/>
<rect x="887.8" y="73.3" width="8.5" height="32.1"/>
<rect x="904.4" y="73.3" width="8.5" height="32.1"/>
<rect x="917.1" y="73.3" width="8.5" height="32.1"/>
<rect x="929.6" y="73.3" width="8.5" height="32.1"/>
<rect x="942.2" y="73.3" width="8.5" height="32.1"/>
<rect x="956.7" y="73.3" width="8.5" height="32.1"/>
<rect x="262.2" y="47.8" width="174.4" height="15.1"/>
<rect x="249.8" y="80.9" width="151" height="7.9"/>
<rect x="283.3" y="104" width="518.7" height="6.9"/>
<rect x="1037.1" y="72.3" width="69.8" height="32.4"/>
<rect x="464.9" y="50.9" width="8.5" height="32.1"/>
<rect x="481.3" y="50.9" width="8.5" height="32.1"/>
<rect x="494.4" y="50.9" width="8.5" height="32.1"/>
<rect x="506.7" y="50.9" width="8.5" height="32.1"/>
<rect x="521.1" y="50.9" width="8.5" height="32.1"/>
<rect x="535.7" y="50.9" width="8.5" height="32.1"/>
<rect x="548.4" y="50.9" width="8.5" height="32.1"/>
<rect x="560.9" y="50.9" width="8.5" height="32.1"/>
<rect x="573.5" y="50.9" width="8.5" height="32.1"/>
<rect x="591" y="50.9" width="8.5" height="32.1"/>
<rect x="472.4" y="37" width="438" height="6.3"/>
<rect x="611.3" y="50.9" width="438" height="6.3"/>
</svg>
