<?xml version="1.0" encoding="utf-8"?>
<!-- Generator: Adobe Illustrator 23.0.3, SVG Export Plug-In . SVG Version: 6.00 Build 0)  -->
<svg version="1.1" id="Layer_1" xmlns="http://www.w3.org/2000/svg" xmlns:xlink="http://www.w3.org/1999/xlink" x="0px" y="0px"
	 viewBox="0 0 1366 177.4" style="enable-background:new 0 0 1366 177.4;" xml:space="preserve">
<style type="text/css">
	.st0{fill:none;stroke:#FFFFFF;stroke-width:0.6072;stroke-miterlimit:10;}
	.st1{fill:#FFFFFF;}
	.st2{fill:none;stroke:#FFFFFF;stroke-miterlimit:10;}
</style>
<line class="st0" x1="530.8" y1="46.6" x2="812.7" y2="46.6"/>
<line class="st0" x1="530.8" y1="52.5" x2="812.7" y2="52.5"/>
<line class="st0" x1="530.8" y1="58.6" x2="812.7" y2="58.6"/>
<line class="st0" x1="530.8" y1="61.6" x2="812.7" y2="61.6"/>
<line class="st0" x1="530.8" y1="70.6" x2="812.7" y2="70.6"/>
<line class="st0" x1="530.8" y1="74.1" x2="812.7" y2="74.1"/>
<line class="st0" x1="530.8" y1="81.7" x2="812.7" y2="81.7"/>
<line class="st0" x1="530.8" y1="85.5" x2="812.7" y2="85.5"/>
<line class="st0" x1="530.8" y1="88.5" x2="812.7" y2="88.5"/>
<line class="st0" x1="530.8" y1="91.4" x2="812.7" y2="91.4"/>
<line class="st0" x1="530.8" y1="97.3" x2="812.7" y2="97.3"/>
<line class="st0" x1="530.8" y1="106.2" x2="812.7" y2="106.2"/>
<rect x="779.3" y="42.5" class="st1" width="8.5" height="32.1"/>
<rect x="791.7" y="42.5" class="st1" width="8.5" height="32.1"/>
<rect x="804.8" y="42.5" class="st1" width="8.5" height="32.1"/>
<rect x="817.1" y="42.5" class="st1" width="8.5" height="32.1"/>
<rect x="829.5" y="42.5" class="st1" width="8.5" height="32.1"/>
<rect x="846.1" y="42.5" class="st1" width="8.5" height="32.1"/>
<rect x="858.8" y="42.5" class="st1" width="8.5" height="32.1"/>
<rect x="871.3" y="42.5" class="st1" width="8.5" height="32.1"/>
<rect x="883.9" y="42.5" class="st1" width="8.5" height="32.1"/>
<rect x="898.4" y="42.5" class="st1" width="8.5" height="32.1"/>
<rect x="190.7" y="49.9" class="st1" width="174.4" height="15.1"/>
<rect x="178.3" y="83" class="st1" width="151" height="7.9"/>
<rect x="211.8" y="105.6" class="st1" width="438" height="6.3"/>
<circle class="st2" cx="408.3" cy="70.6" r="18.4"/>
<circle class="st2" cx="453.9" cy="70.6" r="18.4"/>
<circle class="st2" cx="495.6" cy="70.6" r="18.4"/>
<circle class="st2" cx="410.1" cy="75.2" r="11"/>
<circle class="st2" cx="453.9" cy="73" r="11"/>
<circle class="st2" cx="495.6" cy="73" r="11"/>
<rect x="909" y="58.6" class="st1" width="70.7" height="52.7"/>
<rect x="979.7" y="41.5" class="st1" width="69.8" height="32.4"/>
<rect x="1049.5" y="51" class="st1" width="136.1" height="13.3"/>
<rect x="1052" y="73.8" class="st1" width="135.2" height="14.6"/>
<rect x="1094.9" y="32.4" class="st1" width="129" height="10.1"/>
<rect x="1094.9" y="55.6" class="st1" width="129" height="10.1"/>
<rect x="1094.9" y="78.9" class="st1" width="129" height="10.1"/>
<rect x="1094.9" y="102.2" class="st1" width="129" height="10.1"/>
<rect x="1094.9" y="125.4" class="st1" width="129" height="10.1"/>
<rect x="139" y="7.9" class="st1" width="75.2" height="57.1"/>
<rect x="139" y="70" class="st1" width="58.4" height="52.7"/>
<rect x="143.5" y="136" class="st1" width="74.2" height="6.3"/>
<rect x="237.5" y="9.4" class="st1" width="8.5" height="32.1"/>
<rect x="249.9" y="9.4" class="st1" width="8.5" height="32.1"/>
<rect x="263" y="9.4" class="st1" width="8.5" height="32.1"/>
<rect x="275.3" y="9.4" class="st1" width="8.5" height="32.1"/>
<rect x="287.7" y="9.4" class="st1" width="8.5" height="32.1"/>
<rect x="304.3" y="9.4" class="st1" width="8.5" height="32.1"/>
<rect x="317" y="9.4" class="st1" width="8.5" height="32.1"/>
<rect x="329.5" y="9.4" class="st1" width="8.5" height="32.1"/>
<rect x="342.1" y="9.4" class="st1" width="8.5" height="32.1"/>
<rect x="356.6" y="9.4" class="st1" width="8.5" height="32.1"/>
</svg>
