<?xml version="1.0" encoding="utf-8"?>
<!-- Generator: Adobe Illustrator 23.0.2, SVG Export Plug-In . SVG Version: 6.00 Build 0)  -->
<svg version="1.1" id="Layer_1" xmlns="http://www.w3.org/2000/svg" xmlns:xlink="http://www.w3.org/1999/xlink" x="0px" y="0px"
	 viewBox="0 0 1000 400" style="enable-background:new 0 0 1000 400;" xml:space="preserve">
<style type="text/css">
	.st0{fill-rule:evenodd;clip-rule:evenodd;fill:#F20C3E;}
	.st1{fill-rule:evenodd;clip-rule:evenodd;fill:#0C2231;}
	.st2{fill:#D6E9F5;}
	.st3{fill:#0C2231;}
	.st4{fill:#153A4F;}
</style>
<polygon class="st0" points="317.7,24.7 148.6,70 272.4,193.8 "/>
<rect x="228.6" y="256.2" class="st0" width="584.5" height="22"/>
<g>
	
		<rect x="142.9" y="212.2" transform="matrix(0.3422 -0.9396 0.9396 0.3422 -59.7157 351.4602)" class="st1" width="156.5" height="12.3"/>
	
		<rect x="122.4" y="204.8" transform="matrix(0.3422 -0.9396 0.9396 0.3422 -66.2494 327.2345)" class="st1" width="156.5" height="12.3"/>
	
		<rect x="101.2" y="198.4" transform="matrix(0.3422 -0.9396 0.9396 0.3422 -74.1936 303.181)" class="st1" width="156.5" height="12.3"/>
	
		<rect x="80.8" y="190.3" transform="matrix(0.3422 -0.9396 0.9396 0.3422 -79.9771 278.6533)" class="st1" width="156.5" height="12.3"/>
	
		<rect x="60.1" y="182.7" transform="matrix(0.3422 -0.9396 0.9396 0.3422 -86.5259 254.1974)" class="st1" width="156.5" height="12.3"/>
	
		<rect x="39.1" y="176.5" transform="matrix(0.3422 -0.9396 0.9396 0.3422 -94.5023 230.3998)" class="st1" width="156.5" height="12.3"/>
</g>
<g>
	<ellipse class="st2" cx="170.2" cy="294.3" rx="43" ry="43"/>
	
		<rect x="144.9" y="126.7" transform="matrix(0.9777 -0.21 0.21 0.9777 -41.6714 36.8372)" class="st2" width="15.4" height="175.9"/>
	<polygon class="st2" points="148.6,122.3 117.4,129 115.7,86 133.6,82.1 	"/>
	<circle class="st2" cx="142.6" cy="86.2" r="3.9"/>
	<circle class="st2" cx="147.7" cy="99.3" r="3.9"/>
	<circle class="st2" cx="153.2" cy="113.1" r="3.9"/>
	<ellipse class="st2" cx="108.8" cy="93" rx="3.9" ry="3.9"/>
	<ellipse class="st2" cx="109.6" cy="107.1" rx="3.9" ry="3.9"/>
	<ellipse class="st2" cx="110.2" cy="121.9" rx="3.9" ry="3.9"/>
</g>
<rect x="710" y="135.6" transform="matrix(0.5 -0.866 0.866 0.5 206.5303 706.7148)" class="st1" width="10.6" height="77.8"/>
<rect x="381.2" y="210.2" transform="matrix(0.866 -0.5 0.5 0.866 -51.4743 238.9345)" class="st1" width="77.8" height="10.6"/>
<rect x="575.1" y="164.5" transform="matrix(0.8331 -0.5531 0.5531 0.8331 -15.6173 354.9553)" class="st1" width="10.6" height="77.8"/>
<rect x="408.5" y="21.8" transform="matrix(0.5 -0.866 0.866 0.5 154.3814 388.7015)" class="st1" width="10.6" height="77.8"/>
<rect x="570" y="31.3" transform="matrix(0.866 -0.5 0.5 0.866 63.2818 309.3756)" class="st1" width="77.8" height="10.6"/>
<polygon class="st0" points="883.9,105.9 742.2,208.5 901.9,280 "/>
<path class="st3" d="M932.8,151.8c-11.8,0-17.8,3.8-23.1,7.1c-4.7,2.9-8.4,5.2-16.4,5.2c-8,0-11.8-2.3-16.4-5.2
	c-5.3-3.4-11.4-7.1-23.1-7.1c-11.7,0-17.8,3.8-23.1,7.1c-4.7,2.9-8.4,5.2-16.4,5.2c-8,0-11.8-2.3-16.4-5.2
	c-5.3-3.4-11.4-7.1-23.1-7.1v10.3c8,0,11.8,2.3,16.4,5.2c5.3,3.4,11.4,7.1,23.1,7.1c11.7,0,17.8-3.8,23.1-7.1
	c4.7-2.9,8.4-5.2,16.4-5.2c8,0,11.8,2.3,16.4,5.2c5.3,3.4,11.4,7.1,23.1,7.1c11.8,0,17.8-3.8,23.1-7.1c4.7-2.9,8.4-5.2,16.4-5.2
	c8,0,11.8,2.3,16.4,5.2c5.3,3.4,11.4,7.1,23.1,7.1v-10.3c-8,0-11.8-2.3-16.4-5.2C950.6,155.6,944.4,151.8,932.8,151.8z"/>
<path class="st3" d="M932.8,91.1c-11.8,0-17.8,3.8-23.1,7.1c-4.7,2.9-8.4,5.2-16.4,5.2c-8,0-11.8-2.3-16.4-5.2
	c-5.3-3.4-11.4-7.1-23.1-7.1c-11.7,0-17.8,3.8-23.1,7.1c-4.7,2.9-8.4,5.2-16.4,5.2c-8,0-11.8-2.3-16.4-5.2
	c-5.3-3.4-11.4-7.1-23.1-7.1v10.3c8,0,11.8,2.3,16.4,5.2c5.3,3.4,11.4,7.1,23.1,7.1c11.7,0,17.8-3.8,23.1-7.1
	c4.7-2.9,8.4-5.2,16.4-5.2c8,0,11.8,2.3,16.4,5.2c5.3,3.4,11.4,7.1,23.1,7.1c11.8,0,17.8-3.8,23.1-7.1c4.7-2.9,8.4-5.2,16.4-5.2
	c8,0,11.8,2.3,16.4,5.2c5.3,3.4,11.4,7.1,23.1,7.1v-10.3c-8,0-11.8-2.3-16.4-5.2C950.6,94.8,944.4,91.1,932.8,91.1z"/>
<path class="st3" d="M932.8,121.4c-11.8,0-17.8,3.8-23.1,7.1c-4.7,2.9-8.4,5.2-16.4,5.2c-8,0-11.8-2.3-16.4-5.2
	c-5.3-3.4-11.4-7.1-23.1-7.1c-11.7,0-17.8,3.8-23.1,7.1c-4.7,2.9-8.4,5.2-16.4,5.2c-8,0-11.8-2.3-16.4-5.2
	c-5.3-3.4-11.4-7.1-23.1-7.1v10.3c8,0,11.8,2.3,16.4,5.2c5.3,3.4,11.4,7.1,23.1,7.1c11.7,0,17.8-3.8,23.1-7.1
	c4.7-2.9,8.4-5.2,16.4-5.2c8,0,11.8,2.3,16.4,5.2c5.3,3.4,11.4,7.1,23.1,7.1c11.8,0,17.8-3.8,23.1-7.1c4.7-2.9,8.4-5.2,16.4-5.2
	c8,0,11.8,2.3,16.4,5.2c5.3,3.4,11.4,7.1,23.1,7.1v-10.2c-8,0-11.8-2.3-16.4-5.2C950.6,125.2,944.4,121.4,932.8,121.4z"/>
<path class="st3" d="M955.9,67.8c-5.3-3.4-11.4-7.1-23.1-7.1s-17.8,3.8-23.1,7.1c-4.7,2.9-8.4,5.2-16.4,5.2c-8,0-11.8-2.3-16.4-5.2
	c-5.3-3.4-11.4-7.1-23.1-7.1c-11.7,0-17.8,3.8-23.1,7.1c-4.7,2.9-8.4,5.2-16.4,5.2c-8,0-11.8-2.3-16.4-5.2
	c-5.4-3.3-11.5-7.1-23.1-7.1V71c8,0,11.8,2.3,16.4,5.2c5.3,3.4,11.4,7.1,23.1,7.1c11.7,0,17.8-3.8,23.1-7.1
	c4.7-2.9,8.4-5.2,16.4-5.2s11.8,2.3,16.4,5.2c5.3,3.4,11.4,7.1,23.1,7.1c11.7,0,17.8-3.8,23.1-7.1c4.7-2.9,8.4-5.2,16.4-5.2
	c8,0,11.8,2.3,16.4,5.2c5.3,3.4,11.4,7.1,23.1,7.1V73C964.3,73,960.5,70.8,955.9,67.8z"/>
<path class="st3" d="M955.9,159c-5.3-3.4-11.4-7.1-23.1-7.1c-11.7,0-17.8,3.8-23.1,7.1c-4.7,2.9-8.4,5.2-16.4,5.2
	c-8,0-11.8-2.3-16.4-5.2c-5.3-3.4-11.4-7.1-23.1-7.1c-11.7,0-17.8,3.8-23.1,7.1c-4.7,2.9-8.4,5.2-16.4,5.2c-8,0-11.8-2.3-16.4-5.2
	c-5.3-3.4-11.4-7.1-23.1-7.1v10.3c8,0,11.8,2.3,16.4,5.2c5.3,3.4,11.4,7.1,23.1,7.1c11.7,0,17.8-3.8,23.1-7.1
	c4.7-2.9,8.4-5.2,16.4-5.2c8,0,11.8,2.3,16.4,5.2c5.3,3.4,11.4,7.1,23.1,7.1c11.8,0,17.8-3.8,23.1-7.1c4.7-2.9,8.4-5.2,16.4-5.2
	c8,0,11.8,2.3,16.4,5.2c5.3,3.4,11.4,7.1,23.1,7.1v-10.3C964.3,164.3,960.5,162.1,955.9,159z"/>
<g>
	<circle class="st2" cx="886.4" cy="267.2" r="51.7"/>
	
		<ellipse transform="matrix(0.4395 -0.8982 0.8982 0.4395 323.3925 936.5134)" class="st2" cx="912.1" cy="209.1" rx="5.4" ry="23.5"/>
	<rect x="854.8" y="203.4" class="st2" width="28.9" height="6.9"/>
	<circle class="st4" cx="886.4" cy="267.2" r="17.1"/>
</g>
<g>
	<path d="M365.5,148.4c0.4,2.2,1.4,3.9,2.9,5c1.5,1.1,3.3,1.5,5.4,1.1c1-0.2,2-0.6,3.2-1.2l2.9,15.8c-2.4,1.4-5.2,2.4-8.1,2.9
		c-4.5,0.8-8.4,0.5-11.6-1.1c-3.2-1.5-6-3.9-8.2-7l1.8,9.9l-20.6,3.8l-8.8-48.1l20.6-3.8l4.4,24.4l7.7-16l16.5-3L365.5,148.4z"/>
	<path d="M395.8,125.8c3.2-0.6,6.2-0.6,9,0c2.8,0.6,5.4,1.6,7.6,3.1c2.2,1.5,4.1,3.4,5.6,5.6c1.5,2.3,2.5,4.8,3.1,7.6
		c0.5,2.8,0.4,5.5-0.2,8.2c-0.6,2.7-1.7,5.1-3.3,7.3c-1.6,2.2-3.6,4-6.1,5.6c-2.5,1.5-5.3,2.6-8.4,3.2c-3.2,0.6-6.2,0.6-9,0
		c-2.9-0.6-5.4-1.6-7.6-3.1c-2.2-1.5-4.1-3.4-5.6-5.6c-1.5-2.3-2.5-4.8-3.1-7.6c-0.5-2.8-0.5-5.5,0.2-8.2c0.6-2.7,1.7-5.1,3.3-7.3
		c1.6-2.2,3.6-4,6.1-5.6C389.8,127.4,392.6,126.3,395.8,125.8z M400.1,149.5c1-0.2,1.7-0.7,2.3-1.4c0.5-0.8,0.7-1.7,0.6-2.6
		c-0.2-1-0.7-1.7-1.4-2.3c-0.8-0.5-1.7-0.7-2.6-0.6c-1,0.2-1.7,0.7-2.3,1.4c-0.5,0.8-0.7,1.7-0.6,2.6c0.2,1,0.7,1.7,1.4,2.3
		C398.3,149.5,399.1,149.7,400.1,149.5z"/>
	<path d="M451.5,116.3c4.5-0.8,8.2-0.3,10.9,1.5c2.7,1.8,4.5,5,5.3,9.4l4.6,25.1l-20.6,3.8l-3.4-18.8c-0.4-1.9-1.3-2.8-2.7-2.5
		c-0.6,0.1-1.1,0.5-1.5,1c-0.3,0.6-0.4,1.3-0.2,2.3l3.4,18.8l-20.6,3.8l-6.9-37.8l15.1-2.8l3.7,5.9c1.1-2.5,2.7-4.5,4.8-6.2
		C445.5,118.1,448.2,116.9,451.5,116.3z"/>
	<path d="M502.9,133.1c1.2-0.2,2.1-0.6,2.8-1.3c0.7-0.6,1.3-1.5,2-2.4l6.4,2.5c-1.2,5-3.4,8.9-6.4,11.8c-3,2.9-6.8,4.8-11.4,5.6
		c-3.2,0.6-6.2,0.6-9.1,0c-2.9-0.6-5.4-1.6-7.7-3.1c-2.3-1.5-4.1-3.4-5.6-5.6c-1.5-2.3-2.5-4.8-3-7.6c-0.5-2.8-0.5-5.5,0.1-8.2
		c0.6-2.7,1.7-5.1,3.3-7.3c1.6-2.2,3.6-4,6.1-5.6c2.5-1.5,5.3-2.6,8.5-3.2c4.6-0.8,8.8-0.4,12.7,1.2c3.9,1.7,7.2,4.6,10.1,8.8
		l-5.1,4.6c-0.9-0.7-1.8-1.2-2.7-1.6c-0.9-0.4-1.9-0.4-3.1-0.2c-1.7,0.3-3.1,1.1-4,2.4c-0.9,1.3-1.3,2.8-1,4.4
		c0.3,1.7,1.1,2.9,2.5,3.8C499.6,133.2,501.2,133.4,502.9,133.1z"/>
	<path d="M545.5,126.6c1.5-0.3,2.8-0.8,3.9-1.7c1.1-0.8,2.1-1.8,3-3l5.1,2.1c-1,4.6-2.8,8.4-5.6,11.4c-2.8,3-6.7,5-11.7,5.9
		c-3.3,0.6-6.4,0.6-9.3,0.1c-2.9-0.6-5.5-1.6-7.8-3.1c-2.3-1.5-4.2-3.4-5.7-5.6c-1.5-2.3-2.5-4.8-3.1-7.6c-0.5-2.8-0.5-5.5,0.2-8.2
		s1.7-5.1,3.3-7.3c1.6-2.2,3.6-4,6.1-5.6c2.5-1.5,5.3-2.6,8.5-3.2c3.1-0.6,6.1-0.6,8.9-0.1c2.8,0.5,5.3,1.5,7.5,3
		c2.2,1.5,4.1,3.4,5.7,5.8c1.5,2.4,2.6,5.1,3.2,8.3l-19.5,3.5c0.6,1.8,1.5,3.2,2.8,4.1C542.3,126.5,543.8,126.9,545.5,126.6z
		 M541.5,111.7c-1.1,0.2-1.9,0.6-2.6,1.3c-0.7,0.7-1.1,1.7-1.3,2.9l8.8-1.6C545.4,112.1,543.7,111.3,541.5,111.7z"/>
	<path d="M576.1,102.7c1.1-3.3,2.6-6,4.7-8.1s4.4-3.3,6.9-3.8l3.4,18.9c-1.3,0.2-2.6,0.7-3.8,1.4c-1.2,0.7-2.3,1.6-3.2,2.8
		c-0.9,1.2-1.5,2.5-1.9,4.1c-0.4,1.6-0.4,3.4,0,5.4l1.6,8.6l-20.6,3.8L556.2,98l15.1-2.8L576.1,102.7z"/>
	<path d="M612.6,103.3l0.4,2.3c0.1,0.7,0.4,1.5,0.7,2.4c0.3,0.9,0.7,1.7,1.3,2.4c0.6,0.7,1.3,1.2,2.3,1.6c0.9,0.4,2.1,0.4,3.5,0.2
		c0.6-0.1,1.2-0.3,2-0.6l2.3,12.8c-1.4,0.8-2.9,1.4-4.4,1.9c-1.5,0.5-3.1,0.9-4.7,1.2c-2.5,0.5-5,0.6-7.5,0.4
		c-2.5-0.2-4.7-0.9-6.8-2.1c-2.1-1.2-3.9-2.9-5.5-5.3c-1.6-2.3-2.7-5.4-3.4-9.1L589.2,92l18.7-14.5l2,10.7l8.3-1.5l2.8,15.1
		L612.6,103.3z"/>
	<path d="M667.7,77.7l-18.5,53.1l-20.8,3.8l8.4-22.3l-21.4-25l21.3-3.9l7.4,9.4l2.9-11.3L667.7,77.7z"/>
	<path d="M686,65.1l-1.9,28.8l-7.6,1.4L664.7,69L686,65.1z M684,114.4c-1.1,0.2-2.3,0.2-3.3-0.1s-2-0.7-2.9-1.3
		c-0.9-0.6-1.6-1.4-2.2-2.3c-0.6-0.9-1-1.9-1.2-3s-0.2-2.2,0-3.2c0.2-1.1,0.6-2,1.2-2.9c0.6-0.9,1.4-1.6,2.3-2.2
		c0.9-0.6,1.9-1,3.1-1.2c1.1-0.2,2.2-0.2,3.2,0.1c1.1,0.3,2,0.7,2.9,1.3c0.9,0.6,1.6,1.4,2.2,2.3c0.6,0.9,1,1.9,1.2,3s0.2,2.2,0,3.2
		c-0.2,1.1-0.7,2-1.2,2.9c-0.6,0.9-1.4,1.6-2.3,2.2C686.1,113.8,685.1,114.2,684,114.4z"/>
</g>
</svg>
