<?xml version="1.0" encoding="utf-8"?>
<!-- Generator: Adobe Illustrator 23.0.2, SVG Export Plug-In . SVG Version: 6.00 Build 0)  -->
<svg version="1.1" id="Layer_1" xmlns="http://www.w3.org/2000/svg" xmlns:xlink="http://www.w3.org/1999/xlink" x="0px" y="0px"
	 viewBox="0 0 1000 400" style="enable-background:new 0 0 1000 400;" xml:space="preserve">
<style type="text/css">
	.st0{fill-rule:evenodd;clip-rule:evenodd;fill:#F20C3E;}
	.st1{fill-rule:evenodd;clip-rule:evenodd;fill:#0C2231;}
	.st2{fill:#D6E9F5;}
	.st3{fill:#0C2231;}
	.st4{fill:#153A4F;}
</style>
<polygon class="st0" points="317.7,24.7 148.6,70 272.4,193.8 "/>
<rect x="228.6" y="256.2" class="st0" width="584.5" height="22"/>
<g>
	
		<rect x="142.9" y="212.2" transform="matrix(0.3422 -0.9396 0.9396 0.3422 -59.7486 351.426)" class="st1" width="156.5" height="12.3"/>
	
		<rect x="122.4" y="204.7" transform="matrix(0.3422 -0.9396 0.9396 0.3422 -66.1909 327.2311)" class="st1" width="156.5" height="12.3"/>
	
		<rect x="101.2" y="198.4" transform="matrix(0.3422 -0.9396 0.9396 0.3422 -74.2019 303.1396)" class="st1" width="156.5" height="12.3"/>
	
		<rect x="80.8" y="190.3" transform="matrix(0.3422 -0.9396 0.9396 0.3422 -79.9638 278.6457)" class="st1" width="156.5" height="12.3"/>
	
		<rect x="60" y="182.7" transform="matrix(0.3422 -0.9396 0.9396 0.3422 -86.4807 254.1228)" class="st1" width="156.5" height="12.3"/>
	
		<rect x="39" y="176.5" transform="matrix(0.3422 -0.9396 0.9396 0.3422 -94.4724 230.3317)" class="st1" width="156.5" height="12.3"/>
</g>
<g>
	<ellipse class="st2" cx="170.2" cy="294.3" rx="43" ry="43"/>
	
		<rect x="144.9" y="126.7" transform="matrix(0.9777 -0.21 0.21 0.9777 -41.6747 36.833)" class="st2" width="15.4" height="175.9"/>
	<polygon class="st2" points="148.6,122.3 117.4,129 115.7,86 133.6,82.1 	"/>
	<circle class="st2" cx="142.6" cy="86.2" r="3.9"/>
	<circle class="st2" cx="147.7" cy="99.3" r="3.9"/>
	<circle class="st2" cx="153.2" cy="113.1" r="3.9"/>
	<ellipse class="st2" cx="108.8" cy="93" rx="3.9" ry="3.9"/>
	<ellipse class="st2" cx="109.6" cy="107.1" rx="3.9" ry="3.9"/>
	<ellipse class="st2" cx="110.2" cy="121.9" rx="3.9" ry="3.9"/>
</g>
<rect x="710" y="135.6" transform="matrix(0.5 -0.866 0.866 0.5 206.5075 706.7167)" class="st1" width="10.6" height="77.8"/>
<rect x="381.2" y="210.2" transform="matrix(0.866 -0.5 0.5 0.866 -51.4731 238.9197)" class="st1" width="77.8" height="10.6"/>
<rect x="575.1" y="164.5" transform="matrix(0.8331 -0.5531 0.5531 0.8331 -15.6305 354.9747)" class="st1" width="10.6" height="77.8"/>
<rect x="408.5" y="21.8" transform="matrix(0.5 -0.866 0.866 0.5 154.3513 388.7496)" class="st1" width="10.6" height="77.8"/>
<rect x="570" y="31.3" transform="matrix(0.866 -0.5 0.5 0.866 63.2685 309.3578)" class="st1" width="77.8" height="10.6"/>
<polygon class="st0" points="883.9,105.9 742.2,208.5 901.9,280 "/>
<path class="st3" d="M932.8,151.8c-11.8,0-17.8,3.8-23.1,7.1c-4.7,2.9-8.4,5.2-16.4,5.2s-11.8-2.3-16.4-5.2
	c-5.3-3.4-11.4-7.1-23.1-7.1c-11.7,0-17.8,3.8-23.1,7.1c-4.7,2.9-8.4,5.2-16.4,5.2s-11.8-2.3-16.4-5.2c-5.3-3.4-11.4-7.1-23.1-7.1
	v10.3c8,0,11.8,2.3,16.4,5.2c5.3,3.4,11.4,7.1,23.1,7.1c11.7,0,17.8-3.8,23.1-7.1c4.7-2.9,8.4-5.2,16.4-5.2s11.8,2.3,16.4,5.2
	c5.3,3.4,11.4,7.1,23.1,7.1c11.8,0,17.8-3.8,23.1-7.1c4.7-2.9,8.4-5.2,16.4-5.2s11.8,2.3,16.4,5.2c5.3,3.4,11.4,7.1,23.1,7.1v-10.3
	c-8,0-11.8-2.3-16.4-5.2C950.6,155.6,944.4,151.8,932.8,151.8z"/>
<path class="st3" d="M932.8,91.1c-11.8,0-17.8,3.8-23.1,7.1c-4.7,2.9-8.4,5.2-16.4,5.2s-11.8-2.3-16.4-5.2
	c-5.3-3.4-11.4-7.1-23.1-7.1c-11.7,0-17.8,3.8-23.1,7.1c-4.7,2.9-8.4,5.2-16.4,5.2s-11.8-2.3-16.4-5.2c-5.3-3.4-11.4-7.1-23.1-7.1
	v10.3c8,0,11.8,2.3,16.4,5.2c5.3,3.4,11.4,7.1,23.1,7.1c11.7,0,17.8-3.8,23.1-7.1c4.7-2.9,8.4-5.2,16.4-5.2s11.8,2.3,16.4,5.2
	c5.3,3.4,11.4,7.1,23.1,7.1c11.8,0,17.8-3.8,23.1-7.1c4.7-2.9,8.4-5.2,16.4-5.2s11.8,2.3,16.4,5.2c5.3,3.4,11.4,7.1,23.1,7.1v-10.3
	c-8,0-11.8-2.3-16.4-5.2C950.6,94.8,944.4,91.1,932.8,91.1z"/>
<path class="st3" d="M932.8,121.4c-11.8,0-17.8,3.8-23.1,7.1c-4.7,2.9-8.4,5.2-16.4,5.2s-11.8-2.3-16.4-5.2
	c-5.3-3.4-11.4-7.1-23.1-7.1c-11.7,0-17.8,3.8-23.1,7.1c-4.7,2.9-8.4,5.2-16.4,5.2s-11.8-2.3-16.4-5.2c-5.3-3.4-11.4-7.1-23.1-7.1
	v10.3c8,0,11.8,2.3,16.4,5.2c5.3,3.4,11.4,7.1,23.1,7.1c11.7,0,17.8-3.8,23.1-7.1c4.7-2.9,8.4-5.2,16.4-5.2s11.8,2.3,16.4,5.2
	c5.3,3.4,11.4,7.1,23.1,7.1c11.8,0,17.8-3.8,23.1-7.1c4.7-2.9,8.4-5.2,16.4-5.2s11.8,2.3,16.4,5.2c5.3,3.4,11.4,7.1,23.1,7.1v-10.2
	c-8,0-11.8-2.3-16.4-5.2C950.6,125.2,944.4,121.4,932.8,121.4z"/>
<path class="st3" d="M955.9,67.8c-5.3-3.4-11.4-7.1-23.1-7.1s-17.8,3.8-23.1,7.1c-4.7,2.9-8.4,5.2-16.4,5.2s-11.8-2.3-16.4-5.2
	c-5.3-3.4-11.4-7.1-23.1-7.1c-11.7,0-17.8,3.8-23.1,7.1c-4.7,2.9-8.4,5.2-16.4,5.2s-11.8-2.3-16.4-5.2c-5.4-3.3-11.5-7.1-23.1-7.1
	V71c8,0,11.8,2.3,16.4,5.2c5.3,3.4,11.4,7.1,23.1,7.1c11.7,0,17.8-3.8,23.1-7.1c4.7-2.9,8.4-5.2,16.4-5.2s11.8,2.3,16.4,5.2
	c5.3,3.4,11.4,7.1,23.1,7.1c11.7,0,17.8-3.8,23.1-7.1c4.7-2.9,8.4-5.2,16.4-5.2s11.8,2.3,16.4,5.2c5.3,3.4,11.4,7.1,23.1,7.1V73
	C964.3,73,960.5,70.8,955.9,67.8z"/>
<path class="st3" d="M955.9,159c-5.3-3.4-11.4-7.1-23.1-7.1c-11.7,0-17.8,3.8-23.1,7.1c-4.7,2.9-8.4,5.2-16.4,5.2
	s-11.8-2.3-16.4-5.2c-5.3-3.4-11.4-7.1-23.1-7.1c-11.7,0-17.8,3.8-23.1,7.1c-4.7,2.9-8.4,5.2-16.4,5.2s-11.8-2.3-16.4-5.2
	c-5.3-3.4-11.4-7.1-23.1-7.1v10.3c8,0,11.8,2.3,16.4,5.2c5.3,3.4,11.4,7.1,23.1,7.1c11.7,0,17.8-3.8,23.1-7.1
	c4.7-2.9,8.4-5.2,16.4-5.2s11.8,2.3,16.4,5.2c5.3,3.4,11.4,7.1,23.1,7.1c11.8,0,17.8-3.8,23.1-7.1c4.7-2.9,8.4-5.2,16.4-5.2
	s11.8,2.3,16.4,5.2c5.3,3.4,11.4,7.1,23.1,7.1v-10.3C964.3,164.3,960.5,162.1,955.9,159z"/>
<g>
	<circle class="st2" cx="886.4" cy="267.2" r="51.7"/>
	
		<ellipse transform="matrix(0.4395 -0.8982 0.8982 0.4395 323.3232 936.4896)" class="st2" cx="912.1" cy="209.2" rx="5.4" ry="23.5"/>
	<rect x="854.8" y="203.4" class="st2" width="28.9" height="6.9"/>
	<circle class="st4" cx="886.4" cy="267.2" r="17.1"/>
</g>
<g>
	<path class="st3" d="M424.1,158.9c1.5-0.3,3-0.3,4.3-0.1c1.4,0.3,2.6,0.7,3.7,1.4c1.1,0.7,2,1.5,2.8,2.6c0.7,1,1.3,2.2,1.5,3.6
		c0.3,1.3,0.3,2.6,0,3.9c-0.3,1.3-0.8,2.4-1.5,3.5c-0.7,1.1-1.7,2-2.8,2.7c-1.1,0.8-2.5,1.3-4,1.6c-2.8,0.6-5.2,0.3-7.3-0.9
		c-2.1-1.1-3.6-2.8-4.5-5c-1.1,1.1-2.3,2.1-3.7,3c-1.4,0.9-3.3,1.7-5.7,2.2c-1.7,0.4-3.4,0.4-5,0.1c-1.6-0.3-3-0.9-4.3-1.8
		c-1.3-0.9-2.4-1.9-3.3-3.2s-1.5-2.6-1.8-4.1c-0.4-1.9-0.5-3.9-0.2-5.9c0.3-2,1.2-4.1,2.6-6.3c-2.1-1.4-3.9-3.2-5.3-5.3
		c-1.4-2.1-2.4-4.5-2.9-7.1c-0.5-2.7-0.5-5.4,0-8c0.6-2.6,1.6-5,3.1-7.1c1.5-2.1,3.4-4,5.8-5.5c2.3-1.5,5-2.6,8-3.2
		c2.5-0.5,4.9-0.6,7.3-0.4c-0.8-3.6-0.3-6.5,1.6-8.9c1.9-2.4,5.5-4.1,10.7-5.1l2.3,11.5c-1.6,0.3-2.9,1.1-3.8,2.2
		c-1,1.2-1.3,2.5-1.1,4c2,1.4,3.7,3.1,5,5.2c1.3,2,2.3,4.3,2.8,6.8c0.5,2.7,0.5,5.4,0,7.9c-0.6,2.6-1.6,5-3.1,7.1
		c-1.5,2.2-3.4,4-5.8,5.6c-2.3,1.5-5,2.6-8,3.2c-2.3,0.5-4.5,0.6-6.7,0.4c0,0.3,0,0.6,0.1,0.9c0,0.3,0.1,0.6,0.1,0.9
		c0.3,1.6,1.1,2.8,2.3,3.4c1.2,0.7,2.6,0.8,4.3,0.5c1.4-0.3,2.5-0.7,3.4-1.3c0.9-0.6,1.8-1.2,2.6-1.9c0.8-0.7,1.7-1.3,2.7-1.9
		C421.3,159.7,422.6,159.2,424.1,158.9z M407,136.8c-0.7,0.1-1.3,0.5-1.7,1.2c-0.4,0.6-0.6,1.4-0.4,2.1c0.2,0.8,0.6,1.3,1.2,1.7
		c0.6,0.4,1.3,0.5,2,0.3c0.7-0.1,1.3-0.5,1.7-1.1c0.4-0.6,0.6-1.3,0.4-2c-0.2-0.8-0.6-1.4-1.2-1.8
		C408.4,136.8,407.8,136.7,407,136.8z M426.6,171.2c0.8-0.2,1.4-0.5,1.8-1.2c0.4-0.6,0.5-1.3,0.4-2.1s-0.5-1.4-1.2-1.8
		c-0.6-0.4-1.3-0.5-2.1-0.4c-0.8,0.2-1.4,0.5-1.8,1.2c-0.4,0.6-0.5,1.3-0.4,2.1s0.5,1.4,1.2,1.8
		C425.2,171.2,425.8,171.3,426.6,171.2z"/>
	<path class="st3" d="M478,137.1c0.5-0.1,1-0.3,1.5-0.6l2.6,13c-1.4,0.7-2.8,1.4-4.2,2c-1.4,0.6-3.2,1.1-5.5,1.6
		c-4,0.8-7.3,0.9-9.9,0.3c-2.6-0.6-4.9-1.9-6.8-3.8c-0.6,2.2-1.8,4-3.5,5.7c-1.7,1.6-3.8,2.7-6.3,3.2c-1.8,0.4-3.5,0.4-5.1,0.1
		s-3-0.9-4.3-1.7c-1.3-0.8-2.3-1.9-3.2-3.2c-0.9-1.3-1.5-2.7-1.8-4.4c-0.3-1.6-0.4-3.2-0.1-4.7c0.3-1.5,0.8-2.9,1.7-4.1
		c0.8-1.2,1.9-2.3,3.3-3.2c1.4-0.9,2.9-1.6,4.7-1.9c2.1-0.4,4.2-0.3,6.4,0.2c-0.6-1.3-1.3-2.4-1.8-3.4c-0.6-0.9-1.3-1.7-2.1-2.3
		c-0.8-0.6-1.8-0.9-2.9-1.1c-1.1-0.1-2.5-0.1-4.1,0.3c-2,0.4-3.9,1.1-5.6,2.1l-3-14.6c1.9-1,3.9-1.8,6.2-2.5
		c2.2-0.7,4.3-1.2,6.3-1.6c4.7-0.9,8.6-1.1,11.9-0.5c3.3,0.6,6.1,1.7,8.5,3.4c2.4,1.7,4.4,3.9,6.1,6.5c1.7,2.6,3.2,5.6,4.5,8.7
		c0.9,2.2,1.8,3.9,2.7,5.1C475.2,137,476.4,137.5,478,137.1z M449.6,147.6c0.7-0.1,1.3-0.5,1.7-1.1c0.4-0.6,0.6-1.3,0.4-2.1
		c-0.2-0.8-0.6-1.4-1.2-1.8c-0.6-0.4-1.3-0.5-2-0.4c-0.8,0.2-1.4,0.5-1.8,1.2c-0.4,0.6-0.5,1.3-0.4,2.1c0.2,0.8,0.6,1.4,1.2,1.8
		C448.2,147.6,448.9,147.7,449.6,147.6z"/>
	<path class="st3" d="M495.9,90.9l10.9,53.7l-23,4.7l-10.9-53.7L495.9,90.9z"/>
	<path class="st3" d="M539.7,123.9c1.6-0.3,3.1-1,4.3-1.9c1.2-1,2.3-2.1,3.3-3.4l5.8,2.3c-1,5.1-3,9.5-6,12.9c-3,3.5-7.4,5.8-13,6.9
		c-3.7,0.7-7.2,0.8-10.4,0.3c-3.3-0.6-6.2-1.6-8.8-3.3c-2.6-1.6-4.7-3.7-6.5-6.2c-1.8-2.5-3-5.3-3.6-8.5c-0.6-3.1-0.6-6.2,0-9.2
		c0.6-3,1.8-5.7,3.6-8.2c1.7-2.5,4-4.6,6.7-6.4c2.8-1.8,5.9-3,9.5-3.8c3.5-0.7,6.8-0.8,9.9-0.3c3.1,0.5,6,1.6,8.5,3.2
		c2.5,1.6,4.7,3.7,6.5,6.4c1.8,2.6,3,5.7,3.7,9.2l-21.7,4.4c0.7,2,1.7,3.5,3.2,4.5C536.2,124,537.8,124.3,539.7,123.9z M534.9,107.3
		c-1.2,0.2-2.2,0.8-2.9,1.5c-0.8,0.8-1.2,1.9-1.4,3.3l9.8-2C539.2,107.8,537.4,106.8,534.9,107.3z"/>
	<path class="st3" d="M573.4,96.6c1.1-3.7,2.8-6.8,5-9.2c2.3-2.4,4.8-3.8,7.6-4.4l4.3,21.1c-1.5,0.3-2.9,0.9-4.3,1.7
		c-1.4,0.8-2.5,1.9-3.5,3.2c-1,1.3-1.6,2.9-2,4.6c-0.4,1.8-0.3,3.8,0.1,6l1.9,9.6l-23,4.7l-8.5-42.2l16.9-3.4L573.4,96.6z"/>
	<path class="st3" d="M596.6,80.1c-1.2,0.2-2.4,0.3-3.6,0.3c-1.2-0.1-2.3-0.3-3.2-0.7c-1-0.4-1.8-0.9-2.4-1.6
		c-0.6-0.7-1.1-1.6-1.3-2.6c-0.3-1.4-0.1-2.7,0.5-4.1c0.6-1.3,1.4-2.6,2.6-3.7c1.1-1.1,2.5-2.1,4-2.9c1.5-0.8,3.1-1.4,4.8-1.7
		c2.6-0.5,4.8-0.4,6.9,0.4c2,0.8,3.2,2.2,3.6,4.2c0.3,1.3,0.1,2.7-0.4,4c-0.6,1.3-1.4,2.6-2.5,3.7c-1.1,1.1-2.5,2.1-4,3
		C599.9,79.1,598.3,79.7,596.6,80.1z M610.9,79.6l8.5,42.2l-23,4.7l-8.5-42.2L610.9,79.6z"/>
	<path class="st3" d="M666.3,99c0.5-0.1,1-0.3,1.5-0.6l2.6,13c-1.4,0.7-2.8,1.4-4.2,2c-1.4,0.6-3.2,1.1-5.5,1.6
		c-4,0.8-7.3,0.9-9.9,0.3c-2.6-0.6-4.9-1.9-6.8-3.8c-0.6,2.2-1.8,4-3.5,5.7c-1.7,1.6-3.8,2.7-6.3,3.2c-1.8,0.4-3.5,0.4-5.1,0.1
		s-3-0.9-4.3-1.7c-1.3-0.8-2.3-1.9-3.2-3.2c-0.9-1.3-1.5-2.7-1.8-4.4c-0.3-1.6-0.4-3.2-0.1-4.7c0.3-1.5,0.8-2.9,1.7-4.1
		c0.8-1.2,1.9-2.3,3.3-3.2c1.4-0.9,2.9-1.6,4.7-1.9c2.1-0.4,4.2-0.3,6.4,0.2c-0.6-1.3-1.3-2.4-1.8-3.4c-0.6-0.9-1.3-1.7-2.1-2.3
		c-0.8-0.6-1.8-0.9-2.9-1.1c-1.1-0.1-2.5-0.1-4.1,0.3c-2,0.4-3.9,1.1-5.6,2.1l-3-14.6c1.9-1,3.9-1.8,6.2-2.5
		c2.2-0.7,4.3-1.2,6.3-1.6c4.7-0.9,8.6-1.1,11.9-0.5c3.3,0.6,6.1,1.7,8.5,3.4c2.4,1.7,4.4,3.9,6.1,6.5c1.7,2.6,3.2,5.6,4.5,8.7
		c0.9,2.2,1.8,3.9,2.7,5.1C663.5,98.8,664.7,99.3,666.3,99z M638,109.5c0.7-0.1,1.3-0.5,1.7-1.1c0.4-0.6,0.6-1.3,0.4-2.1
		c-0.2-0.8-0.6-1.4-1.2-1.8s-1.3-0.5-2-0.4c-0.8,0.2-1.4,0.5-1.8,1.2c-0.4,0.6-0.5,1.3-0.4,2.1c0.2,0.8,0.6,1.4,1.2,1.8
		C636.5,109.5,637.2,109.6,638,109.5z"/>
</g>
</svg>
