<?xml version="1.0" encoding="utf-8"?>
<!-- Generator: Adobe Illustrator 23.0.3, SVG Export Plug-In . SVG Version: 6.00 Build 0)  -->
<svg version="1.1" id="Layer_1" xmlns="http://www.w3.org/2000/svg" xmlns:xlink="http://www.w3.org/1999/xlink" x="0px" y="0px"
	 viewBox="0 0 512 512" style="enable-background:new 0 0 512 512;" xml:space="preserve">
<style type="text/css">
	.st0{fill:#FFFFFF;}
</style>
<rect y="0" class="st0" width="512" height="512"/>
<path d="M256,71.9c-50,0-56.3,0.3-75.9,1.1c-19.6,0.9-33,4-44.6,8.5c-12.1,4.7-22.4,11-32.6,21.3s-16.5,20.5-21.3,32.6
	c-4.5,11.7-7.6,25.1-8.5,44.6c-0.9,19.7-1.1,25.9-1.1,75.9s0.3,56.3,1.1,75.9c0.9,19.6,4,33,8.5,44.6c4.7,12.1,11,22.4,21.3,32.6
	s20.5,16.5,32.6,21.3c11.7,4.5,25.1,7.6,44.6,8.5c19.7,0.9,25.9,1.1,75.9,1.1s56.3-0.3,75.9-1.1c19.6-0.9,33-4,44.6-8.5
	c12.1-4.7,22.4-11,32.6-21.3c10.2-10.2,16.5-20.5,21.3-32.6c4.5-11.7,7.6-25.1,8.5-44.6c0.9-19.7,1.1-25.9,1.1-75.9
	s-0.3-56.3-1.1-75.9c-0.9-19.6-4-33-8.5-44.6c-4.7-12.1-11-22.4-21.3-32.6c-10.2-10.2-20.5-16.5-32.6-21.3
	c-11.7-4.5-25.1-7.6-44.6-8.5C312.3,72.1,306,71.9,256,71.9z M256,105.1c49.2,0,55,0.3,74.4,1.1c18,0.8,27.7,3.8,34.1,6.4
	c8.6,3.3,14.8,7.3,21.2,13.8c6.4,6.4,10.4,12.5,13.8,21.2c2.5,6.5,5.5,16.2,6.3,34.1c0.9,19.4,1.1,25.3,1.1,74.4s-0.3,55-1.2,74.4
	c-1,18-3.9,27.7-6.5,34.1c-3.5,8.6-7.4,14.8-13.8,21.2c-6.4,6.4-12.6,10.4-21.2,13.8c-6.4,2.5-16.4,5.5-34.3,6.3
	c-19.6,0.9-25.3,1.1-74.5,1.1s-55-0.3-74.5-1.2c-18-1-27.8-3.9-34.3-6.5c-8.7-3.5-14.8-7.4-21.2-13.8c-6.5-6.4-10.6-12.6-13.8-21.2
	c-2.5-6.4-5.5-16.4-6.4-34.3c-0.7-19.3-1-25.3-1-74.3c0-49,0.3-55,1-74.6c1-18,3.9-27.8,6.4-34.2c3.2-8.7,7.4-14.8,13.8-21.2
	c6.4-6.4,12.5-10.6,21.2-13.8c6.4-2.6,16.1-5.5,34.1-6.5c19.6-0.7,25.3-0.9,74.5-0.9C255.3,104.5,256,105.1,256,105.1z M256,161.5
	c-52.2,0-94.5,42.3-94.5,94.5s42.3,94.5,94.5,94.5s94.5-42.3,94.5-94.5S308.2,161.5,256,161.5z M256,317.4
	c-33.9,0-61.4-27.5-61.4-61.4s27.5-61.4,61.4-61.4s61.4,27.5,61.4,61.4S289.9,317.4,256,317.4z M376.3,157.7
	c0,12.2-9.9,22.1-22.1,22.1s-22.1-9.9-22.1-22.1c0-12.2,9.9-22.1,22.1-22.1C366.5,135.7,376.3,145.5,376.3,157.7z"/>
</svg>
