<?xml version="1.0" encoding="utf-8"?>
<!-- Generator: Adobe Illustrator 23.0.3, SVG Export Plug-In . SVG Version: 6.00 Build 0)  -->
<svg version="1.1" id="Layer_1" xmlns="http://www.w3.org/2000/svg" xmlns:xlink="http://www.w3.org/1999/xlink" x="0px" y="0px"
	 viewBox="0 0 34.7 34.9" style="enable-background:new 0 0 34.7 34.9;" xml:space="preserve">
<style type="text/css">
	.st0{fill:#FFFFFF;}
</style>
<polygon points="-19.4,-34.9 -19.4,-36.3 -33.6,-36.3 -33.6,-34.9 -33.6,-29.9 -33.6,-13.8 -7.4,-13.8 -7.4,-34.9 "/>
<polygon points="14.8,7 2.8,7 2.8,13.7 2.8,27.9 14.8,27.9 26.7,27.9 31.9,27.9 31.9,7 "/>
<g>
	<path class="st0" d="M20.9,10.4h-6.3c-2.1,0-3.9,1.7-3.9,3.9v6.3c0,2.1,1.7,3.9,3.9,3.9h6.3c2.1,0,3.9-1.7,3.9-3.9v-6.3
		C24.8,12.1,23,10.4,20.9,10.4z M23.5,20.6c0,1.5-1.2,2.6-2.6,2.6h-6.3c-1.5,0-2.6-1.2-2.6-2.6v-6.3c0-1.5,1.2-2.6,2.6-2.6h6.3
		c1.5,0,2.6,1.2,2.6,2.6L23.5,20.6L23.5,20.6z"/>
	<path class="st0" d="M17.7,13.8c-2,0-3.6,1.6-3.6,3.6c0,2,1.6,3.6,3.6,3.6s3.6-1.6,3.6-3.6C21.3,15.4,19.7,13.8,17.7,13.8z
		 M17.7,19.8c-1.3,0-2.4-1.1-2.4-2.4c0-1.3,1.1-2.4,2.4-2.4c1.3,0,2.4,1.1,2.4,2.4C20.1,18.8,19,19.8,17.7,19.8z"/>
	<path class="st0" d="M21.5,12.7c-0.2,0-0.5,0.1-0.6,0.3c-0.2,0.2-0.3,0.4-0.3,0.6c0,0.2,0.1,0.5,0.3,0.6c0.2,0.2,0.4,0.3,0.6,0.3
		c0.2,0,0.5-0.1,0.6-0.3c0.2-0.2,0.3-0.4,0.3-0.6c0-0.2-0.1-0.5-0.3-0.6C22,12.8,21.7,12.7,21.5,12.7z"/>
</g>
</svg>
