<?xml version="1.0" encoding="utf-8"?>
<!-- Generator: Adobe Illustrator 23.0.2, SVG Export Plug-In . SVG Version: 6.00 Build 0)  -->
<svg version="1.1" id="Layer_1" xmlns="http://www.w3.org/2000/svg" xmlns:xlink="http://www.w3.org/1999/xlink" x="0px" y="0px"
	 viewBox="0 0 512 512" style="enable-background:new 0 0 512 512;" xml:space="preserve">
<style type="text/css">
	.st0{fill:#FFFFFF;}
</style>
<path class="st0" d="M256,0C114.6,0,0,114.6,0,256s114.6,256,256,256s256-114.6,256-256S397.4,0,256,0z M256,457.7
	c-111.4,0-201.7-90.3-201.7-201.7S144.6,54.3,256,54.3S457.7,144.6,457.7,256S367.4,457.7,256,457.7z"/>
<path class="st0" d="M256,71.3C154,71.3,71.3,154,71.3,256S154,440.7,256,440.7S440.7,358,440.7,256S358,71.3,256,71.3z
	 M347.1,227.3l-0.1,96l-1,3.6c-3.4,12.2-11.8,20.8-23.6,24.3c-8.4,2.5-20.6,3.4-26.6,2c-5.3-1.3-9.2-3.5-13.5-7.8
	c-6.2-6.2-8.9-12.5-8.9-20.6c0-4.5,0.8-8,2.9-12.5c3-6.4,7-10.3,14.1-13.9c5.7-2.8,10.7-4.3,25.5-7.4c9.7-2,12.1-2.9,14-5.2
	c2.6-3.1,2.6-1.9,2.4-51.1c-0.1-42.7-0.2-45-0.9-46.2c-1.2-1.8-3.6-2.7-6.1-2.3c-2.7,0.4-98.4,19.8-100.8,20.4
	c-2.7,0.7-4.6,2.8-5.2,5.7c-0.4,1.7-0.5,20.5-0.5,66.9c0,71.2,0.1,69.6-2.8,77.2c-0.8,2.2-2.3,5.1-3.2,6.6
	c-2.4,3.7-7.1,8.3-10.8,10.4c-8.7,5.2-25.8,7.8-35,5.4c-9.7-2.5-16.9-9.1-20.1-18.4c-1.6-4.5-1.9-11.8-0.8-16.7
	c1.1-5.1,3.8-10,7.3-13.6c6.3-6.3,13.7-9.2,33.6-13.3c4.3-0.9,8.8-1.9,9.9-2.3c2.4-0.8,4.9-3.2,6.1-5.8c0.8-1.7,1.3-152.1,1.3-152.1
	l1-2.1c1.2-2.5,3.8-4.9,6.5-5.9c1.7-0.6,101.1-20.9,118-24.1c3.8-0.7,7.9-1.3,9.1-1.3c3.9,0,6.8,2.2,7.9,6
	C347.2,130.9,347.2,155.4,347.1,227.3z"/>
</svg>
