<?xml version="1.0" encoding="utf-8"?>
<!-- Generator: Adobe Illustrator 23.0.3, SVG Export Plug-In . SVG Version: 6.00 Build 0)  -->
<svg version="1.1" id="Layer_1" xmlns="http://www.w3.org/2000/svg" xmlns:xlink="http://www.w3.org/1999/xlink" x="0px" y="0px"
	 viewBox="0 0 512 512" style="enable-background:new 0 0 512 512;" xml:space="preserve">
<style type="text/css">
	.st0{fill:#FFFFFF;}
</style>
<rect y="0" class="st0" width="512" height="512"/>
<g>
	<path d="M331,135c-1.1,0-4.8,0.5-8.3,1.2c-15.5,2.9-106.8,21.5-108.4,22.1c-2.4,0.9-4.8,3.1-5.9,5.4l-1,2c0,0-0.5,138.2-1.2,139.7
		c-1.1,2.4-3.4,4.6-5.6,5.3c-1,0.3-5.1,1.3-9.1,2.1c-18.3,3.7-25.1,6.4-30.9,12.2c-3.3,3.3-5.7,7.8-6.7,12.5
		c-1,4.5-0.7,11.2,0.8,15.3c3,8.5,9.6,14.6,18.5,16.9c8.4,2.2,24.1-0.2,32.1-5c3.4-2,7.7-6.2,9.9-9.6c0.9-1.4,2.2-4.1,3-6.1
		c2.6-7,2.7-130.8,3-132.3c0.6-2.6,2.3-4.6,4.8-5.2c2.2-0.6,90.1-18.4,92.6-18.7c2.3-0.3,4.5,0.5,5.6,2.1c0.7,1.1,2.5,86.5,0.1,89.3
		c-1.7,2.1-5.4,2.9-14.3,4.7c-13.6,2.8-18.3,4.2-23.5,6.8c-6.5,3.3-10.1,6.8-12.9,12.7c-2,4.2-2.7,7.3-2.7,11.5
		c0,7.4,2.5,13.3,8.2,19c3.9,3.9,7.5,6,12.4,7.1c5.5,1.3,16.8,0.4,24.4-1.9c10.9-3.3,18.6-11.2,21.7-22.4c0.6-2.2,0.9-4.4,0.9-6.7
		c0-24.6,0.1-173.4-0.2-174.6C337.2,137,334.6,135,331,135z"/>
	<path d="M254.9,71.5c-102.3,0-185.3,82.9-185.3,185.3S152.6,442,254.9,442s185.3-82.9,185.3-185.3S357.2,71.5,254.9,71.5z
		 M254.9,426.4c-93.7,0-169.7-76-169.7-169.7S161.2,87,254.9,87s169.7,76,169.7,169.7S348.6,426.4,254.9,426.4z"/>
</g>
</svg>
