<?xml version="1.0" encoding="utf-8"?>
<!-- Generator: Adobe Illustrator 23.0.2, SVG Export Plug-In . SVG Version: 6.00 Build 0)  -->
<svg version="1.1" id="Layer_1" xmlns="http://www.w3.org/2000/svg" xmlns:xlink="http://www.w3.org/1999/xlink" x="0px" y="0px"
	 viewBox="0 0 54.5 13.2" style="enable-background:new 0 0 54.5 13.2;" xml:space="preserve">
<style type="text/css">
	.st0{fill:#F20C3E;}
	.st1{fill:#FFFFFF;}
</style>
<rect class="st0" width="54.5" height="13.2"/>
<g>
	<path class="st1" d="M14.1,9L14.1,9l-0.6,0L12,7.1l-0.5,0.1V9h-0.5V3h0.5v3.7l0.4-0.1l1.4-1.9h0.6v0l-1.2,1.6
		c-0.1,0.1-0.2,0.2-0.3,0.4c0.1,0.2,0.3,0.4,0.5,0.7L14.1,9z"/>
	<path class="st1" d="M18.2,4.7V9h-0.5V8.4c-0.2,0.2-0.4,0.4-0.5,0.5C17,9,16.8,9,16.7,9.1s-0.3,0.1-0.4,0.1c-0.4,0-0.7-0.1-0.9-0.4
		S15,8.2,15,7.8v-3h0.5v3c0,0.3,0.1,0.5,0.2,0.7c0.1,0.2,0.3,0.3,0.6,0.3c0.2,0,0.4-0.1,0.6-0.2s0.4-0.4,0.7-0.7V4.7H18.2z"/>
	<path class="st1" d="M23,5.2c0.3,0.4,0.4,0.9,0.4,1.6c0,0.5-0.1,0.9-0.2,1.3s-0.4,0.6-0.6,0.8s-0.6,0.3-1,0.3c-0.2,0-0.4,0-0.6-0.1
		c-0.2,0-0.4-0.1-0.5-0.2v1.7h-0.5V4.7h0.5v0.7c0.3-0.3,0.5-0.5,0.7-0.6s0.5-0.2,0.7-0.2C22.3,4.6,22.7,4.8,23,5.2z M22.5,8.3
		c0.2-0.3,0.3-0.8,0.3-1.4c0-0.6-0.1-1-0.3-1.3c-0.2-0.3-0.5-0.5-0.8-0.5c-0.2,0-0.4,0.1-0.6,0.2c-0.2,0.1-0.4,0.4-0.7,0.7v2.5
		c0.2,0.1,0.3,0.1,0.5,0.2c0.2,0,0.4,0.1,0.6,0.1C21.9,8.7,22.3,8.5,22.5,8.3z"/>
	<path class="st1" d="M29.8,4.9C30,5,30.2,5.3,30.3,5.6c0.1,0.3,0.2,0.7,0.2,1.2c0,0.8-0.2,1.3-0.5,1.7s-0.9,0.6-1.5,0.6
		c-0.2,0-0.5,0-0.8-0.1C27.4,9,27.2,8.9,27,8.8V3h0.5v2.4c0.3-0.3,0.5-0.5,0.7-0.6c0.2-0.1,0.4-0.2,0.7-0.2
		C29.3,4.6,29.6,4.7,29.8,4.9z M29.6,8.3C29.8,8,30,7.5,30,6.9c0-0.6-0.1-1-0.3-1.3c-0.2-0.3-0.5-0.5-0.8-0.5
		c-0.2,0-0.4,0.1-0.6,0.2c-0.2,0.1-0.4,0.4-0.7,0.7v2.5c0.3,0.1,0.7,0.2,1,0.2C29,8.7,29.4,8.5,29.6,8.3z"/>
	<path class="st1" d="M31.9,3.5c-0.1-0.1-0.1-0.2-0.1-0.3c0-0.1,0-0.2,0.1-0.3s0.2-0.1,0.3-0.1c0.1,0,0.2,0,0.3,0.1s0.1,0.2,0.1,0.3
		c0,0.1,0,0.2-0.1,0.3s-0.2,0.1-0.3,0.1C32.1,3.6,32,3.6,31.9,3.5z M31.9,4.7h0.5V9h-0.5V4.7z"/>
	<path class="st1" d="M35.3,9.1c-0.1,0-0.2,0-0.3,0c-0.3,0-0.5-0.1-0.6-0.2c-0.1-0.1-0.2-0.4-0.2-0.7V3h0.5v5.1c0,0.2,0,0.3,0.1,0.4
		s0.1,0.1,0.2,0.1c0.2,0,0.3,0,0.5-0.1h0V9C35.5,9.1,35.4,9.1,35.3,9.1z"/>
	<path class="st1" d="M39.9,7H37c0,0.4,0.1,0.7,0.2,0.9c0.1,0.2,0.3,0.4,0.5,0.6s0.5,0.2,0.8,0.2c0.2,0,0.4,0,0.6-0.1
		c0.2-0.1,0.4-0.1,0.6-0.3h0v0.5c-0.2,0.1-0.3,0.2-0.6,0.2s-0.5,0.1-0.8,0.1c-0.7,0-1.1-0.2-1.5-0.6c-0.3-0.4-0.5-0.9-0.5-1.6
		c0-0.5,0.1-0.9,0.2-1.3s0.4-0.6,0.6-0.8c0.3-0.2,0.6-0.3,1-0.3c0.5,0,0.9,0.2,1.2,0.5c0.3,0.4,0.4,0.9,0.4,1.6V7z M37.3,5.5
		C37.1,5.7,37,6.1,37,6.6h2.4c0-0.5-0.1-0.9-0.3-1.1s-0.5-0.4-0.8-0.4C37.8,5.1,37.6,5.2,37.3,5.5z"/>
	<path class="st1" d="M43.2,8.5V9c-0.2,0.1-0.5,0.2-0.8,0.2c-0.3,0-0.6-0.1-0.7-0.3c-0.1-0.2-0.2-0.4-0.2-0.7V5.2h-0.7V4.7h0.7V3.8
		l0.5-0.1h0v1h1.2v0.5H42V8c0,0.2,0,0.4,0.1,0.5c0.1,0.1,0.2,0.2,0.4,0.2C42.7,8.7,43,8.6,43.2,8.5L43.2,8.5z"/>
</g>
</svg>
