<?xml version="1.0" encoding="utf-8"?>
<!-- Generator: Adobe Illustrator 23.0.3, SVG Export Plug-In . SVG Version: 6.00 Build 0)  -->
<svg version="1.1" id="Layer_1" xmlns="http://www.w3.org/2000/svg" xmlns:xlink="http://www.w3.org/1999/xlink" x="0px" y="0px"
	 viewBox="0 0 82.7 82.7" style="enable-background:new 0 0 82.7 82.7;" xml:space="preserve">
<style type="text/css">
	.st0{fill-rule:evenodd;clip-rule:evenodd;}
</style>
<path class="st0" d="M4.4,58.3c4.4,2.8,9.2,5.7,13.7,8.4l12,7.4c0.3,0.2,0.5,0.3,0.8,0.5c0.2,0.1,0.7,0.5,0.9,0.5
	c0.1-0.2,0.2-0.3,0.3-0.5c0.2-0.3,0.1-0.2,0.4-0.5l4.9-7.2c1.1-1.7,0.8-1.4,1.9-1.6c7-1.1,13.9-2.2,20.9-3.3
	c1.4-0.2,3.1-0.5,4.4-0.7c0.7-0.1,0.3,0,1.1-0.7l3.6-3.4l-0.2-2.8c0.9,0,2.3,0.2,3.2,0.1c0.2-1.9,0.2-3.9,0.3-5.8
	c0.1-1.9,0.2-3.8,0.3-5.8c0.1-1.9,0.2-3.9,0.3-5.8c0.2-3.8,0.4-7.7,0.6-11.5c0-0.5,0-1,0.1-1.4c0.1-1.5-0.2-0.9,0.9-2.1
	c0.6-0.6,3.8-3.6,3.8-3.7c0.1-0.2-0.3-5-0.3-5.8c-0.3,0-3.1,0.4-3.7,0.4c-0.3,0-0.6,0.1-0.9,0.1c-0.5,0.1-0.5,0-0.7-0.2L69.7,10
	c-1-0.9-2.3-1.9-3.3-2.8C66,7,66.1,7.1,64.9,7.5c-1.9,0.7-4,1.6-6,2.3c-0.5,0.2-1,0.4-1.5,0.6L50,13.2c-2,0.7-4,1.5-6,2.3l-7.5,2.8
	l-8.3,10.3c-0.6,0.8-1.2,1.5-1.8,2.3c-0.6,0.8-1.2,1.5-1.8,2.3c-0.6,0.8-1.2,1.5-1.8,2.3c-1.2,1.5-2.4,3-3.7,4.6
	c-1.2,1.4-2.5,3.2-3.7,4.6c-1.2,1.4-2.5,3.1-3.7,4.6c-1.3,1.5-2.4,3-3.7,4.6C8,53.8,4.6,58,4.4,58.3L4.4,58.3z M8.4,57.5
	c0.1-0.2,4.2-5.3,4.7-5.9c0.8-1,1.6-2,2.4-2.9c0.8-1,1.5-2,2.3-2.9c0.8-1,1.6-2,2.4-2.9l4.7-5.9c1.1-1.4,12.3-15.3,12.4-15.3
	l3.3-0.6c1.4-0.2,3-0.6,4.5-0.8c0.9-0.1,8.5-1.5,9-1.6c-0.1,0.2-0.6,0.7-0.7,0.9l-0.7,0.8c-0.2,0.3-0.5,0.6-0.7,0.8l-2,2.3l-1.2,1.8
	c0.1,0.2,5.5,3.8,5.7,3.9c-0.1,0.1,0,0-0.1,0.1c-0.2,0.1-3.4,1.3-3.5,1.4l-3.8,1.2c0,0.2,0.5,1.2,0.7,1.5c0.9,1.9,0.5,1,1,3.2
	c0.1,0.4,0,0.5-0.2,0.7l-5.8,7.9c-0.6,0.8-1.2,1.6-1.8,2.4c-1.5,2-1,1.7-2.3,2c-1.2,0.2-2.3,0.4-3.5,0.6l0.4,2.6
	c0.4,0,4.7-0.8,5.7-1c0.4-0.8,1-1.4,1.5-2.1l1.5-2.1c1.1-1.4,2-2.8,3.1-4.2c1-1.4,2.1-2.8,3.1-4.2c1.2-1.8,1.2-1.2,0.9-2.4
	c-0.1-0.5-0.2-1-0.3-1.5c-0.1-0.4-0.3-1.1-0.3-1.5c0.2-0.1,0.5-0.2,0.7-0.3l4.9,20.6c0.3,0,0.3-0.1,0.5,0c0.4,0.1,3.9,0.2,4.3,0.2
	c0.9,0,1.7,0,2.5,0.1c0.8,0,1.7,0,2.5,0.1l0.1,1.9c-0.2,0.3-0.6,0.6-0.8,0.8l-1.2,1.1c-0.7,0.6-0.2,0.5-1.7,0.7
	c-1.8,0.2-3.6,0.6-5.4,0.9c-0.9,0.1-1.8,0.3-2.8,0.4L43.7,62c-0.9,0.2-1.8,0.3-2.8,0.4c-0.4,0.1-3.9,0.6-4,0.7
	c-0.1,0.1-1.8,2.6-1.9,2.8l-3.2,4.7c-0.2,0.2-0.5,0.7-0.6,0.9c-0.3-0.1-5.3-3.3-5.7-3.5C24.5,67.5,8.7,57.6,8.4,57.5L8.4,57.5z
	 M52.5,24.7c0-0.2,0-0.1,0.1-0.2L53,24c1.1-1.4,2.5-2.9,3.7-4.3c2-2.4,4.3-4.9,6.4-7.4l1.1-1.2c0.4-0.4,0.5-0.7,0.8-0.8
	c0.5-0.2,0.5-0.3,0.8,0l4.6,3.9c-0.1,0.1-6.6,6.4-6.8,6.7l-1.7,1.7c-0.6,0.6-1.1,1.1-1.7,1.7l-3.4,3.3c-0.3-0.1-1.7-1.1-2.1-1.4
	L52.5,24.7L52.5,24.7z M54.1,32.3c0.2-0.1,3.9-1.6,4.2-1.7c2.7-1,5.6-2.3,8.4-3.4c0.8-0.3,3.7-1.5,4.2-1.7l-0.4,8.2L55,36.1
	L54.1,32.3L54.1,32.3z M55.6,38.7l14.8-2.3L70,43.3c-0.2,0.1-5.8,0.5-6.5,0.5c-1.1,0.1-2.2,0.2-3.3,0.2c-0.5,0-1.1,0.1-1.6,0.1
	c-0.4,0-1.3,0.1-1.6,0.1C56.9,44.2,55.6,38.9,55.6,38.7L55.6,38.7z M57.6,47l12.2-0.9c0.1,0.7-0.1,2.1-0.1,2.9
	c0,0.9-0.1,1.9-0.1,2.9c-0.2,0.1-10.7-0.3-11-0.4C58.6,51.3,57.6,47.3,57.6,47L57.6,47z M61.9,26.3c0.1-0.2,0.3-0.3,0.4-0.4l9-8.8
	c1-0.9,0.7-0.9,1.4-1c0.8-0.1,2.8-0.4,3.4-0.4c0,0.3,0.1,1.1,0,1.3l-4.9,4.7v0.8c-1.2,0.5-3.3,1.3-4.6,1.8l-3.4,1.4
	C62.8,25.9,62.1,26.2,61.9,26.3L61.9,26.3z M47.5,17l12-4.6c-0.1,0.2-0.7,0.9-0.9,1.1c-0.3,0.4-0.6,0.7-1,1.1
	c-0.6,0.7-0.5,0.6-1.3,0.8l-7.1,1.3C48.8,16.8,47.9,17,47.5,17z"/>
</svg>
