<?xml version="1.0" encoding="utf-8"?>
<!-- Generator: Adobe Illustrator 23.0.3, SVG Export Plug-In . SVG Version: 6.00 Build 0)  -->
<svg version="1.1" id="Layer_1" xmlns="http://www.w3.org/2000/svg" xmlns:xlink="http://www.w3.org/1999/xlink" x="0px" y="0px"
	 viewBox="0 0 91.7 91.7" style="enable-background:new 0 0 91.7 91.7;" xml:space="preserve">
<style type="text/css">
	.st0{fill-rule:evenodd;clip-rule:evenodd;fill:#FFFFFF;}
</style>
<path class="st0" d="M0,66.7c5.4,3.4,11.2,6.9,16.7,10.3l14.6,9c0.4,0.3,0.6,0.4,0.9,0.6c0.3,0.1,0.9,0.6,1.1,0.6
	c0.1-0.3,0.3-0.4,0.4-0.6c0.3-0.4,0.1-0.3,0.5-0.6l6-8.8c1.3-2.1,0.9-1.7,2.3-2c8.6-1.3,17-2.7,25.6-4c1.7-0.3,3.8-0.6,5.4-0.9
	c0.9-0.1,0.4,0,1.3-0.9l4.4-4.2L79,61.9c1.1,0,2.8,0.3,3.9,0.1c0.3-2.3,0.3-4.8,0.4-7.1s0.3-4.7,0.4-7.1c0.1-2.3,0.3-4.8,0.4-7.1
	c0.3-4.7,0.5-9.4,0.8-14.1c0-0.6,0-1.2,0.1-1.7c0.1-1.8-0.3-1.1,1.1-2.6c0.8-0.8,4.7-4.4,4.7-4.5c0.1-0.3-0.4-6.1-0.4-7.1
	c-0.4,0-3.8,0.5-4.5,0.5c-0.4,0-0.8,0.1-1.1,0.1c-0.6,0.1-0.6,0-0.9-0.3l-4-3.5c-1.2-1.1-2.8-2.3-4-3.4c-0.5-0.3-0.4-0.1-1.8,0.4
	c-2.3,0.9-4.9,2-7.3,2.8c-0.8,0.5-1.4,0.7-2,1l-9,3.4c-2.5,0.9-4.9,1.8-7.3,2.8l-9.2,3.4L29.1,30.4c-0.8,0.9-1.5,1.8-2.2,2.8
	c-0.8,0.9-1.5,1.8-2.2,2.8c-0.8,0.9-1.5,1.8-2.2,2.8c-1.5,1.8-2.9,3.7-4.5,5.6c-1.5,1.7-3,3.9-4.5,5.6c-1.5,1.7-3,3.8-4.5,5.6
	c-1.6,1.8-2.9,3.7-4.5,5.6C4.4,61.2,0.3,66.4,0,66.7L0,66.7z M4.9,65.8c0.1-0.3,5.1-6.5,5.7-7.2c0.9-1.2,2-2.5,2.9-3.5
	c0.9-1.2,1.8-2.5,2.8-3.5c0.9-1.2,2-2.5,2.9-3.5l5.7-7.2c1.3-1.7,15-18.7,15.2-18.7l4-0.8c1.7-0.3,3.7-0.8,5.5-0.9
	c1.1-0.1,10.4-1.8,11-2c-0.1,0.3-0.8,0.9-0.9,1.1L59,20.5c-0.3,0.4-0.6,0.8-0.9,0.9l-2.5,2.8l-1.5,2.2c0.1,0.3,6.7,4.7,6.9,4.8
	c-0.1,0.1,0,0-0.1,0.1c-0.3,0.1-4.2,1.6-4.3,1.7l-4.5,1.4c0,0.3,0.6,1.5,0.9,1.8c1.1,2.3,0.6,1.2,1.2,3.9c0.1,0.5,0,0.6-0.3,0.9
	L47,50.8c-0.8,0.9-1.5,2-2.2,2.9c-1.8,2.5-1.2,2.1-2.8,2.5c-1.5,0.3-2.8,0.5-4.3,0.8l0.5,3.2c0.5,0,5.7-0.9,6.9-1.2
	c0.5-0.9,1.2-1.7,1.8-2.6l1.8-2.6c1.3-1.7,2.5-3.4,3.8-5.1c1.2-1.7,2.6-3.4,3.8-5.1c1.5-2.2,1.5-1.5,1.1-2.9
	c-0.1-0.6-0.3-1.2-0.4-1.8c-0.1-0.5-0.4-1.3-0.4-1.8c0.3-0.1,0.6-0.3,0.9-0.4l6,25.2c0.4,0,0.4-0.1,0.6,0c0.5,0.1,4.8,0.3,5.2,0.3
	c1.1,0,2.1,0,3,0.1c0.9,0,2.1,0,3,0.1l0.1,2.3c-0.3,0.4-0.8,0.8-0.9,0.9L73,66.9c-0.9,0.8-0.3,0.6-2.1,0.9c-2.2,0.3-4.4,0.8-6.6,1.1
	c-1.1,0.1-2.2,0.4-3.4,0.5L48,71.3c-1.1,0.3-2.2,0.4-3.4,0.5c-0.5,0.1-4.8,0.8-4.9,0.9c-0.1,0.1-2.2,3.2-2.3,3.4l-3.9,5.7
	c-0.3,0.3-0.6,0.9-0.8,1.1c-0.4-0.1-6.5-4-6.9-4.3C24.6,78,5.3,65.9,4.9,65.8L4.9,65.8z M58.8,25.7c0-0.3,0-0.1,0.1-0.3l0.5-0.6
	c1.3-1.7,3-3.5,4.5-5.2c2.5-2.9,5.2-6,7.8-9L73,9.1c0.5-0.5,0.6-0.9,0.9-0.9c0.6-0.3,0.6-0.4,0.9,0l5.6,4.8
	c-0.1,0.1-8.1,7.8-8.3,8.2l-2,2c-0.8,0.8-1.3,1.3-2.1,2.1l-4.2,4c-0.4-0.1-2.1-1.3-2.6-1.7L58.8,25.7L58.8,25.7z M60.8,35
	c0.3-0.1,4.8-2,5.1-2.1c3.3-1.2,6.8-2.8,10.3-4.2c0.9-0.4,4.5-1.8,5.1-2.1l-0.5,10l-18.9,2.9L60.8,35L60.8,35z M62.6,42.8L80.7,40
	l-0.5,8.5c-0.3,0.1-7.1,0.6-8,0.6c-1.3,0.1-2.7,0.3-4,0.3c-0.6,0-1.3,0.1-2,0.1c-0.5,0-1.6,0.1-2,0.1C64.2,49.5,62.6,43.1,62.6,42.8
	L62.6,42.8z M65,52.9l14.9-1.1c0.1,0.9-0.1,2.6-0.1,3.5c0,1.1-0.1,2.3-0.1,3.5c-0.3,0.1-13.1-0.4-13.4-0.5
	C66.3,58.2,65,53.3,65,52.9L65,52.9z M70.3,27.7c0.1-0.3,0.4-0.4,0.5-0.5l11-10.7c1.2-1.1,0.9-1.1,1.7-1.2c0.9-0.1,3.4-0.5,4.2-0.5
	c0,0.4,0.1,1.3,0,1.6l-6,5.7V23c-1.5,0.6-4,1.6-5.6,2.2l-4.2,1.7C71.4,27.2,70.6,27.5,70.3,27.7L70.3,27.7z M52.7,16.2l14.6-5.6
	c-0.1,0.3-0.9,1.1-1.1,1.3c-0.4,0.5-0.8,0.9-1.2,1.3c-0.8,0.9-0.6,0.8-1.6,0.9l-8.6,1.6C54.3,16,53.2,16.2,52.7,16.2z"/>
</svg>
