<?xml version="1.0" encoding="utf-8"?>
<!-- Generator: Adobe Illustrator 23.0.3, SVG Export Plug-In . SVG Version: 6.00 Build 0)  -->
<svg version="1.1" id="Layer_1" xmlns="http://www.w3.org/2000/svg" xmlns:xlink="http://www.w3.org/1999/xlink" x="0px" y="0px"
	 viewBox="0 0 512 512" style="enable-background:new 0 0 512 512;" xml:space="preserve">
<style type="text/css">
	.st0{fill:#FFFFFF;}
</style>
<rect class="st0" width="512" height="512"/>
<path d="M256,68C152.6,68,68,152.6,68,256s84.6,188,188,188s188-84.6,188-188S360.3,68,256,68z M342.5,339.7
	c-3.8,5.6-10.3,7.5-16,3.8c-44.2-27.3-99.6-32.9-165.5-17.9c-6.5,1.9-12.2-2.8-14.1-8.4c-1.9-6.6,2.8-12.2,8.5-14.1
	c71.4-16,133.5-9.4,182.4,20.7C344.4,326.5,345.3,334,342.5,339.7z M365.1,288c-4.7,6.6-13.2,9.4-19.8,4.7
	c-50.7-31-127.8-40.4-187-21.6c-7.5,1.9-16-1.9-17.9-9.4c-1.9-7.5,1.9-16,9.4-17.9c68.6-20.7,153.2-10.3,211.5,25.4
	C366.9,272,369.7,281.4,365.1,288z M366.9,235.3c-60.2-35.7-160.8-39.5-218.1-21.6c-9.4,2.8-18.8-2.8-21.6-11.3
	c-2.8-9.4,2.8-18.8,11.3-21.6c66.7-19.7,176.7-16,246.3,25.4c8.4,4.7,11.3,16,6.6,24.4C386.7,237.2,375.4,240,366.9,235.3z"/>
</svg>
