<?xml version="1.0" encoding="utf-8"?>
<!-- Generator: Adobe Illustrator 23.0.3, SVG Export Plug-In . SVG Version: 6.00 Build 0)  -->
<svg version="1.1" id="Layer_1" xmlns="http://www.w3.org/2000/svg" xmlns:xlink="http://www.w3.org/1999/xlink" x="0px" y="0px"
	 viewBox="0 0 934.4 188.4" style="enable-background:new 0 0 934.4 188.4;" xml:space="preserve">
<g>
	<path d="M370.5,133c-11.7,0-17.5,4.3-22.8,8.1c-4.6,3.3-8.3,5.9-16.3,5.9s-11.7-2.6-16.3-5.9c-5.2-3.8-11.3-8.1-22.8-8.1
		c-11.7,0-17.5,4.3-22.8,8.1c-4.6,3.3-8.3,5.9-16.3,5.9s-11.7-2.6-16.3-5.9c-5.2-3.8-11.3-8.1-22.8-8.1v11.7
		c7.9,0,11.7,2.6,16.3,5.9c5.2,3.8,11.3,8.1,22.8,8.1c11.7,0,17.5-4.3,22.8-8.1c4.6-3.3,8.3-5.9,16.3-5.9s11.7,2.6,16.3,5.9
		c5.2,3.8,11.3,8.1,22.8,8.1c11.7,0,17.5-4.3,22.8-8.1c4.6-3.3,8.3-5.9,16.3-5.9c7.9,0,11.7,2.6,16.3,5.9c5.2,3.8,11.3,8.1,22.8,8.1
		V147c-7.9,0-11.7-2.6-16.3-5.9C388.1,137.4,382.1,133,370.5,133z"/>
	<path d="M370.5,64.1c-11.7,0-17.5,4.3-22.8,8.1c-4.6,3.3-8.3,5.9-16.3,5.9s-11.7-2.6-16.3-5.9c-5.2-3.8-11.3-8.1-22.8-8.1
		c-11.7,0-17.5,4.3-22.8,8.1c-4.6,3.3-8.3,5.9-16.3,5.9s-11.7-2.6-16.3-5.9c-5.2-3.8-11.3-8.1-22.8-8.1v11.7
		c7.9,0,11.7,2.6,16.3,5.9c5.2,3.8,11.3,8.1,22.8,8.1c11.7,0,17.5-4.3,22.8-8.1c4.7-3.3,8.4-5.9,16.3-5.9s11.7,2.6,16.3,5.9
		c5.2,3.8,11.3,8.1,22.8,8.1c11.6,0,17.5-4.3,22.8-8.1c4.6-3.3,8.3-5.9,16.3-5.9c7.9,0,11.7,2.6,16.3,5.9c5.2,3.8,11.3,8.1,22.8,8.1
		V78c-7.9,0-11.7-2.6-16.3-5.9C388.1,68.3,382.1,64.1,370.5,64.1z"/>
	<path d="M370.5,98.5c-11.7,0-17.5,4.3-22.8,8.1c-4.6,3.3-8.3,5.9-16.3,5.9s-11.7-2.6-16.3-5.9c-5.2-3.8-11.3-8.1-22.8-8.1
		c-11.7,0-17.5,4.3-22.8,8.1c-4.5,3.4-8.2,6-16.1,6s-11.7-2.6-16.3-5.9c-5.2-3.8-11.3-8.1-22.8-8.1v11.7c7.9,0,11.7,2.6,16.3,5.9
		c5.2,3.8,11.3,8.1,22.8,8.1c11.7,0,17.5-4.3,22.8-8.1c4.6-3.3,8.3-5.9,16.3-5.9s11.7,2.6,16.3,5.9c5.2,3.8,11.3,8.1,22.8,8.1
		c11.7,0,17.5-4.3,22.8-8.1c4.6-3.3,8.3-5.9,16.3-5.9c7.9,0,11.7,2.6,16.3,5.9c5.2,3.8,11.3,8.1,22.8,8.1v-11.7
		c-7.9,0-11.7-2.6-16.3-5.9C388.1,102.8,382.1,98.5,370.5,98.5z"/>
	<path d="M393.4,37.6c-5.2-3.8-11.3-8.1-22.9-8.1s-17.5,4.3-22.8,8.1c-4.6,3.3-8.3,5.9-16.3,5.9s-11.7-2.6-16.3-5.9
		c-5.2-3.8-11.3-8.1-22.9-8.1c-11.7,0-17.5,4.3-22.8,8.1c-4.6,3.3-8.3,5.9-16.3,5.9c-7.9,0-11.7-2.6-16.3-5.9
		c-5.2-3.7-11.2-8.1-22.8-8.1v11.7c7.9,0,11.7,2.6,16.3,5.9c5.2,3.8,11.3,8.1,22.8,8.1s17.5-4.3,22.8-8.1c4.6-3.3,8.3-5.9,16.3-5.9
		s11.7,2.6,16.3,5.9c5.2,3.8,11.3,8.1,22.8,8.1s17.5-4.3,22.8-8.1c4.6-3.3,8.3-5.9,16.3-5.9s11.7,2.6,16.3,5.9
		c5.2,3.8,11.3,8.1,22.8,8.1V43.6C401.6,43.6,398,41,393.4,37.6z"/>
	<path d="M527,133c-11.7,0-17.5,4.3-22.8,8.1c-4.6,3.3-8.3,5.9-16.3,5.9s-11.7-2.6-16.3-5.9c-5.2-3.8-11.3-8.1-22.8-8.1
		s-17.5,4.3-22.8,8.1c-4.6,3.3-8.3,5.9-16.3,5.9s-11.7-2.6-16.3-5.9c-5.2-3.8-11.3-8.1-22.8-8.1v11.7c7.9,0,11.7,2.6,16.3,5.9
		c5.2,3.8,11.3,8.1,22.8,8.1c11.7,0,17.5-4.3,22.8-8.1c4.6-3.3,8.3-5.9,16.3-5.9s11.7,2.6,16.3,5.9c5.2,3.8,11.3,8.1,22.8,8.1
		c11.7,0,17.5-4.3,22.8-8.1c4.6-3.3,8.3-5.9,16.3-5.9c7.9,0,11.7,2.6,16.3,5.9c5.2,3.8,11.3,8.1,22.8,8.1V147
		c-7.9,0-11.7-2.6-16.3-5.9C544.5,137.4,538.6,133,527,133z"/>
	<path d="M527,64.1c-11.7,0-17.5,4.3-22.8,8.1c-4.6,3.3-8.3,5.9-16.3,5.9s-11.7-2.6-16.3-5.9c-5.2-3.8-11.3-8.1-22.8-8.1
		s-17.5,4.3-22.8,8.1c-4.6,3.3-8.3,5.9-16.3,5.9s-11.7-2.6-16.3-5.9c-5.2-3.8-11.3-8.1-22.8-8.1v11.7c7.9,0,11.7,2.6,16.3,5.9
		c5.2,3.8,11.3,8.1,22.8,8.1c11.7,0,17.5-4.3,22.8-8.1c4.6-3.3,8.3-5.9,16.3-5.9s11.7,2.6,16.3,5.9c5.2,3.8,11.2,8.1,22.8,8.1
		c11.7,0,17.5-4.3,22.8-8.1c4.6-3.3,8.3-5.9,16.3-5.9c7.9,0,11.7,2.6,16.3,5.9c5.2,3.8,11.3,8.1,22.8,8.1V78
		c-7.9,0-11.7-2.6-16.3-5.9C544.5,68.3,538.6,64.1,527,64.1z"/>
	<path d="M527,98.5c-11.7,0-17.5,4.3-22.8,8.1c-4.6,3.3-8.3,5.9-16.3,5.9s-11.7-2.6-16.3-5.9c-5.2-3.8-11.3-8.1-22.8-8.1
		s-17.5,4.3-22.8,8.1c-4.5,3.4-8.2,6-16.1,6s-11.7-2.6-16.3-5.9c-5.2-3.8-11.3-8.1-22.8-8.1v11.7c7.9,0,11.7,2.6,16.3,5.9
		c5.2,3.8,11.3,8.1,22.8,8.1c11.7,0,17.5-4.3,22.8-8.1c4.6-3.3,8.3-5.9,16.3-5.9s11.7,2.6,16.3,5.9c5.2,3.8,11.3,8.1,22.8,8.1
		c11.7,0,17.5-4.3,22.8-8.1c4.6-3.3,8.3-5.9,16.3-5.9c7.9,0,11.7,2.6,16.3,5.9c5.2,3.8,11.3,8.1,22.8,8.1v-11.7
		c-7.9,0-11.7-2.6-16.3-5.9C544.5,102.8,538.6,98.5,527,98.5z"/>
	<path d="M549.8,37.6c-5.2-3.8-11.3-8.1-22.8-8.1c-11.6,0-17.5,4.3-22.8,8.1c-4.6,3.3-8.3,5.9-16.3,5.9s-11.7-2.6-16.3-5.9
		c-5.3-3.8-11.3-8.1-22.9-8.1c-11.7,0-17.5,4.3-22.8,8.1c-4.6,3.3-8.3,5.9-16.3,5.9c-7.9,0-11.7-2.6-16.3-5.9
		c-5.2-3.7-11.1-8.1-22.8-8.1v11.7c7.9,0,11.7,2.6,16.3,5.9c5.2,3.8,11.3,8.1,22.8,8.1c11.6,0,17.5-4.3,22.8-8.1
		c4.6-3.3,8.3-5.9,16.3-5.9c7.9,0,11.7,2.6,16.3,5.9c5.2,3.8,11.3,8.1,22.8,8.1c11.6,0,17.5-4.3,22.8-8.1c4.6-3.3,8.3-5.9,16.3-5.9
		c7.9,0,11.7,2.6,16.3,5.9c5.2,3.8,11.3,8.1,22.8,8.1V43.6C558.1,43.6,554.4,41,549.8,37.6z"/>
	<path d="M682.9,133c-11.7,0-17.5,4.3-22.8,8.1c-4.6,3.3-8.3,5.9-16.3,5.9c-7.9,0-11.7-2.6-16.3-5.9c-5.2-3.8-11.3-8.1-22.8-8.1
		c-11.6,0-17.5,4.3-22.8,8.1c-4.6,3.3-8.3,5.9-16.3,5.9c-7.9,0-11.7-2.6-16.3-5.9c-5.2-3.8-11.3-8.1-22.8-8.1v11.7
		c7.9,0,11.7,2.6,16.3,5.9c5.2,3.8,11.3,8.1,22.8,8.1c11.6,0,17.5-4.3,22.8-8.1c4.6-3.3,8.3-5.9,16.3-5.9c7.9,0,11.7,2.6,16.3,5.9
		c5.2,3.8,11.3,8.1,22.8,8.1c11.7,0,17.5-4.3,22.8-8.1c4.6-3.3,8.3-5.9,16.3-5.9c7.9,0,11.7,2.6,16.3,5.9c5.2,3.8,11.3,8.1,22.8,8.1
		V147c-7.9,0-11.7-2.6-16.3-5.9C700.5,137.4,694.4,133,682.9,133z"/>
	<path d="M682.9,64.1c-11.7,0-17.5,4.3-22.8,8.1c-4.6,3.3-8.3,5.9-16.3,5.9c-7.9,0-11.7-2.6-16.3-5.9c-5.2-3.8-11.3-8.1-22.8-8.1
		c-11.6,0-17.5,4.3-22.8,8.1c-4.6,3.3-8.3,5.9-16.3,5.9c-7.9,0-11.7-2.6-16.3-5.9c-5.2-3.8-11.3-8.1-22.8-8.1v11.7
		c7.9,0,11.7,2.6,16.3,5.9c5.2,3.8,11.3,8.1,22.8,8.1c11.6,0,17.5-4.3,22.8-8.1c4.6-3.3,8.3-5.9,16.3-5.9c7.9,0,11.7,2.6,16.3,5.9
		c5.2,3.8,11.3,8.1,22.8,8.1c11.7,0,17.5-4.3,22.8-8.1c4.6-3.3,8.3-5.9,16.3-5.9c7.9,0,11.7,2.6,16.3,5.9c5.2,3.8,11.3,8.1,22.8,8.1
		V78c-7.9,0-11.7-2.6-16.3-5.9C700.5,68.3,694.4,64.1,682.9,64.1z"/>
	<path d="M682.9,98.5c-11.7,0-17.5,4.3-22.8,8.1c-4.6,3.3-8.3,5.9-16.3,5.9c-7.9,0-11.7-2.6-16.3-5.9c-5.2-3.8-11.3-8.1-22.8-8.1
		c-11.6,0-17.5,4.3-22.8,8.1c-4.6,3.3-8.3,5.9-16.3,5.9c-7.9,0-11.7-2.6-16.3-5.9c-5.2-3.8-11.3-8.1-22.8-8.1v11.7
		c7.9,0,11.7,2.6,16.3,5.9c5.2,3.8,11.3,8.1,22.8,8.1c11.6,0,17.5-4.3,22.8-8.1c4.6-3.3,8.3-5.9,16.3-5.9c7.9,0,11.7,2.6,16.3,5.9
		c5.2,3.8,11.3,8.1,22.8,8.1c11.7,0,17.5-4.3,22.8-8.1c4.6-3.3,8.3-5.9,16.3-5.9c7.9,0,11.7,2.6,16.3,5.9c5.2,3.8,11.3,8.1,22.8,8.1
		v-11.6c-7.9,0-11.7-2.6-16.3-5.9C700.5,102.8,694.4,98.5,682.9,98.5z"/>
	<path d="M705.8,37.6c-5.2-3.8-11.3-8.1-22.9-8.1s-17.5,4.3-22.8,8.1c-4.6,3.3-8.3,5.9-16.3,5.9c-7.9,0-11.7-2.6-16.3-5.9
		c-5.2-3.8-11.3-8.1-22.8-8.1c-11.6,0-17.5,4.3-22.8,8.1c-4.6,3.3-8.3,5.9-16.3,5.9c-7.9,0-11.7-2.6-16.3-5.9
		c-5.3-3.7-11.3-8.1-22.8-8.1v11.7c7.9,0,11.7,2.6,16.3,5.9c5.2,3.8,11.3,8.1,22.8,8.1c11.6,0,17.5-4.3,22.8-8.1
		c4.6-3.3,8.3-5.9,16.3-5.9c7.9,0,11.7,2.6,16.3,5.9c5.2,3.8,11.3,8.1,22.8,8.1c11.6,0,17.5-4.3,22.8-8.1c4.6-3.3,8.3-5.9,16.3-5.9
		c7.9,0,11.7,2.6,16.3,5.9c5.2,3.8,11.3,8.1,22.8,8.1V43.6C714,43.6,710.3,41,705.8,37.6z"/>
	<path d="M393.4,141.2c-5.2-3.8-11.3-8.1-22.8-8.1c-11.6,0-17.5,4.3-22.8,8.1c-4.6,3.3-8.3,5.9-16.3,5.9c-7.9,0-11.7-2.6-16.3-5.9
		c-5.2-3.8-11.3-8.1-22.8-8.1c-11.7,0-17.5,4.3-22.8,8.1c-4.6,3.3-8.3,5.9-16.3,5.9c-7.9,0-11.7-2.6-16.3-5.9
		c-5.2-3.7-11.1-8.1-22.7-8.1v11.7c7.9,0,11.7,2.6,16.3,5.9c5.2,3.8,11.3,8.1,22.8,8.1c11.7,0,17.5-4.3,22.8-8.1
		c4.6-3.3,8.3-5.9,16.3-5.9s11.7,2.6,16.3,5.9c5.2,3.8,11.3,8.1,22.8,8.1c11.7,0,17.5-4.3,22.8-8.1c4.6-3.3,8.3-5.9,16.3-5.9
		c7.9,0,11.7,2.6,16.3,5.9c5.2,3.8,11.3,8.1,22.8,8.1v-11.7C401.6,147.2,398,144.6,393.4,141.2z"/>
	<path d="M549.8,141.2c-5.2-3.8-11.3-8.1-22.8-8.1c-11.6,0-17.5,4.3-22.8,8.1c-4.6,3.3-8.3,5.9-16.3,5.9s-11.7-2.6-16.3-5.9
		c-5.2-3.8-11.3-8.1-22.8-8.1s-17.5,4.3-22.8,8.1c-4.6,3.3-8.3,5.9-16.3,5.9s-11.7-2.6-16.3-5.9c-5.2-3.7-11.1-8.1-22.7-8.1v11.7
		c7.9,0,11.7,2.6,16.3,5.9c5.2,3.8,11.3,8.1,22.8,8.1c11.7,0,17.5-4.3,22.8-8.1c4.6-3.3,8.3-5.9,16.3-5.9s11.7,2.6,16.3,5.9
		c5.2,3.8,11.3,8.1,22.8,8.1c11.7,0,17.5-4.3,22.8-8.1c4.6-3.3,8.3-5.9,16.3-5.9c7.9,0,11.7,2.6,16.3,5.9c5.2,3.8,11.3,8.1,22.8,8.1
		v-11.7C558.1,147.2,554.4,144.6,549.8,141.2z"/>
	<path d="M705.8,141.2c-5.2-3.8-11.3-8.1-22.8-8.1c-11.6,0-17.5,4.3-22.8,8.1c-4.6,3.3-8.3,5.9-16.3,5.9c-7.9,0-11.7-2.6-16.3-5.9
		c-5.2-3.8-11.3-8.1-22.8-8.1c-11.6,0-17.5,4.3-22.8,8.1c-4.6,3.3-8.3,5.9-16.3,5.9c-7.9,0-11.7-2.6-16.3-5.9
		c-5.2-3.8-11.3-8.1-22.8-8.1v11.7c7.9,0,11.7,2.6,16.3,5.9c5.2,3.8,11.3,8.1,22.8,8.1c11.6,0,17.5-4.3,22.8-8.1
		c4.6-3.3,8.3-5.9,16.3-5.9c7.9,0,11.7,2.6,16.3,5.9c5.2,3.8,11.3,8.1,22.8,8.1c11.7,0,17.5-4.3,22.8-8.1c4.6-3.3,8.3-5.9,16.3-5.9
		c7.9,0,11.7,2.6,16.3,5.9c5.2,3.8,11.3,8.1,22.8,8.1v-11.7C714,147.2,710.3,144.6,705.8,141.2z"/>
</g>
</svg>
