<?xml version="1.0" encoding="utf-8"?>
<!-- Generator: Adobe Illustrator 23.0.3, SVG Export Plug-In . SVG Version: 6.00 Build 0)  -->
<svg version="1.1" id="Layer_1" xmlns="http://www.w3.org/2000/svg" xmlns:xlink="http://www.w3.org/1999/xlink" x="0px" y="0px"
	 viewBox="0 0 34.7 34.9" style="enable-background:new 0 0 34.7 34.9;" xml:space="preserve">
<style type="text/css">
	.st0{fill:#FFFFFF;}
</style>
<polygon points="-19.4,-34.9 -19.4,-36.3 -33.6,-36.3 -33.6,-34.9 -33.6,-29.9 -33.6,-13.8 -7.4,-13.8 -7.4,-34.9 "/>
<g>
	<path class="st0" d="M-16.7-32.6h-7.7c-2.6,0-4.7,2.1-4.7,4.7v7.7c0,2.6,2.1,4.7,4.7,4.7h7.7c2.6,0,4.7-2.1,4.7-4.7v-7.7
		C-11.9-30.5-14.1-32.6-16.7-32.6z M-13.5-20.2c0,1.8-1.4,3.2-3.2,3.2h-7.7c-1.8,0-3.2-1.4-3.2-3.2v-7.7c0-1.8,1.4-3.2,3.2-3.2h7.7
		c1.8,0,3.2,1.4,3.2,3.2L-13.5-20.2L-13.5-20.2z"/>
	<path class="st0" d="M-20.5-28.5c-2.4,0-4.4,2-4.4,4.4c0,2.4,2,4.4,4.4,4.4s4.4-2,4.4-4.4C-16.1-26.5-18.1-28.5-20.5-28.5z
		 M-20.5-21.2c-1.6,0-2.9-1.3-2.9-2.9c0-1.6,1.3-2.9,2.9-2.9s2.9,1.3,2.9,2.9C-17.6-22.5-18.9-21.2-20.5-21.2z"/>
	<path class="st0" d="M-15.9-29.8c-0.3,0-0.6,0.1-0.8,0.3c-0.2,0.2-0.3,0.5-0.3,0.8c0,0.3,0.1,0.6,0.3,0.8c0.2,0.2,0.5,0.3,0.8,0.3
		c0.3,0,0.6-0.1,0.8-0.3c0.2-0.2,0.3-0.5,0.3-0.8c0-0.3-0.1-0.6-0.3-0.8C-15.3-29.7-15.6-29.8-15.9-29.8z"/>
</g>
<polygon points="14.8,7 2.8,7 2.8,13.7 2.8,27.9 14.8,27.9 26.7,27.9 31.9,27.9 31.9,7 "/>
<g>
	<g>
		<path class="st0" d="M25.6,13c-0.5-0.8-1-0.9-2.1-1c-1.1-0.1-3.8-0.1-6.2-0.1c-2.4,0-5.1,0-6.2,0.1c-1.1,0.1-1.6,0.2-2.1,1
			c-0.5,0.8-0.8,2.1-0.8,4.4c0,0,0,0,0,0c0,0,0,0,0,0v0c0,2.3,0.3,3.7,0.8,4.4c0.5,0.8,1,0.9,2.1,1c1.1,0.1,3.8,0.1,6.2,0.1
			c2.4,0,5.1,0,6.2-0.1c1.1-0.1,1.6-0.2,2.1-1c0.5-0.8,0.8-2.1,0.8-4.4c0,0,0,0,0,0c0,0,0,0,0,0C26.4,15.1,26.2,13.8,25.6,13z
			 M15.1,20.4v-6l5.7,3L15.1,20.4z"/>
	</g>
</g>
</svg>
